<svg width="48" height="48" viewBox="0 0 48 48" fill="none" xmlns="http://www.w3.org/2000/svg">
<path d="M48 24C48 26.5071 47.619 28.9266 46.9035 31.1969C45.8121 34.6667 43.9588 37.7967 41.5341 40.3861C41.4826 40.4479 41.4311 40.5045 41.3745 40.5611L41.3127 40.6229C41.2613 40.6795 41.2046 40.7362 41.1532 40.7876C39.7117 42.26 38.0798 43.5521 36.2934 44.6126C32.7001 46.7645 28.4942 48 24 48C23.0837 48 22.1725 47.9485 21.2819 47.8507C21.1583 47.8404 21.0399 47.825 20.9215 47.8095C20.9112 47.8044 20.906 47.8044 20.8958 47.8044C19.758 47.6551 18.6461 47.4286 17.565 47.1248C16.2934 46.7748 15.0631 46.3166 13.8893 45.7709C13.7091 45.6885 13.529 45.601 13.3488 45.5135C12.1905 44.9421 11.0888 44.278 10.0541 43.5315C9.01416 42.7902 8.03603 41.9665 7.12999 41.0656C6.15701 40.1081 5.26641 39.0579 4.47362 37.9459C4.27799 37.6679 4.08237 37.39 3.89704 37.1017C3.43372 36.4015 3.01158 35.6757 2.63063 34.9292C0.947231 31.6499 0 27.9382 0 24C0 10.7439 10.7439 0 24 0C37.2561 0 48 10.7439 48 24Z" fill="#EDDDD6"/>
<path d="M19.1011 14.4737C19.1011 14.4737 11.3502 17.4379 10.9549 26.2101C10.3834 38.8896 25.5788 35.9501 25.5788 35.9501C25.5788 35.9501 34.1852 36.8428 36.5657 30.4984C38.9466 24.154 31.2941 20.3239 31.2941 20.3239C31.2941 20.3239 22.0164 12.154 19.1011 14.4737Z" fill="#7772D3"/>
<path d="M41.3127 40.6229C41.2612 40.6796 41.2045 40.7362 41.1531 40.7877C39.7786 42.1879 38.2342 43.4286 36.5456 44.4582C36.4632 44.5097 36.3757 44.5612 36.2934 44.6126C36.1852 44.6796 36.072 44.7465 35.9587 44.8083C32.4426 46.8417 28.3551 48 23.9999 48C23.0836 48 22.1724 47.9485 21.2818 47.8507C21.1582 47.8404 21.0398 47.825 20.9214 47.8095C20.9111 47.8044 20.906 47.8044 20.8957 47.8044C19.758 47.6551 18.646 47.4286 17.5649 47.1249C16.2934 46.7748 15.063 46.3166 13.8892 45.7709C13.7091 45.6886 13.5289 45.6011 13.3487 45.5135C12.1904 44.9421 11.0887 44.278 10.054 43.5316C9.01408 42.7902 8.03595 41.9666 7.12991 41.0657C8.86993 36.2523 13.323 27.2793 22.6614 25.8173C22.682 25.8173 22.7026 25.8121 22.7232 25.807C23.3461 25.7143 23.9948 25.6525 24.664 25.6268C35.1968 25.2407 39.6601 35.1609 41.3127 40.6229Z" fill="#7772D3"/>
<path d="M36.2933 44.6126C32.7 46.7644 28.4941 47.9999 23.9999 47.9999C23.0836 47.9999 22.1724 47.9485 21.2818 47.8506C21.1582 47.8404 21.0398 47.8249 20.9214 47.8095C20.9111 47.8043 20.906 47.8043 20.8957 47.8043C19.758 47.655 18.646 47.4285 17.5649 47.1248C16.2933 46.7747 15.063 46.3165 13.8892 45.7709C13.7091 45.6885 13.5289 45.601 13.3487 45.5135C12.1904 44.942 11.0887 44.2779 10.054 43.5315C10.0076 39.9948 9.9819 37.2046 9.9819 37.2046L19.1248 30.4195L23.6138 27.0887C23.6704 27.0887 23.7271 27.0888 23.7837 27.0939C26.2547 27.1454 28.3397 27.6499 29.9819 28.2573C30.2444 28.3603 30.4967 28.4581 30.7387 28.5611C33.0192 29.5289 34.2547 30.6151 34.2547 30.6151C34.2547 30.6151 35.3255 37.7091 36.2933 44.6126Z" fill="#7772D3"/>
<path d="M22.5946 22.2744L22.7855 27.3837C22.7855 27.3837 23.7615 28.8178 26.7599 28.9496C28.9934 29.0474 29.7567 28.5146 29.7567 28.5146L29.3496 25.9388L28.9491 23.4269L23.5077 22.4411L22.5946 22.2744Z" fill="#7772D3"/>
<path d="M22.5946 22.0304C22.6126 22.1694 22.6718 22.332 22.7614 22.5179C23.9998 25.0272 28.0586 25.8709 29.3491 25.9383L28.9486 23.4264L22.5946 22.0304Z" fill="#7772D3"/>
<path d="M29.6539 11.7369C29.6539 11.7369 32.5749 18.0432 31.6509 21.6422C30.7268 25.2411 27.4552 24.7495 25.4902 24.1003C23.5252 23.4512 22.594 22.2754 22.594 22.2754C22.594 22.2754 20.786 22.9328 19.5309 21.2653C18.2758 19.5984 18.9832 17.6365 20.0138 17.168C21.0439 16.6996 22.2974 17.4234 22.2974 17.4234L21.2879 15.5943C21.2869 15.5948 25.1597 6.10239 29.6539 11.7369Z" fill="#7772D3"/>
<path d="M27.6271 21.6745C27.5298 21.6745 27.4284 21.6616 27.3234 21.6317C26.509 21.3991 26.4174 20.4669 26.4138 20.4272C26.4066 20.3439 26.4401 20.2625 26.5039 20.2085C26.5672 20.1544 26.6537 20.1343 26.735 20.1555L28.6257 20.6455C28.7091 20.6671 28.776 20.7289 28.8043 20.8102C28.8326 20.8915 28.8182 20.9816 28.7662 21.0501C28.7436 21.0789 28.2823 21.6745 27.6271 21.6745ZM27.0428 20.767C27.1211 20.9209 27.2513 21.0758 27.4644 21.1366C27.6786 21.1978 27.8788 21.1242 28.0358 21.0243L27.0428 20.767Z" fill="#7772D3"/>
<path d="M22.3049 20.0683C22.2694 20.0683 22.2333 20.0611 22.1988 20.0451L19.6318 18.8782C19.5026 18.8195 19.4455 18.6666 19.5041 18.5374C19.5628 18.4082 19.7147 18.3506 19.8449 18.4098L22.4119 19.5767C22.5411 19.6354 22.5983 19.7883 22.5396 19.9175C22.4964 20.0122 22.4032 20.0683 22.3049 20.0683Z" fill="#7772D3"/>
<path d="M20.0179 20.6613C19.9515 20.6613 19.8851 20.6361 19.8351 20.5851C19.7353 20.4842 19.7363 20.3211 19.8372 20.2212L20.9686 19.1026C21.07 19.0023 21.2327 19.0038 21.3325 19.1047C21.4324 19.2056 21.4314 19.3688 21.3305 19.4686L20.1991 20.5872C20.1486 20.6371 20.0833 20.6613 20.0179 20.6613Z" fill="#7772D3"/>
<path d="M25.9464 12.1086C25.9464 12.1086 27.4084 11.8867 28.9338 12.8087C30.4592 13.7307 30.7727 14.629 30.7727 14.629C30.7727 14.629 31.7163 12.2481 29.6478 10.1477C27.5799 8.04732 23.6118 7.46456 21.3245 9.95002C19.0373 12.4355 19.1773 14.629 19.1773 14.629L22.2965 17.4239C22.2965 17.4239 27.1135 16.4967 25.9464 12.1086Z" fill="#7772D3"/>
<path d="M20.7677 11.0163C20.7677 11.0163 17.8254 5.42828 14.8425 7.78993C11.86 10.1511 15.1812 14.9176 18.1435 15.2656C21.1064 15.6125 20.7677 11.0163 20.7677 11.0163Z" fill="#7772D3"/>
<path d="M21.2817 47.8507C21.1582 47.8404 21.0398 47.8249 20.9214 47.8095C20.9111 47.8043 20.9059 47.8043 20.8956 47.8043C19.7579 47.655 18.6459 47.4285 17.5649 47.1248L19.1247 30.4195L19.1762 29.8893L22.6614 25.8172L22.7026 25.7709C22.7026 25.7709 22.7077 25.7812 22.7232 25.8069C22.8107 25.9459 23.171 26.5019 23.7837 27.0939C24.9574 28.2316 27.0681 29.5135 29.9716 28.2625C30.4503 28.0566 30.6871 28.1801 30.7386 28.5611C31.0063 30.6615 25.4568 40.6743 21.2817 47.8507Z" fill="#7772D3"/>
<path d="M36.5456 44.4581C36.4632 44.5096 36.3757 44.5611 36.2933 44.6126C36.1852 44.6795 36.072 44.7464 35.9587 44.8082C37.0758 38.9755 34.7901 35.6345 34.7644 35.5984C34.682 35.48 34.7026 35.3101 34.8159 35.2226C34.9343 35.1351 35.0939 35.1609 35.1762 35.2793C35.2792 35.4234 37.5134 38.6666 36.5456 44.4581Z" fill="#7772D3"/>
<path d="M27.5746 29.0313C24.2179 29.0313 22.4982 25.9335 22.4776 25.8949C22.4101 25.7704 22.4565 25.6139 22.5815 25.5464C22.7061 25.4785 22.8626 25.5248 22.9305 25.6499C23.0253 25.8249 25.3092 29.913 29.8739 28.0219C30.0052 27.9673 30.156 28.0301 30.2101 28.1613C30.2646 28.2926 30.2018 28.4434 30.0706 28.4975C29.1579 28.8768 28.3246 29.0313 27.5746 29.0313Z" fill="#7772D3"/>
<path d="M22.9402 22.0302C22.9402 22.5357 22.5304 22.9449 22.0255 22.9449C21.5205 22.9449 21.1108 22.5352 21.1108 22.0302C21.1108 21.5248 21.5205 21.1155 22.0255 21.1155C22.531 21.1155 22.9402 21.5253 22.9402 22.0302Z" fill="#7772D3"/>
</svg>
