<svg width="49" height="48" viewBox="0 0 49 48" fill="none" xmlns="http://www.w3.org/2000/svg">
<path d="M48.2 24C48.2 28.7413 46.8256 33.1634 44.4475 36.8906C44.2982 37.1223 44.1489 37.3539 43.9893 37.5804C43.2275 38.6924 42.373 39.7323 41.4362 40.7001C41.1428 41.0039 40.8442 41.2973 40.5354 41.5804C40.3913 41.7143 40.2471 41.843 40.103 41.9665C39.403 42.5946 38.6617 43.1763 37.8845 43.7169C36.7572 44.4994 35.5578 45.1943 34.2967 45.7761C33.993 45.9202 33.6893 46.0541 33.3804 46.1828C32.3201 46.6203 31.2288 46.9858 30.1015 47.269C28.6808 47.6293 27.2086 47.861 25.7004 47.9537C25.5769 47.964 25.4482 47.9691 25.3247 47.9743C24.9541 47.9897 24.5783 48 24.2025 48C24.0172 48 23.8268 48 23.6363 47.9949C20.8206 47.9279 18.1234 47.3822 15.632 46.4247C14.829 46.121 14.0466 45.7709 13.2848 45.3797C12.3274 44.8906 11.406 44.3398 10.5309 43.7272C10.2529 43.5367 9.98012 43.3411 9.7176 43.1351C9.30581 42.8263 8.9043 42.5019 8.51824 42.1673C8.42043 42.0849 8.32263 41.9974 8.22998 41.9099C7.84907 41.5701 7.47845 41.2201 7.11813 40.8597C6.91223 40.6486 6.70633 40.4324 6.50558 40.2111C6.30998 39.9949 6.11438 39.7786 5.92907 39.5573C5.34741 38.8777 4.80179 38.1622 4.29734 37.4157C1.70817 33.5856 0.199951 28.9678 0.199951 24C0.199951 10.7439 10.9478 0 24.2025 0C37.4521 0 48.2 10.7439 48.2 24Z" fill="#FDBA74"/>
<path d="M18.4307 7.37128C18.4307 7.37128 24.6936 1.78003 30.5864 4.88222C36.4792 7.98441 34.8078 15.4536 34.8078 15.4536C34.8078 15.4536 41.9566 16.8843 43.5868 25.7275C45.217 34.5708 36.8601 36.8472 36.8601 36.8472L24.1809 30.4771L18.4307 7.37128Z" fill="black"/>
<path d="M30.328 44.4425L30.1015 47.2687C28.6808 47.6291 27.2086 47.8608 25.7004 47.9534C25.5769 47.9637 25.4482 47.9689 25.3247 47.974C24.954 47.9895 24.5783 47.9998 24.2025 47.9998C24.0172 47.9998 23.8268 47.9998 23.6363 47.9946C20.8206 47.9277 18.1234 47.382 15.632 46.4245C14.829 46.1207 14.0466 45.7707 13.2848 45.3794C12.3273 44.8904 11.406 44.3395 10.5309 43.7269C11.5707 38.0178 13.6966 28.3241 16.435 26.7385C16.6461 26.6149 16.852 26.5377 17.063 26.5171C21.3199 26.0693 25.0776 26.6355 25.0776 26.6355L30.328 44.4425Z" fill="#46467F"/>
<path d="M40.103 41.9664C39.4029 42.5944 38.6617 43.1762 37.8844 43.7167C36.7571 44.4992 35.5578 45.1942 34.2967 45.7759C33.993 45.9201 33.6893 46.0539 33.3804 46.1826C32.32 46.6202 31.2288 46.9857 30.1015 47.2688C28.6808 47.6292 27.2086 47.8609 25.7004 47.9535C25.3144 36.6382 24.3878 26.9754 24.3878 26.9754L17.063 26.5172C18.1234 26.1517 18.8337 25.9458 18.8337 25.9458L23.3583 26.0076C23.3583 26.0076 30.5699 26.9136 35.043 29.4979C35.0636 29.5134 35.0894 29.5237 35.1202 29.5443C35.7894 29.9304 36.3865 30.3525 36.8961 30.821C36.9013 30.8261 36.9116 30.8313 36.9167 30.8416C37.9565 31.8042 39.0786 36.0668 40.103 41.9664Z" fill="#F7734F"/>
<path d="M17.0528 26.5225C16.9241 26.6923 14.8342 29.5701 13.537 43.063C13.4701 43.7477 13.3826 44.5199 13.2848 45.3796C12.3274 44.8905 11.406 44.3397 10.5309 43.7271C10.253 43.5366 9.98016 43.341 9.71764 43.1351C9.30584 42.8262 8.90433 42.5019 8.51827 42.1672C8.42047 42.0849 8.32267 41.9974 8.23002 41.9098C7.8491 41.5701 7.47849 41.22 7.11816 40.8597C7.47334 35.9073 7.81822 32.4169 8.12192 31.7117C8.45136 30.96 9.2801 30.2187 10.3405 29.5392C10.3508 29.5289 10.3611 29.5237 10.3714 29.5186C12.173 28.3654 14.6334 27.377 16.4351 26.7387C16.6564 26.6615 16.8623 26.5894 17.0528 26.5225Z" fill="#F7734F"/>
<path d="M13.7938 18.1042C13.7938 18.1042 11.6864 16.0193 12.0704 12.5866C12.3309 10.2592 13.3151 9.4561 13.3151 9.4561C13.3151 9.4561 11.5784 6.39562 16.2404 6.32869C20.903 6.26177 23.7665 8.39459 23.7665 8.39459C23.7665 8.39459 25.8347 7.23268 26.926 9.65945C28.0167 12.0862 27.2657 15.7974 27.2657 15.7974L13.7938 18.1042Z" fill="black"/>
<path d="M24.2179 21.3726L24.3636 27.5392C24.3636 27.5392 23.4134 28.7247 20.0953 29.0953C17.623 29.3717 16.7999 28.1229 16.7999 28.1229L17.2498 23.1289L23.2167 21.6258L24.2179 21.3726Z" fill="#FCA397"/>
<path d="M24.1989 21.0259C24.1891 21.1813 24.1356 21.3666 24.0502 21.5797C22.8637 24.4587 18.4214 25.7759 16.994 25.9474L17.2499 23.1286L24.1989 21.0259Z" fill="black"/>
<path d="M15.5902 10.2042C15.5902 10.2042 12.8214 17.4247 14.1175 21.3511C15.4137 25.2775 19.0081 24.4858 21.1407 23.6173C23.2733 22.7493 24.2189 21.3738 24.2189 21.3738C24.2189 21.3738 26.2753 21.9679 27.5436 20.0224C28.812 18.0775 27.8792 15.9529 26.7 15.5102C25.5212 15.0675 24.1844 15.9653 24.1844 15.9653L25.1681 13.8587C25.1681 13.8587 20.1555 3.61059 15.5902 10.2042Z" fill="#FCA397"/>
<path d="M24.1845 15.9657C24.1845 15.9657 21.1763 16.7482 18.8754 13.4793C16.5745 10.2103 16.6914 8.80899 16.6914 8.80899L14.7791 12.4213C14.7791 12.4213 14.1743 10.0234 15.0581 8.42494C15.9419 6.82597 16.9657 7.09058 16.9657 7.09058L23.7665 8.3956L25.8307 13.6754L24.1845 15.9657Z" fill="black"/>
<path d="M24.6473 19.3002C24.5886 19.3002 24.5294 19.2801 24.481 19.2389C24.3724 19.1468 24.3595 18.9841 24.4511 18.876L26.2661 16.7383C26.3588 16.6307 26.5204 16.6173 26.6285 16.7084C26.7371 16.8006 26.75 16.9632 26.6584 17.0713L24.8434 19.209C24.7929 19.2693 24.7204 19.3002 24.6473 19.3002Z" fill="black"/>
<path d="M26.6543 18.6482C26.6285 18.6472 25.2886 18.5154 25.2886 18.5154C25.1476 18.5015 25.0436 18.3759 25.0575 18.2344C25.0714 18.0928 25.1991 17.9924 25.3391 18.0032L26.679 18.135C26.82 18.1489 26.924 18.2745 26.9101 18.4161C26.8972 18.5489 26.785 18.6482 26.6543 18.6482Z" fill="black"/>
<path d="M43.9893 37.5804C43.2275 38.6924 42.373 39.7323 41.4361 40.7001C41.1427 41.0038 40.8442 41.2973 40.5353 41.5804C40.3912 41.7143 40.2471 41.843 40.103 41.9665C39.4029 42.5946 38.6617 43.1763 37.8844 43.7168C36.7571 44.4993 35.5578 45.1943 34.2966 45.776L35.043 29.498C35.0636 29.5135 35.0893 29.5238 35.1202 29.5444C35.3313 29.6885 35.9798 30.121 36.8961 30.8211C36.9012 30.8262 36.9115 30.8314 36.9167 30.8417C38.6617 32.175 41.3744 34.471 43.9893 37.5804Z" fill="#F7734F"/>
<path d="M19.4365 29.5556C17.2977 29.5556 16.5297 28.2631 16.4958 28.2039C16.4247 28.0804 16.4675 27.9234 16.591 27.8523C16.714 27.7818 16.871 27.8235 16.9426 27.9476C16.9724 27.9985 17.7286 29.2215 19.9157 29.0177C22.0143 28.8247 24.1969 27.3422 24.2185 27.3273C24.3374 27.246 24.4965 27.2768 24.5762 27.3937C24.6565 27.511 24.6272 27.6706 24.5098 27.7514C24.4162 27.8153 22.1971 29.3245 19.9626 29.5299C19.7783 29.5479 19.6033 29.5556 19.4365 29.5556Z" fill="#FFBF69"/>
<path d="M9.71821 43.1349C9.30637 42.8261 8.90482 42.5017 8.51872 42.1671C8.42091 42.0847 8.32309 41.9972 8.23043 41.9097C7.84948 41.5699 7.47882 41.2199 7.11846 40.8595C6.91254 40.6485 6.70662 40.4322 6.50585 40.2109C6.31022 39.9947 6.1146 39.7784 5.92927 39.5571C5.34755 38.8775 4.80187 38.162 4.29736 37.4155C5.4814 34.4863 7.4222 31.0474 10.3411 29.5391C10.3514 29.5288 10.3617 29.5236 10.372 29.5185C10.3874 29.5133 10.3977 29.503 10.4132 29.4979C12.9872 28.1954 11.1442 37.2611 9.71821 43.1349Z" fill="#F7734F"/>
<path d="M18.6484 20.441C18.563 20.441 18.4791 20.3988 18.4302 20.3211C18.354 20.2007 18.3906 20.0416 18.5105 19.9664C18.9403 19.6952 19.3979 19.2618 19.3933 19.0487C19.3902 18.9066 19.5034 18.7892 19.645 18.7861C19.7902 18.7861 19.905 18.8978 19.908 19.0384C19.9209 19.6555 18.9743 20.2825 18.7849 20.4019C18.7427 20.4282 18.6953 20.441 18.6484 20.441Z" fill="black"/>
</svg>
