<svg width="48" height="48" viewBox="0 0 48 48" fill="none" xmlns="http://www.w3.org/2000/svg">
<path d="M48 24.0026C48 27.0962 47.4132 30.056 46.3476 32.7738C45.8792 33.9732 45.313 35.1262 44.6541 36.2226C44.16 37.0617 43.6092 37.8647 43.0121 38.6368C42.7702 38.9559 42.5179 39.2648 42.2503 39.5685C40.7678 41.3186 39.0331 42.8525 37.1028 44.1085C36.5881 44.4431 36.063 44.7622 35.5225 45.0556C33.6592 46.08 31.6465 46.8624 29.5258 47.3566C27.7499 47.7786 25.902 48 23.9974 48C23.5908 48 23.1893 47.9897 22.7929 47.9691C19.8949 47.825 17.1359 47.1712 14.6085 46.0851C14.5416 46.0594 14.4798 46.0337 14.4129 46.0028C13.929 45.7969 13.4554 45.5704 12.987 45.3285C12.2046 44.927 11.4479 44.4791 10.7221 43.9953C10.6243 43.9283 10.5265 43.8614 10.4287 43.7894C9.55364 43.1974 8.71977 42.5437 7.93736 41.8282C7.90648 41.8025 7.88073 41.7819 7.86529 41.7613C7.80352 41.7098 7.74176 41.6532 7.67999 41.5914C7.13951 41.0973 6.62476 40.5722 6.13575 40.0266C6.11516 40.0008 6.08942 39.9751 6.06883 39.9494C5.70851 39.5427 5.35847 39.1258 5.02389 38.6985C1.87879 34.6424 0 29.5412 0 24.0026C0 10.7479 10.7479 0 23.9974 0C37.2521 0 48 10.7479 48 24.0026Z" fill="#EDDDD6"/>
<path d="M29.5258 47.3566C27.7499 47.7787 25.902 48 23.9974 48C23.5908 48 23.1892 47.9897 22.7929 47.9691C19.2669 47.7941 15.9468 46.8624 12.987 45.3285L15.9622 29.4795L22.0362 26.6278L29.0728 27.5852L29.5258 47.3566Z" fill="#7772D3"/>
<path d="M18.608 26.4013L14.4128 46.0028C13.929 45.7969 13.4554 45.5704 12.987 45.3285C12.2046 44.927 11.4479 44.4792 10.7221 43.9953C10.6243 43.9284 10.5265 43.8615 10.4287 43.7894C9.55362 43.1974 8.71975 42.5437 7.93734 41.8282C7.90646 41.8025 7.88071 41.7819 7.86527 41.7613C7.8035 41.7098 7.74174 41.6532 7.67997 41.5914C7.13949 41.0973 6.62474 40.5722 6.13573 40.0266C6.11514 40.0009 6.0894 39.9751 6.06881 39.9494C5.70849 39.5428 5.35845 39.1258 5.02386 38.6986C7.22697 34.3078 11.6075 30.7303 13.0385 29.4846C16.0034 26.9058 18.608 26.4013 18.608 26.4013Z" fill="#7772D3"/>
<path d="M17.5178 10.6671C17.5178 10.6671 17.6114 6.2624 24.1708 5.66015C30.7302 5.05841 32.9529 11.0943 32.6024 11.7372C32.2518 12.3801 31.7 12.6159 31.7 12.6159C31.7 12.6159 31.8586 17.0185 29.1922 17.8133C26.5258 18.6086 23.5434 16.9012 23.5434 16.9012L17.5178 10.6671Z" fill="#7772D3"/>
<path d="M25.3929 21.537L25.3898 26.948C25.3898 26.948 24.4128 28.503 21.2471 28.7583C18.8886 28.9483 18.0609 28.415 18.0609 28.415L18.3913 25.6745L18.7172 23.0019L24.4339 21.748L25.3929 21.537Z" fill="#7772D3"/>
<path d="M24.4339 21.7485C24.42 21.8963 24.3639 22.0708 24.2764 22.2705C23.0636 24.9729 19.7533 25.5535 18.3913 25.6745L18.7171 23.0019L24.4339 21.7485Z" fill="#7772D3"/>
<path d="M17.5178 10.6671C17.5178 10.6671 14.6738 17.4499 15.7908 21.2199C16.9078 24.9899 20.3483 24.3429 22.4016 23.5805C24.4545 22.8177 25.3939 21.538 25.3939 21.538C25.3939 21.538 27.3314 22.1629 28.594 20.351C29.8567 18.5391 29.0321 16.492 27.9244 16.0369C26.8166 15.5814 25.5195 16.3957 25.5195 16.3957L26.5165 14.4222C26.5165 14.4222 22.0516 4.53341 17.5178 10.6671Z" fill="#7772D3"/>
<path d="M25.8695 19.5927C25.8077 19.5927 25.7465 19.5706 25.6971 19.5263C25.5915 19.4306 25.5833 19.2685 25.6785 19.1629L27.4668 17.1837C27.562 17.0782 27.7252 17.0705 27.8302 17.1652C27.9357 17.2609 27.9439 17.4231 27.8487 17.5286L26.0605 19.5078C26.01 19.5639 25.94 19.5927 25.8695 19.5927Z" fill="#7772D3"/>
<path d="M27.7967 19.0312C27.7859 19.0312 27.7746 19.0307 27.7632 19.0292L26.4928 18.865C26.3523 18.8464 26.2525 18.7177 26.2705 18.5767C26.289 18.4362 26.4146 18.3337 26.5593 18.3543L27.8297 18.5185C27.9702 18.5371 28.07 18.6657 28.052 18.8073C28.034 18.9365 27.9238 19.0312 27.7967 19.0312Z" fill="#7772D3"/>
<path d="M23.9047 28.0125C23.8533 27.8786 23.704 27.8066 23.5701 27.8581C20.7854 28.9133 18.1602 28.1772 18.1344 28.1669C18.0624 28.1463 17.9903 28.1566 17.9285 28.1926C17.8667 28.2338 17.8256 28.2904 17.8101 28.3625L14.1246 45.8741C14.2172 45.9205 14.315 45.9617 14.4128 46.0028C14.4797 46.0337 14.5415 46.0594 14.6084 46.0852L18.258 28.728C19.0249 28.8979 21.3001 29.2633 23.7503 28.3419C23.8841 28.2905 23.9511 28.1412 23.9047 28.0125Z" fill="#7772D3"/>
<path d="M26.62 16.8791C26.62 16.8791 24.4781 16.4863 23.7971 14.973C22.7815 12.7158 24.1348 11.7527 24.1348 11.7527C24.1348 11.7527 22.5803 12.1007 21.3017 11.4284C19.7193 10.5966 19.4553 9.33495 19.4553 9.33495L17.5173 10.6671C17.5173 10.6671 16.9438 7.80924 18.7305 7.28214C20.5172 6.75556 22.6071 8.39451 22.6071 8.39451L29.1567 13.3742L28.5416 16.4909C28.5416 16.4909 28.175 16.3499 26.62 16.8791Z" fill="#7772D3"/>
<path d="M20.0925 21.344C20.0194 21.344 19.9463 21.3368 19.8727 21.3218C19.2355 21.1937 18.8324 20.5368 18.8159 20.5085C18.7789 20.4478 18.7691 20.3737 18.7887 20.3052C18.8077 20.2362 18.8551 20.1791 18.9189 20.1461L21.2728 18.9411C21.3449 18.9051 21.4303 18.9041 21.5019 18.9386C21.575 18.9736 21.6265 19.041 21.6419 19.1203C21.6517 19.1692 21.8673 20.3212 20.8214 21.0845C20.5867 21.2575 20.3417 21.344 20.0925 21.344ZM19.428 20.4643C19.5572 20.6063 19.7497 20.7731 19.9757 20.8179C20.1548 20.8534 20.3324 20.8061 20.5187 20.6702C20.982 20.3315 21.1153 19.8919 21.1457 19.5851L19.428 20.4643Z" fill="#7772D3"/>
<path d="M20.0946 7.37994C20.0946 7.37994 22.9823 7.71041 24.7397 11.5581C26.1763 14.7027 26.62 16.879 26.62 16.879L29.1917 17.8138L29.9587 11.6461L24.0628 6.96815C24.0628 6.96815 21.6327 6.1497 20.0946 7.37994Z" fill="#7772D3"/>
<path d="M44.6541 36.2226C44.1599 37.0617 43.6092 37.8647 43.0121 38.6368C42.7701 38.9559 42.5179 39.2648 42.2502 39.5685C40.7677 41.3186 39.0331 42.8525 37.1028 44.1085C36.588 44.4431 36.063 44.7622 35.5225 45.0556C32.0994 46.9345 28.1771 48 23.9974 48C23.5907 48 23.1892 47.9897 22.7929 47.9691C22.1185 38.9199 22.1082 28.1257 25.3923 24.96C27.2557 23.1635 37.5918 27.3381 44.6541 36.2226Z" fill="#7772D3"/>
<path d="M26.8372 17.0643C26.7106 17.0643 26.6 16.9701 26.583 16.8409C26.5639 16.7004 26.6627 16.5707 26.8038 16.5516C26.8197 16.5491 28.4371 16.3185 29.6205 15.1031C30.7534 13.9393 31.2857 12.8372 31.2913 12.8259C31.3526 12.6972 31.5065 12.6432 31.6342 12.7044C31.7629 12.7657 31.8169 12.9191 31.7556 13.0473C31.733 13.0956 31.1812 14.2384 29.989 15.4619C28.6774 16.8085 26.9448 17.052 26.8712 17.0618C26.8599 17.0638 26.8491 17.0643 26.8372 17.0643Z" fill="#7772D3"/>
<path d="M26.0739 14.5755C25.9648 14.5755 25.8639 14.5055 25.8284 14.3964C25.7852 14.261 25.8603 14.1164 25.9952 14.0726C26.0193 14.0649 28.4443 13.284 29.689 12.4553C31.0242 11.5674 32.2833 11.503 32.3363 11.501C32.4655 11.4984 32.5978 11.6049 32.6045 11.7465C32.6112 11.888 32.501 12.0085 32.3589 12.0152C32.3476 12.0162 31.1838 12.0795 29.9741 12.8841C28.6692 13.753 26.2536 14.5307 26.1516 14.5637C26.1259 14.5714 26.1002 14.5755 26.0739 14.5755Z" fill="#7772D3"/>
<path d="M24.9142 11.6842C24.8395 11.6842 24.7659 11.6518 24.7149 11.5895C24.6249 11.4794 24.6408 11.3178 24.751 11.2277C24.8725 11.1283 27.7792 8.79601 31.8313 9.48989C31.9713 9.51408 32.0655 9.6474 32.0418 9.78689C32.0176 9.92742 31.8807 10.0206 31.7448 9.99744C27.9182 9.34114 25.1051 11.6024 25.0768 11.6256C25.0289 11.6652 24.9713 11.6842 24.9142 11.6842Z" fill="#7772D3"/>
<path d="M22.6081 8.65293C22.5262 8.65293 22.4459 8.61432 22.396 8.54174C22.3152 8.42489 22.344 8.26532 22.4608 8.18399C22.5869 8.097 25.5946 6.05449 29.8902 7.10302C30.0281 7.13648 30.1131 7.27597 30.0791 7.41341C30.0456 7.55188 29.9046 7.63681 29.7682 7.60232C25.7053 6.61453 22.7836 8.58651 22.7537 8.60659C22.71 8.63747 22.6585 8.65293 22.6081 8.65293Z" fill="#7772D3"/>
</svg>
