<svg width="48" height="48" viewBox="0 0 48 48" fill="none" xmlns="http://www.w3.org/2000/svg">
<path d="M48 24C48 28.7413 46.6256 33.1634 44.2475 36.8906C44.0982 37.1223 43.9489 37.3539 43.7894 37.5804C43.0276 38.6924 42.1731 39.7323 41.2362 40.7001C40.9428 41.0039 40.6443 41.2973 40.3354 41.5804C40.1913 41.7143 40.0472 41.843 39.9031 41.9665C39.203 42.5946 38.4618 43.1763 37.6845 43.7169C36.5572 44.4994 35.3579 45.1943 34.0967 45.7761C33.793 45.9202 33.4893 46.0541 33.1805 46.1828C32.1201 46.6203 31.0288 46.9858 29.9015 47.269C28.4808 47.6293 27.0087 47.861 25.5005 47.9537C25.3769 47.964 25.2482 47.9691 25.1247 47.9743C24.7541 47.9897 24.3783 48 24.0026 48C23.8173 48 23.6268 48 23.4363 47.9949C20.6207 47.9279 17.9234 47.3822 15.4321 46.4247C14.6291 46.121 13.8466 45.7709 13.0848 45.3797C12.1274 44.8906 11.206 44.3398 10.3309 43.7272C10.053 43.5367 9.78016 43.3411 9.51764 43.1351C9.10585 42.8263 8.70434 42.5019 8.31828 42.1673C8.22048 42.0849 8.12268 41.9974 8.03002 41.9099C7.64911 41.5701 7.27849 41.2201 6.91817 40.8597C6.71227 40.6486 6.50637 40.4324 6.30562 40.2111C6.11002 39.9949 5.91442 39.7786 5.72911 39.5573C5.14745 38.8777 4.60183 38.1622 4.09738 37.4157C1.50821 33.5856 -7.62939e-06 28.9678 -7.62939e-06 24C-7.62939e-06 10.7439 10.7479 0 24.0026 0C37.2521 0 48 10.7439 48 24Z" fill="#EDDDD6"/>
<path d="M18.2307 7.37146C18.2307 7.37146 24.4936 1.78021 30.3864 4.8824C36.2792 7.98459 34.6078 15.4538 34.6078 15.4538C34.6078 15.4538 41.7566 16.8845 43.3868 25.7277C45.017 34.5709 36.6601 36.8474 36.6601 36.8474L23.9809 30.4773L18.2307 7.37146Z" fill="#7772D3"/>
<path d="M30.128 44.4427L29.9015 47.269C28.4808 47.6293 27.0087 47.861 25.5005 47.9537C25.3769 47.964 25.2482 47.9691 25.1247 47.9743C24.7541 47.9897 24.3783 48 24.0026 48C23.8172 48 23.6268 48 23.4363 47.9948C20.6207 47.9279 17.9234 47.3822 15.432 46.4247C14.629 46.121 13.8466 45.7709 13.0848 45.3797C12.1274 44.8906 11.206 44.3398 10.3309 43.7272C11.3707 38.018 13.4966 28.3243 16.235 26.7387C16.4461 26.6152 16.652 26.538 16.863 26.5174C21.12 26.0695 24.8776 26.6358 24.8776 26.6358L30.128 44.4427Z" fill="#7772D3"/>
<path d="M39.903 41.9665C39.203 42.5946 38.4617 43.1763 37.6845 43.7168C36.5572 44.4993 35.3578 45.1943 34.0967 45.776C33.793 45.9202 33.4893 46.054 33.1805 46.1827C32.1201 46.6203 31.0288 46.9858 29.9015 47.269C28.4808 47.6293 27.0087 47.861 25.5004 47.9536C25.1144 36.6383 24.1879 26.9755 24.1879 26.9755L16.863 26.5174C17.9234 26.1518 18.6337 25.9459 18.6337 25.9459L23.1584 26.0077C23.1584 26.0077 30.3699 26.9137 34.8431 29.498C34.8637 29.5135 34.8894 29.5238 34.9203 29.5444C35.5894 29.9305 36.1866 30.3526 36.6962 30.8211C36.7013 30.8262 36.7116 30.8314 36.7168 30.8417C37.7565 31.8043 38.8787 36.0669 39.903 41.9665Z" fill="#7772D3"/>
<path d="M16.8528 26.5225C16.7241 26.6923 14.6342 29.5701 13.3371 43.063C13.2702 43.7477 13.1827 44.5199 13.0849 45.3796C12.1274 44.8905 11.206 44.3397 10.331 43.7271C10.053 43.5366 9.78019 43.341 9.51767 43.1351C9.10587 42.8262 8.70436 42.5019 8.31831 42.1672C8.2205 42.0849 8.1227 41.9974 8.03005 41.9098C7.64914 41.5701 7.27852 41.22 6.9182 40.8597C7.27337 35.9073 7.61826 32.4169 7.92196 31.7117C8.25139 30.96 9.08013 30.2187 10.1405 29.5392C10.1508 29.5289 10.1611 29.5237 10.1714 29.5186C11.973 28.3654 14.4335 27.377 16.2351 26.7387C16.4564 26.6615 16.6623 26.5894 16.8528 26.5225Z" fill="#7772D3"/>
<path d="M13.5938 18.1045C13.5938 18.1045 11.4865 16.0195 11.8705 12.5869C12.1309 10.2594 13.1151 9.45635 13.1151 9.45635C13.1151 9.45635 11.3784 6.39586 16.0404 6.32894C20.703 6.26201 23.5665 8.39483 23.5665 8.39483C23.5665 8.39483 25.6348 7.23293 26.726 9.65969C27.8168 12.0865 27.0658 15.7977 27.0658 15.7977L13.5938 18.1045Z" fill="#7772D3"/>
<path d="M24.0179 21.3724L24.1636 27.5391C24.1636 27.5391 23.2134 28.7245 19.8953 29.0952C17.423 29.3716 16.6 28.1228 16.6 28.1228L17.0498 23.1287L23.0168 21.6257L24.0179 21.3724Z" fill="#7772D3"/>
<path d="M23.9989 21.026C23.9892 21.1815 23.9356 21.3668 23.8502 21.5799C22.6637 24.4588 18.2214 25.7761 16.7941 25.9475L17.0499 23.1287L23.9989 21.026Z" fill="#7772D3"/>
<path d="M15.3902 10.2044C15.3902 10.2044 12.6214 17.425 13.9176 21.3514C15.2137 25.2778 18.8081 24.486 20.9407 23.6175C23.0733 22.7496 24.0189 21.374 24.0189 21.374C24.0189 21.374 26.0753 21.9681 27.3437 20.0227C28.612 18.0778 27.6793 15.9532 26.5 15.5104C25.3212 15.0677 23.9844 15.9655 23.9844 15.9655L24.9681 13.859C24.9681 13.859 19.9555 3.61083 15.3902 10.2044Z" fill="#7772D3"/>
<path d="M23.9845 15.9655C23.9845 15.9655 20.9764 16.748 18.6755 13.479C16.3745 10.21 16.4914 8.80874 16.4914 8.80874L14.5791 12.4211C14.5791 12.4211 13.9743 10.0232 14.8581 8.4247C15.7419 6.82573 16.7658 7.09034 16.7658 7.09034L23.5666 8.39536L25.6307 13.6752L23.9845 15.9655Z" fill="#7772D3"/>
<path d="M24.4473 19.3001C24.3886 19.3001 24.3294 19.28 24.281 19.2388C24.1724 19.1467 24.1596 18.984 24.2512 18.8759L26.0662 16.7382C26.1588 16.6306 26.3205 16.6172 26.4286 16.7084C26.5372 16.8005 26.55 16.9632 26.4584 17.0712L24.6434 19.209C24.593 19.2692 24.5204 19.3001 24.4473 19.3001Z" fill="#7772D3"/>
<path d="M26.4543 18.6481C26.4286 18.6471 25.0887 18.5153 25.0887 18.5153C24.9476 18.5014 24.8437 18.3758 24.8576 18.2342C24.8715 18.0927 24.9991 17.9923 25.1391 18.0031L26.479 18.1349C26.62 18.1488 26.724 18.2744 26.7101 18.4159C26.6973 18.5487 26.585 18.6481 26.4543 18.6481Z" fill="#7772D3"/>
<path d="M43.7893 37.5804C43.0275 38.6924 42.173 39.7323 41.2362 40.7001C40.9428 41.0038 40.6442 41.2973 40.3354 41.5804C40.1912 41.7143 40.0471 41.843 39.903 41.9665C39.2029 42.5946 38.4617 43.1763 37.6844 43.7168C36.5571 44.4993 35.3578 45.1943 34.0967 45.776L34.843 29.498C34.8636 29.5135 34.8894 29.5238 34.9202 29.5444C35.1313 29.6885 35.7799 30.121 36.6961 30.8211C36.7013 30.8262 36.7116 30.8314 36.7167 30.8417C38.4617 32.175 41.1744 34.471 43.7893 37.5804Z" fill="#7772D3"/>
<path d="M19.2365 29.5555C17.0978 29.5555 16.3298 28.263 16.2958 28.2038C16.2248 28.0802 16.2675 27.9232 16.391 27.8522C16.5141 27.7817 16.671 27.8234 16.7426 27.9474C16.7724 27.9984 17.5286 29.2214 19.7158 29.0176C21.8144 28.8246 23.9969 27.3421 24.0185 27.3272C24.1374 27.2458 24.2965 27.2767 24.3763 27.3936C24.4566 27.5109 24.4272 27.6705 24.3099 27.7513C24.2162 27.8151 21.9971 29.3244 19.7626 29.5298C19.5783 29.5478 19.4033 29.5555 19.2365 29.5555Z" fill="#7772D3"/>
<path d="M9.51824 43.1352C9.1064 42.8263 8.70484 42.502 8.31874 42.1674C8.22093 42.085 8.12312 41.9975 8.03046 41.91C7.6495 41.5702 7.27885 41.2201 6.91849 40.8598C6.71257 40.6487 6.50664 40.4325 6.30587 40.2111C6.11025 39.9949 5.91463 39.7787 5.7293 39.5573C5.14757 38.8778 4.60189 38.1622 4.09739 37.4158C5.28143 34.4865 7.22222 31.0477 10.1411 29.5393C10.1514 29.529 10.1617 29.5239 10.172 29.5187C10.1875 29.5136 10.1978 29.5033 10.2132 29.4981C12.7872 28.1957 10.9442 37.2613 9.51824 43.1352Z" fill="#7772D3"/>
<path d="M18.4485 20.441C18.363 20.441 18.2791 20.3988 18.2302 20.321C18.1541 20.2006 18.1906 20.0415 18.3105 19.9664C18.7404 19.6951 19.198 19.2617 19.1933 19.0486C19.1902 18.9065 19.3035 18.7892 19.445 18.7861C19.5902 18.7861 19.705 18.8978 19.7081 19.0383C19.7209 19.6555 18.7743 20.2824 18.5849 20.4019C18.5427 20.4281 18.4953 20.441 18.4485 20.441Z" fill="#7772D3"/>
</svg>
