<svg width="49" height="48" viewBox="0 0 49 48" fill="none" xmlns="http://www.w3.org/2000/svg">
<path d="M48.8 24C48.8 26.5071 48.4191 28.9266 47.7035 31.1969C46.6121 34.6667 44.7589 37.7966 42.3341 40.3861C42.2827 40.4479 42.2312 40.5045 42.1746 40.5611L42.1128 40.6229C42.0613 40.6795 42.0047 40.7362 41.9532 40.7876C40.5118 42.26 38.8798 43.5521 37.0935 44.6126C33.5002 46.7645 29.2943 48 24.8 48C23.8837 48 22.9725 47.9485 22.0819 47.8507C21.9583 47.8404 21.8399 47.825 21.7215 47.8095C21.7112 47.8044 21.7061 47.8044 21.6958 47.8044C20.5581 47.6551 19.4461 47.4286 18.365 47.1248C17.0935 46.7748 15.8631 46.3166 14.6894 45.7709C14.5092 45.6885 14.329 45.601 14.1488 45.5135C12.9905 44.9421 11.8889 44.278 10.8541 43.5315C9.81421 42.7902 8.83608 41.9665 7.93003 41.0656C6.95706 40.1081 6.06646 39.0579 5.27366 37.9459C5.07804 37.6679 4.88242 37.39 4.69709 37.1017C4.23377 36.4015 3.81163 35.6757 3.43068 34.9292C1.74728 31.6499 0.800049 27.9382 0.800049 24C0.800049 10.7439 11.5439 0 24.8 0C38.0562 0 48.8 10.7439 48.8 24Z" fill="#FDBA74"/>
<path d="M19.9012 14.4737C19.9012 14.4737 12.1503 17.4379 11.755 26.2101C11.1836 38.8897 26.3789 35.9502 26.3789 35.9502C26.3789 35.9502 34.9853 36.8428 37.3658 30.4984C39.7467 24.154 32.0942 20.3239 32.0942 20.3239C32.0942 20.3239 22.8165 12.154 19.9012 14.4737Z" fill="black"/>
<path d="M42.1127 40.6228C42.0612 40.6794 42.0046 40.7361 41.9531 40.7875C40.5786 42.1878 39.0342 43.4285 37.3456 44.4581C37.2633 44.5096 37.1757 44.561 37.0934 44.6125C36.9853 44.6794 36.872 44.7464 36.7588 44.8081C33.2427 46.8416 29.1552 47.9999 24.7999 47.9999C23.8836 47.9999 22.9724 47.9484 22.0818 47.8506C21.9582 47.8403 21.8398 47.8249 21.7214 47.8094C21.7111 47.8043 21.706 47.8043 21.6957 47.8043C20.558 47.655 19.446 47.4285 18.3649 47.1247C17.0934 46.7747 15.863 46.3165 14.6893 45.7708C14.5091 45.6884 14.3289 45.6009 14.1487 45.5134C12.9904 44.942 11.8887 44.2779 10.854 43.5314C9.8141 42.7901 8.83598 41.9664 7.92993 41.0655C9.66996 36.2522 14.123 27.2792 23.4615 25.8171C23.4821 25.8171 23.5026 25.812 23.5232 25.8069C24.1461 25.7142 24.7948 25.6524 25.464 25.6267C35.9969 25.2406 40.4602 35.1608 42.1127 40.6228Z" fill="#7C6053"/>
<path d="M37.0934 44.6127C33.5001 46.7645 29.2942 48.0001 24.8 48.0001C23.8837 48.0001 22.9725 47.9486 22.0819 47.8508C21.9583 47.8405 21.8399 47.825 21.7215 47.8096C21.7112 47.8044 21.7061 47.8044 21.6958 47.8044C20.558 47.6551 19.4461 47.4286 18.365 47.1249C17.0934 46.7748 15.8631 46.3167 14.6893 45.771C14.5091 45.6886 14.329 45.6011 14.1488 45.5136C12.9905 44.9422 11.8888 44.2781 10.8541 43.5316C10.8077 39.9949 10.782 37.2047 10.782 37.2047L19.9248 30.4196L24.4139 27.0889C24.4705 27.0889 24.5272 27.0889 24.5838 27.094C27.0548 27.1455 29.1398 27.65 30.782 28.2575C31.0445 28.3604 31.2968 28.4582 31.5387 28.5612C33.8193 29.529 35.0548 30.6153 35.0548 30.6153C35.0548 30.6153 36.1256 37.7092 37.0934 44.6127Z" fill="#7C6053"/>
<path d="M23.3947 22.2744L23.5856 27.3838C23.5856 27.3838 24.5616 28.8178 27.56 28.9496C29.7935 29.0474 30.5568 28.5147 30.5568 28.5147L30.1497 25.9389L29.7492 23.4269L24.3078 22.4412L23.3947 22.2744Z" fill="#FCA397"/>
<path d="M23.3947 22.0303C23.4127 22.1693 23.4719 22.3319 23.5614 22.5177C24.7999 25.0271 28.8587 25.8708 30.1491 25.9382L29.7487 23.4263L23.3947 22.0303Z" fill="black"/>
<path d="M30.4539 11.7369C30.4539 11.7369 33.3749 18.0432 32.4508 21.6422C31.5268 25.2412 28.2552 24.7496 26.2902 24.1004C24.3252 23.4512 23.394 22.2754 23.394 22.2754C23.394 22.2754 21.586 22.9328 20.3309 21.2654C19.0758 19.5985 19.7831 17.6366 20.8138 17.1681C21.8439 16.6996 23.0974 17.4234 23.0974 17.4234L22.0879 15.5943C22.0869 15.5949 25.9597 6.10245 30.4539 11.7369Z" fill="#FCA397"/>
<path d="M28.4271 21.6747C28.3298 21.6747 28.2284 21.6618 28.1234 21.632C27.3091 21.3993 27.2175 20.4671 27.2139 20.4275C27.2066 20.3441 27.2401 20.2628 27.3039 20.2087C27.3672 20.1547 27.4537 20.1346 27.5351 20.1557L29.4257 20.6457C29.5091 20.6674 29.576 20.7291 29.6043 20.8105C29.6326 20.8918 29.6182 20.9819 29.5662 21.0503C29.5436 21.0792 29.0824 21.6747 28.4271 21.6747ZM27.8429 20.7672C27.9211 20.9211 28.0513 21.0761 28.2645 21.1368C28.4786 21.1981 28.6788 21.1244 28.8358 21.0246L27.8429 20.7672Z" fill="black"/>
<path d="M23.1049 20.0685C23.0694 20.0685 23.0334 20.0613 22.9989 20.0454L20.4319 18.8784C20.3027 18.8197 20.2455 18.6669 20.3042 18.5377C20.3629 18.4085 20.5147 18.3508 20.645 18.41L23.212 19.5769C23.3412 19.6356 23.3983 19.7885 23.3396 19.9177C23.2964 20.0124 23.2032 20.0685 23.1049 20.0685Z" fill="black"/>
<path d="M20.8179 20.6614C20.7515 20.6614 20.6851 20.6362 20.6352 20.5852C20.5353 20.4844 20.5363 20.3212 20.6372 20.2213L21.7686 19.1028C21.87 19.0024 22.0327 19.0039 22.1326 19.1048C22.2324 19.2057 22.2314 19.3689 22.1305 19.4688L20.9991 20.5873C20.9486 20.6372 20.8833 20.6614 20.8179 20.6614Z" fill="black"/>
<path d="M26.7465 12.1086C26.7465 12.1086 28.2085 11.8868 29.7339 12.8088C31.2592 13.7308 31.5727 14.6291 31.5727 14.6291C31.5727 14.6291 32.5164 12.2481 30.4479 10.1478C28.38 8.04738 24.4119 7.46462 22.1246 9.95008C19.8374 12.4355 19.9774 14.6291 19.9774 14.6291L23.0966 17.4239C23.0966 17.4239 27.9135 16.4968 26.7465 12.1086Z" fill="black"/>
<path d="M21.5677 11.0165C21.5677 11.0165 18.6255 5.4284 15.6425 7.79005C12.6601 10.1512 15.9812 14.9177 18.9436 15.2657C21.9065 15.6126 21.5677 11.0165 21.5677 11.0165Z" fill="black"/>
<path d="M22.0817 47.8508C21.9582 47.8405 21.8398 47.825 21.7214 47.8096C21.7111 47.8045 21.7059 47.8045 21.6956 47.8045C20.5579 47.6552 19.4459 47.4286 18.3649 47.1249L19.9247 30.4196L19.9762 29.8894L23.4614 25.8173L23.5026 25.771C23.5026 25.771 23.5077 25.7813 23.5232 25.807C23.6107 25.946 23.971 26.502 24.5837 27.094C25.7574 28.2317 27.8681 29.5136 30.7716 28.2626C31.2503 28.0567 31.4871 28.1803 31.5386 28.5612C31.8063 30.6616 26.2568 40.6745 22.0817 47.8508Z" fill="#7C6053"/>
<path d="M37.3456 44.4579C37.2632 44.5094 37.1757 44.5609 37.0933 44.6123C36.9852 44.6793 36.872 44.7462 36.7587 44.808C37.8758 38.9753 35.5901 35.6342 35.5644 35.5982C35.482 35.4798 35.5026 35.3099 35.6159 35.2224C35.7343 35.1349 35.8939 35.1606 35.9762 35.279C36.0792 35.4232 38.3134 38.6664 37.3456 44.4579Z" fill="#FCB35B"/>
<path d="M28.3747 29.0313C25.018 29.0313 23.2983 25.9335 23.2777 25.8949C23.2102 25.7704 23.2566 25.6139 23.3816 25.5464C23.5062 25.4785 23.6627 25.5248 23.7306 25.6499C23.8253 25.8249 26.1093 29.913 30.674 28.0219C30.8053 27.9673 30.9561 28.0301 31.0102 28.1613C31.0647 28.2926 31.0019 28.4434 30.8707 28.4975C29.958 28.8768 29.1247 29.0313 28.3747 29.0313Z" fill="#FCB35B"/>
<path d="M23.7402 22.0304C23.7402 22.5359 23.3304 22.9451 22.8255 22.9451C22.3205 22.9451 21.9108 22.5354 21.9108 22.0304C21.9108 21.5249 22.3205 21.1157 22.8255 21.1157C23.3309 21.1157 23.7402 21.5255 23.7402 22.0304Z" fill="#7772D3"/>
</svg>
