<svg width="48" height="48" viewBox="0 0 48 48" fill="none" xmlns="http://www.w3.org/2000/svg">
<path d="M48 24.0026C48 27.647 47.1867 31.0958 45.7351 34.1894C45.1843 35.3681 44.5357 36.4954 43.7997 37.561C43.0842 38.611 42.2863 39.5942 41.4112 40.5156C39.0125 43.0481 36.063 45.0556 32.7584 46.3477C32.6451 46.394 32.537 46.4352 32.4289 46.4763C29.8037 47.4647 26.9675 48 24.0026 48C23.6268 48 23.251 47.9897 22.8804 47.9743C18.4279 47.7684 14.2893 46.3528 10.7942 44.0416C10.2434 43.6813 9.71324 43.3004 9.19849 42.8937C7.24761 41.3649 5.53865 39.5376 4.13854 37.4786C4.1128 37.4426 4.08707 37.4065 4.06133 37.3654C1.4979 33.5511 0 28.9544 0 24.0026C0 10.7479 10.7479 0 24.0026 0C37.2521 0 48 10.7479 48 24.0026Z" fill="#EDDDD6"/>
<path d="M19.843 11.7151C19.843 11.7151 23.1672 4.9915 28.7856 8.23182C34.4041 11.4721 29.6988 18.0295 38.19 19.7606C42.6112 20.6619 45.3743 24.3161 44.2367 28.6044C43.1311 32.7718 38.2034 32.9741 38.2034 32.9741C38.2034 32.9741 32.8228 40.6968 26.6793 38.4191C20.5358 36.1413 17.6769 32.518 18.1865 26.7143C18.6956 20.91 19.843 11.7151 19.843 11.7151Z" fill="#E56445"/>
<path d="M13.8513 17.6424C13.8513 17.6424 10.2769 12.5742 17.313 8.44339C24.3491 4.31256 29.5938 9.76989 29.6937 12.741C29.7935 15.7121 28.1221 17.1122 28.1221 17.1122C28.1221 17.1122 28.8716 23.5409 22.6802 23.1847C16.4894 22.8279 13.8513 17.6424 13.8513 17.6424Z" fill="#E56445"/>
<path d="M23.2583 22.1428L23.4611 27.3423C23.4611 27.3423 22.5819 28.8736 19.5496 29.2391C17.2909 29.5114 16.475 29.0301 16.475 29.0301L16.6881 26.3843L16.8996 23.8039L22.3451 22.3817L23.2583 22.1428Z" fill="#FCA397"/>
<path d="M23.2393 21.8952C23.2315 22.0378 23.1842 22.2076 23.1075 22.4027C22.0451 25.0454 17.9914 26.2165 16.6871 26.3848L16.8986 23.8044L23.2393 21.8952Z" fill="black"/>
<path d="M15.2782 11.9977C15.2782 11.9977 12.8033 18.6235 14.0201 22.2035C15.237 25.7836 18.5185 25.031 20.4622 24.2203C22.4058 23.4096 23.2593 22.1438 23.2593 22.1438C23.2593 22.1438 25.1448 22.6704 26.2891 20.8817C27.4334 19.0924 26.5634 17.157 25.4815 16.7617C24.3995 16.3663 23.1841 17.1982 23.1841 17.1982L24.0669 15.2637C24.0669 15.2637 19.4013 5.93141 15.2782 11.9977Z" fill="#FCA397"/>
<path d="M23.3607 19.8779C23.2701 19.8779 23.1821 19.8296 23.1348 19.7446C23.0663 19.6201 23.1116 19.4636 23.2362 19.3946L25.7512 18.011C25.8737 17.9425 26.0317 17.9878 26.1012 18.1124C26.1697 18.2369 26.1244 18.3934 25.9998 18.4624L23.4848 19.846C23.4457 19.8682 23.4029 19.8779 23.3607 19.8779Z" fill="black"/>
<path d="M25.728 20.3026C25.6693 20.3026 25.6096 20.2825 25.5618 20.2419L24.3264 19.1949C24.2178 19.1027 24.2049 18.9406 24.296 18.832C24.3892 18.7234 24.5508 18.7115 24.6589 18.8016L25.8938 19.8486C26.0024 19.9408 26.0153 20.1029 25.9241 20.2115C25.8732 20.2722 25.8006 20.3026 25.728 20.3026Z" fill="black"/>
<path d="M13.8513 17.6424C13.8513 17.6424 14.2276 15.6349 16.1141 13.3294C18.0007 11.0238 18.0007 11.0238 18.0007 11.0238C18.0007 11.0238 18.082 15.1094 20.036 16.7257C21.9905 18.342 23.1841 17.1982 23.1841 17.1982L26.4379 13.8765L19.8002 8.63696C19.8002 8.63696 12.8481 8.90205 13.8513 17.6424Z" fill="#E56445"/>
<path d="M32.429 46.4764C29.8038 47.4647 26.9675 48 24.0026 48C23.6268 48 23.251 47.9897 22.8804 47.9743C18.4279 47.7684 14.2893 46.3528 10.7942 44.0416C10.2434 43.6813 9.71326 43.3004 9.19851 42.8938C8.96688 41.7973 8.75583 40.3921 8.66317 38.6625C8.52934 36.2587 9.31689 33.9063 10.1868 32.0944C10.9229 30.5502 12.1634 29.3302 13.6819 28.6096C14.2018 28.3573 14.7526 28.1669 15.3291 28.0434L16.8476 27.7139C16.8476 27.7139 27.9816 26.7411 30.0045 27.6624C30.0045 27.6624 30.0148 27.6676 30.0302 27.6727C30.2104 27.7602 30.3082 27.8632 30.3185 27.9816C30.4215 29.2787 31.5539 39.0486 32.429 46.4764Z" fill="#FCB35B"/>
<path d="M43.7997 37.561C43.0842 38.6111 42.2863 39.5943 41.4113 40.5157C39.0126 43.0482 36.0631 45.0557 32.7584 46.3477C32.6452 46.394 32.5371 46.4352 32.429 46.4764C29.8038 47.4647 26.9675 48 24.0026 48C23.6268 48 23.2511 47.9898 22.8805 47.9743L22.7518 47.2794L30.0045 27.6625C30.0045 27.6625 30.0148 27.6676 30.0303 27.6728C30.5038 27.8529 40.0987 29.5876 43.7997 37.561Z" fill="#FCB35B"/>
<path d="M16.6041 27.4189L14.6455 28.1906C14.6455 28.1906 14.2677 32.082 18.8845 31.9673C23.7298 31.8468 27.2316 27.2861 27.2316 27.2861L22.9648 26.933L16.6041 27.4189Z" fill="#FCA397"/>
<path d="M18.6683 32.2283C17.2765 32.2283 16.1955 31.851 15.4501 31.1041C14.2636 29.9145 14.3836 28.2405 14.3892 28.17C14.4001 28.0285 14.5251 27.9229 14.6657 27.9343C14.8072 27.9451 14.9127 28.0696 14.9019 28.2107C14.9009 28.2256 14.7985 29.7261 15.8177 30.7443C16.5671 31.4927 17.7335 31.8077 19.2948 31.6883C24.1112 31.311 26.9907 27.1822 27.019 27.1405C27.0999 27.0232 27.2615 26.9943 27.3768 27.0731C27.4936 27.1534 27.524 27.3135 27.4442 27.4308C27.3227 27.6095 24.4031 31.8036 19.3349 32.201C19.1053 32.219 18.883 32.2283 18.6683 32.2283Z" fill="white"/>
<path d="M17.5451 21.7599C17.4396 21.7599 17.3408 21.6945 17.3027 21.5895C17.2548 21.4557 17.3238 21.309 17.4571 21.2606C17.4638 21.258 18.1 21.0171 18.5005 20.3186C18.571 20.1951 18.728 20.1529 18.8521 20.2234C18.9751 20.2939 19.0178 20.4509 18.9473 20.5749C18.449 21.4444 17.6651 21.7326 17.6321 21.7445C17.6033 21.7553 17.5739 21.7599 17.5451 21.7599Z" fill="black"/>
<path d="M29.6077 14.3629C29.4605 14.3604 29.3477 14.243 29.3503 14.1004C29.4471 9.04356 25.2864 7.51528 25.1088 7.453C24.975 7.40564 24.905 7.25894 24.9513 7.12459C24.9987 6.99076 25.1453 6.91972 25.2792 6.96708C25.3265 6.98304 29.969 8.67244 29.865 14.1102C29.8625 14.2512 29.7472 14.3629 29.6077 14.3629Z" fill="#FCB35B"/>
<path d="M13.6819 28.6044C13.6819 28.6096 12.4517 43.7122 12.4517 43.7122L10.7942 44.0416C10.2434 43.6813 9.71325 43.3004 9.1985 42.8938C7.24762 41.365 5.53866 39.5376 4.13855 37.4786C4.11281 37.4426 4.08708 37.4066 4.06134 37.3654C5.25555 35.8109 7.0829 33.5923 8.93598 31.9709C12.2818 29.042 13.6819 28.6044 13.6819 28.6044Z" fill="#FCB35B"/>
<path d="M9.08272 42.6194C8.96536 42.6194 8.85881 42.5386 8.83204 42.4186C7.11691 34.8581 10.8205 31.0356 10.979 30.8765C11.0789 30.7756 11.2416 30.7756 11.343 30.8755C11.4433 30.9754 11.4439 31.1385 11.344 31.2394C11.3075 31.2765 7.68519 35.0362 9.33392 42.3049C9.36532 42.4433 9.27884 42.5813 9.13986 42.6127C9.1203 42.6173 9.10125 42.6194 9.08272 42.6194Z" fill="white"/>
<path d="M31.5828 46.9134C31.4561 46.9134 31.3455 46.8192 31.3285 46.69L30.9769 44.0756C30.9579 43.9351 31.0567 43.8054 31.1977 43.7863C31.3341 43.7601 31.468 43.8656 31.487 44.0071L31.8386 46.6215C31.8576 46.762 31.7588 46.8918 31.6178 46.9108C31.6054 46.9129 31.5941 46.9134 31.5828 46.9134Z" fill="white"/>
</svg>
