<svg width="48" height="48" viewBox="0 0 48 48" fill="none" xmlns="http://www.w3.org/2000/svg">
<path d="M48 24.0026C48 28.0176 47.0168 31.801 45.2667 35.1262C45.2513 35.1623 45.2358 35.1931 45.2152 35.2292C45.1174 35.4145 45.0196 35.5946 44.9115 35.7748C42.2194 40.5568 37.9316 44.3196 32.7687 46.3425C32.4495 46.4661 32.1253 46.5844 31.801 46.6977C31.5076 46.8006 31.2142 46.8984 30.9208 46.986C30.6171 47.0786 30.3133 47.161 30.0096 47.2382C28.9853 47.5059 27.9352 47.7015 26.8594 47.8301C26.6689 47.8559 26.4682 47.8765 26.2726 47.8919C25.5262 47.964 24.7644 48 23.9974 48C23.1018 48 22.2164 47.9485 21.3465 47.8507C20.281 47.7375 19.2309 47.547 18.2117 47.2948C17.4602 47.1095 16.7292 46.8882 16.0086 46.6308C15.8902 46.5896 15.7666 46.5484 15.6483 46.5021C15.3703 46.3992 15.0975 46.2911 14.8247 46.1778C14.1092 45.8844 13.4143 45.5601 12.7399 45.1946C12.4517 45.0402 12.1686 44.8807 11.8855 44.7159C11.8134 44.6748 11.7413 44.6336 11.6693 44.5872C11.1082 44.2527 10.5677 43.8975 10.0427 43.5217C9.72354 43.2952 9.40954 43.0585 9.10585 42.8165C7.61823 41.6429 6.27475 40.2943 5.10628 38.8015C4.94156 38.5905 4.77684 38.3743 4.61727 38.1529C4.32901 37.7566 4.05105 37.3551 3.78338 36.9381C1.38467 33.2062 0 28.7691 0 24.0026C0 10.7479 10.7479 0 23.9974 0C37.2521 0 48 10.7479 48 24.0026Z" fill="#FDBA74"/>
<path d="M32.5062 43.1356L32.0018 43.3517L30.4421 44.0055L21.3465 47.8506C20.281 47.7374 19.2309 47.5469 18.2117 47.2947C17.4602 47.1094 16.7293 46.8881 16.0086 46.6307C15.8902 46.5895 15.7667 46.5483 15.6483 46.502C15.3703 46.399 15.0975 46.2909 14.8247 46.1777C14.1092 45.8843 13.4143 45.56 12.74 45.1945C12.4517 45.0401 12.1686 44.8805 11.8855 44.7158C11.8134 44.6747 11.7414 44.6335 11.6693 44.5871C11.1083 44.2526 10.5678 43.8974 10.0427 43.5216C9.72359 43.2951 9.40959 43.0583 9.10589 42.8164C7.61828 41.6428 6.2748 40.2942 5.10632 38.8014C4.94161 38.5904 4.77688 38.3742 4.61731 38.1528C7.62342 33.4944 13.4246 26.0615 20.3531 25.1298C21.3414 24.9959 22.2525 25.0577 23.0915 25.279C25.135 25.8144 26.7514 27.2917 28.0228 29.1808C28.2235 29.4691 28.4088 29.7625 28.5838 30.0713C31.7238 35.4195 32.5062 43.1356 32.5062 43.1356Z" fill="#5F8457"/>
<path d="M17.96 14.3494C17.96 14.3494 16.126 9.02741 17.7104 6.68583C19.1238 4.59648 26.0719 5.70473 28.5411 7.30817C31.0103 8.9116 31.0922 11.0164 31.0922 11.0164C31.0922 11.0164 32.3018 11.3366 32.5829 12.3769C32.8639 13.4172 31.9637 15.1287 31.9637 15.1287C31.9637 15.1287 30.7375 13.5726 28.9833 14.5645C27.229 15.5564 17.96 14.3494 17.96 14.3494Z" fill="black"/>
<path d="M32.7687 46.3425C32.4496 46.4661 32.1253 46.5845 31.801 46.6977C31.5076 46.8007 31.2142 46.8985 30.9208 46.986C30.6171 47.0786 30.3134 47.161 30.0097 47.2382C28.0897 47.7375 26.0719 48 23.9975 48C23.1018 48 22.2165 47.9485 21.3465 47.8507C20.281 47.7375 19.2309 47.547 18.2117 47.2948C17.4602 47.1095 16.7293 46.8882 16.0086 46.6308C15.8902 46.5896 15.7667 46.5484 15.6483 46.5021C15.3703 46.3992 15.0975 46.2911 14.8247 46.1778C14.1092 45.8844 13.4143 45.5601 12.74 45.1947C13.0437 42.3842 13.3165 40.4899 13.3165 40.4899L20.3531 25.1299L23.0915 25.2792C23.0967 25.2792 27.4102 25.5108 27.4102 25.5108C27.4154 25.5262 27.4205 25.5417 27.4205 25.5571C27.4257 25.5726 28.5838 30.0714 28.5838 30.0714L32.0018 43.3519L32.7687 46.3425Z" fill="white"/>
<path d="M27.4601 21.9725L27.7391 26.6202C27.7391 26.6202 25.989 28.0547 24.0453 28.1536C21.4206 28.2869 20.4266 26.2902 20.4266 26.2902L20.4457 21.5479L27.4601 21.9725Z" fill="#FCA397"/>
<path d="M27.2909 22.6433C27.2909 22.6433 26.4817 25.8291 23.4689 25.4822C21.0403 25.2022 20.2703 21.9731 20.2703 21.9731L27.2909 22.6433Z" fill="black"/>
<path d="M18.7172 11.3765C18.7172 11.3765 17.5621 18.6745 20.0365 22.0662C22.5103 25.4578 25.5401 24.3362 26.8779 23.2336C28.6826 21.7471 28.9956 19.7581 28.9956 19.7581C28.9956 19.7581 31.559 20.1796 32.3384 18.0743C33.1568 15.863 31.5122 14.1561 30.2346 14.0954C28.9575 14.0341 28.817 14.2714 28.817 14.2714L29.1125 11.9293C29.1125 11.9293 21.0799 3.58375 18.7172 11.3765Z" fill="#FCA397"/>
<path d="M20.0581 14.7338C20.0581 14.7338 16.1429 13.2158 15.9432 16.2147C15.7116 19.6892 19.8506 19.5817 19.8506 19.5817L20.0581 14.7338Z" fill="#FCA397"/>
<path d="M29.4465 14.4804C29.4465 14.4804 28.12 15.0868 25.2086 13.1061C22.2978 11.1248 23.0395 8.64271 23.0395 8.64271C23.0395 8.64271 19.2361 11.2056 18.467 14.2766C17.698 17.3471 16.9743 7.169 21.3908 7.21893C25.8073 7.26938 32.5026 9.92031 29.4465 14.4804Z" fill="black"/>
<path d="M20.3531 25.1299C20.3531 25.1299 17.8257 32.3981 16.0189 46.5381C16.0138 46.569 16.0086 46.5999 16.0086 46.6308C15.8902 46.5896 15.7667 46.5484 15.6483 46.5021C15.3703 46.3992 15.0975 46.2911 14.8247 46.1778C14.1092 45.8844 13.4143 45.5601 12.74 45.1947C12.4517 45.0402 12.1686 44.8807 11.8855 44.716C11.8134 44.6748 11.7414 44.6336 11.6693 44.5873C11.1082 44.2527 10.5678 43.8975 10.0427 43.5217C10.1714 41.6841 10.2538 40.5414 10.2538 40.5414L20.3531 25.1299Z" fill="#5F8457"/>
<path d="M45.2667 35.1261C45.2513 35.1621 45.2359 35.193 45.2153 35.229C45.1175 35.4143 45.0197 35.5945 44.9116 35.7746C42.2195 40.5566 37.9316 44.3194 32.7687 46.3423C32.4496 46.4659 32.1253 46.5843 31.801 46.6975C31.5076 46.8005 31.2142 46.8983 30.9208 46.9858C30.7767 46.0747 30.6171 45.0709 30.4421 44.0054C29.7266 39.5838 28.8309 34.0554 28.0228 29.1807C27.8169 27.9248 27.6511 24.8723 27.6249 24.723C27.6249 24.723 37.2676 24.2752 44.9219 34.6422C45.0403 34.8018 45.1535 34.9613 45.2667 35.1261Z" fill="#5F8457"/>
<path d="M29.3564 18.0034C29.2972 18.0034 29.238 17.9834 29.1896 17.9422C29.0815 17.8495 29.0687 17.6874 29.1603 17.5793L30.8255 15.6258C30.9187 15.5177 31.0808 15.5054 31.1884 15.5965C31.2965 15.6891 31.3094 15.8513 31.2177 15.9594L29.5525 17.9128C29.5011 17.9726 29.4295 18.0034 29.3564 18.0034Z" fill="black"/>
<path d="M31.1941 17.4093C31.1849 17.4093 31.1766 17.4088 31.1679 17.4078L29.9412 17.2848C29.7997 17.2709 29.6962 17.1442 29.7111 17.0032C29.725 16.8611 29.862 16.7571 29.9927 16.7731L31.2193 16.8961C31.3609 16.91 31.4644 17.0361 31.4495 17.1777C31.4366 17.3105 31.3244 17.4093 31.1941 17.4093Z" fill="black"/>
<path d="M18.2616 17.8771C18.1818 17.8771 18.103 17.84 18.0531 17.77L16.6319 15.7996C16.5485 15.6843 16.5748 15.5237 16.6901 15.4408C16.8043 15.3564 16.9654 15.3837 17.0488 15.499L18.47 17.4694C18.5534 17.5847 18.5272 17.7453 18.4119 17.8282C18.3666 17.8611 18.3141 17.8771 18.2616 17.8771Z" fill="black"/>
<path d="M16.633 17.3377C16.5064 17.3377 16.3957 17.2435 16.3787 17.1143C16.3597 16.9738 16.458 16.8441 16.5995 16.8256L17.7289 16.6732C17.8663 16.648 17.9991 16.7525 18.0176 16.894C18.0367 17.0345 17.9384 17.1643 17.7968 17.1828L16.6675 17.3352C16.6562 17.3372 16.6448 17.3377 16.633 17.3377Z" fill="black"/>
<path d="M24.923 20.8142C24.5159 20.8142 24.1401 20.5939 24.084 20.5599C24.0109 20.5151 23.9651 20.4374 23.9615 20.3519C23.9574 20.2665 23.996 20.1852 24.0644 20.1337L25.4748 19.0836C25.551 19.027 25.6529 19.0167 25.7384 19.0574C25.8244 19.0975 25.881 19.1819 25.8856 19.2772C25.9221 19.9993 25.7559 20.476 25.3909 20.6927C25.2417 20.7812 25.08 20.8142 24.923 20.8142ZM24.7372 20.2747C24.8762 20.3077 25.0224 20.3139 25.1284 20.2495C25.2386 20.1836 25.3132 20.0354 25.3503 19.8181L24.7372 20.2747Z" fill="black"/>
<path d="M30.9574 16.2671C30.9574 16.2671 31.3738 17.1699 30.8776 17.5503C30.3814 17.9307 29.7987 17.6245 29.7987 17.6245L30.9574 16.2671Z" fill="#F7734F"/>
<path d="M16.9048 16.165C16.9048 16.165 16.4163 17.0308 16.8806 17.4503C17.3443 17.8699 17.9502 17.6115 17.9502 17.6115L16.9048 16.165Z" fill="#F7734F"/>
<path d="M23.8698 31.3202C19.5619 31.3202 17.1632 17.9512 17.0618 17.3762C17.0371 17.2362 17.1308 17.1029 17.2703 17.0782C17.4077 17.0509 17.5436 17.1466 17.5683 17.2867C18.2354 21.0803 20.6532 30.8054 23.8678 30.8054C23.9054 30.8054 23.9434 30.8044 23.9815 30.8013C28.501 30.4801 30.3072 17.2517 30.3247 17.1183C30.3438 16.9773 30.4761 16.8769 30.6135 16.8965C30.7551 16.9155 30.8539 17.0447 30.8354 17.1853C30.7602 17.7479 28.9529 30.9634 24.0176 31.3145C23.9682 31.3186 23.9193 31.3202 23.8698 31.3202Z" fill="#F7734F"/>
<path d="M26.8594 47.8302C26.6689 47.8559 26.4682 47.8765 26.2726 47.892C22.9267 42.9916 23.704 31.5951 23.7452 31.0392C23.7555 30.9002 23.879 30.7921 24.018 30.8024C24.1621 30.8127 24.2651 30.9363 24.2548 31.0753C24.2445 31.2142 23.4209 43.2387 26.8594 47.8302Z" fill="#F7734F"/>
</svg>
