<svg width="48" height="48" viewBox="0 0 48 48" fill="none" xmlns="http://www.w3.org/2000/svg">
<path d="M48 24.0026C48 28.0176 47.0168 31.801 45.2667 35.1262C45.2513 35.1623 45.2358 35.1931 45.2152 35.2292C45.1174 35.4145 45.0196 35.5946 44.9115 35.7748C42.2194 40.5568 37.9316 44.3196 32.7687 46.3425C32.4495 46.4661 32.1253 46.5844 31.801 46.6977C31.5076 46.8006 31.2142 46.8984 30.9208 46.9859C30.6171 47.0786 30.3133 47.161 30.0096 47.2382C28.9853 47.5059 27.9352 47.7015 26.8594 47.8301C26.6689 47.8559 26.4682 47.8765 26.2726 47.8919C25.5262 47.964 24.7644 48 23.9974 48C23.1018 48 22.2164 47.9485 21.3465 47.8507C20.281 47.7375 19.2309 47.547 18.2117 47.2948C17.4602 47.1095 16.7292 46.8882 16.0086 46.6308C15.8902 46.5896 15.7666 46.5484 15.6483 46.5021C15.3703 46.3992 15.0975 46.2911 14.8247 46.1778C14.1092 45.8844 13.4143 45.5601 12.7399 45.1946C12.4517 45.0402 12.1686 44.8807 11.8855 44.7159C11.8134 44.6748 11.7413 44.6336 11.6693 44.5873C11.1082 44.2527 10.5677 43.8975 10.0427 43.5217C9.72354 43.2952 9.40955 43.0585 9.10585 42.8165C7.61823 41.6429 6.27475 40.2943 5.10628 38.8015C4.94156 38.5905 4.77684 38.3743 4.61727 38.1529C4.32901 37.7566 4.05105 37.3551 3.78338 36.9381C1.38467 33.2062 0 28.7691 0 24.0026C0 10.7479 10.7479 0 23.9974 0C37.2521 0 48 10.7479 48 24.0026Z" fill="#EDDDD6"/>
<path d="M32.5062 43.1357L32.0018 43.3519L30.4421 44.0056L21.3465 47.8507C20.281 47.7375 19.2309 47.547 18.2117 47.2948C17.4602 47.1095 16.7293 46.8882 16.0086 46.6308C15.8902 46.5896 15.7667 46.5484 15.6483 46.5021C15.3703 46.3992 15.0975 46.2911 14.8247 46.1778C14.1092 45.8844 13.4143 45.5601 12.74 45.1947C12.4517 45.0402 12.1686 44.8807 11.8855 44.716C11.8134 44.6748 11.7414 44.6336 11.6693 44.5873C11.1082 44.2527 10.5678 43.8975 10.0427 43.5217C9.72357 43.2953 9.40957 43.0585 9.10587 42.8165C7.61826 41.6429 6.27478 40.2943 5.10631 38.8015C4.94159 38.5905 4.77687 38.3743 4.61729 38.1529C7.62341 33.4945 13.4246 26.0616 20.3531 25.1299C21.3414 24.9961 22.2525 25.0578 23.0915 25.2792C25.135 25.8145 26.7513 27.2918 28.0228 29.1809C28.2235 29.4692 28.4088 29.7626 28.5838 30.0714C31.7238 35.4196 32.5062 43.1357 32.5062 43.1357Z" fill="#7772D3"/>
<path d="M17.96 14.3495C17.96 14.3495 16.126 9.02759 17.7103 6.68601C19.1238 4.59666 26.0719 5.70492 28.5411 7.30835C31.0103 8.91178 31.0922 11.0166 31.0922 11.0166C31.0922 11.0166 32.3018 11.3367 32.5829 12.377C32.8639 13.4173 31.9636 15.1289 31.9636 15.1289C31.9636 15.1289 30.7375 13.5728 28.9833 14.5647C27.229 15.5566 17.96 14.3495 17.96 14.3495Z" fill="#7772D3"/>
<path d="M32.7687 46.3425C32.4496 46.4661 32.1253 46.5845 31.801 46.6977C31.5076 46.8007 31.2142 46.8985 30.9208 46.986C30.6171 47.0786 30.3134 47.161 30.0097 47.2382C28.0897 47.7375 26.0719 48 23.9975 48C23.1018 48 22.2164 47.9485 21.3465 47.8507C20.281 47.7375 19.2309 47.547 18.2117 47.2948C17.4602 47.1095 16.7293 46.8882 16.0086 46.6308C15.8902 46.5896 15.7667 46.5484 15.6483 46.5021C15.3703 46.3992 15.0975 46.2911 14.8247 46.1778C14.1092 45.8844 13.4143 45.5601 12.74 45.1947C13.0437 42.3842 13.3165 40.4899 13.3165 40.4899L20.3531 25.1299L23.0915 25.2792C23.0966 25.2792 27.4102 25.5108 27.4102 25.5108C27.4154 25.5262 27.4205 25.5417 27.4205 25.5571C27.4257 25.5726 28.5838 30.0714 28.5838 30.0714L32.0018 43.3519L32.7687 46.3425Z" fill="#7772D3"/>
<path d="M27.4601 21.9724L27.7391 26.6201C27.7391 26.6201 25.989 28.0547 24.0453 28.1535C21.4206 28.2868 20.4266 26.2901 20.4266 26.2901L20.4457 21.5478L27.4601 21.9724Z" fill="#7772D3"/>
<path d="M27.2909 22.6432C27.2909 22.6432 26.4817 25.8289 23.4689 25.482C21.0403 25.202 20.2702 21.973 20.2702 21.973L27.2909 22.6432Z" fill="#7772D3"/>
<path d="M18.7172 11.3764C18.7172 11.3764 17.5621 18.6745 20.0364 22.0661C22.5103 25.4578 25.5401 24.3362 26.8779 23.2336C28.6826 21.747 28.9956 19.758 28.9956 19.758C28.9956 19.758 31.559 20.1796 32.3383 18.0743C33.1568 15.8629 31.5122 14.156 30.2346 14.0953C28.9575 14.0341 28.817 14.2713 28.817 14.2713L29.1124 11.9293C29.1124 11.9293 21.0798 3.58369 18.7172 11.3764Z" fill="#7772D3"/>
<path d="M20.0581 14.7335C20.0581 14.7335 16.1429 13.2155 15.9432 16.2145C15.7116 19.689 19.8506 19.5814 19.8506 19.5814L20.0581 14.7335Z" fill="#7772D3"/>
<path d="M29.4465 14.4803C29.4465 14.4803 28.12 15.0867 25.2086 13.1059C22.2977 11.1247 23.0395 8.64259 23.0395 8.64259C23.0395 8.64259 19.236 11.2055 18.467 14.2765C17.698 17.3469 16.9742 7.16888 21.3908 7.21881C25.8073 7.26926 32.5026 9.92019 29.4465 14.4803Z" fill="#7772D3"/>
<path d="M20.3531 25.1299C20.3531 25.1299 17.8257 32.3981 16.0189 46.5381C16.0137 46.569 16.0086 46.5999 16.0086 46.6308C15.8902 46.5896 15.7667 46.5484 15.6483 46.5021C15.3703 46.3992 15.0975 46.2911 14.8247 46.1778C14.1092 45.8844 13.4143 45.5601 12.74 45.1947C12.4517 45.0402 12.1686 44.8807 11.8855 44.716C11.8134 44.6748 11.7414 44.6336 11.6693 44.5873C11.1082 44.2527 10.5677 43.8975 10.0427 43.5217C10.1714 41.6841 10.2538 40.5414 10.2538 40.5414L20.3531 25.1299Z" fill="#7772D3"/>
<path d="M45.2667 35.1262C45.2513 35.1623 45.2358 35.1932 45.2153 35.2292C45.1175 35.4145 45.0197 35.5947 44.9116 35.7748C42.2194 40.5568 37.9316 44.3196 32.7687 46.3425C32.4496 46.4661 32.1253 46.5845 31.801 46.6977C31.5076 46.8007 31.2142 46.8985 30.9208 46.986C30.7767 46.0749 30.6171 45.0711 30.4421 44.0056C29.7266 39.5839 28.8309 34.0556 28.0228 29.1809C27.8169 27.9249 27.6511 24.8725 27.6249 24.7232C27.6249 24.7232 37.2676 24.2754 44.9218 34.6424C45.0402 34.802 45.1535 34.9615 45.2667 35.1262Z" fill="#7772D3"/>
<path d="M29.3564 18.0033C29.2972 18.0033 29.238 17.9832 29.1896 17.942C29.0815 17.8494 29.0687 17.6872 29.1603 17.5791L30.8255 15.6257C30.9187 15.5176 31.0808 15.5052 31.1884 15.5963C31.2965 15.689 31.3094 15.8511 31.2177 15.9592L29.5525 17.9127C29.501 17.9724 29.4295 18.0033 29.3564 18.0033Z" fill="#7772D3"/>
<path d="M31.1941 17.4092C31.1849 17.4092 31.1766 17.4087 31.1679 17.4077L29.9412 17.2846C29.7997 17.2707 29.6962 17.1441 29.7111 17.0031C29.725 16.861 29.862 16.757 29.9927 16.773L31.2193 16.896C31.3609 16.9099 31.4644 17.036 31.4494 17.1776C31.4366 17.3104 31.3244 17.4092 31.1941 17.4092Z" fill="#7772D3"/>
<path d="M18.2616 17.8771C18.1818 17.8771 18.103 17.84 18.0531 17.77L16.6319 15.7996C16.5485 15.6843 16.5747 15.5237 16.69 15.4408C16.8043 15.3564 16.9654 15.3837 17.0488 15.499L18.47 17.4694C18.5534 17.5847 18.5272 17.7453 18.4119 17.8282C18.3666 17.8611 18.3141 17.8771 18.2616 17.8771Z" fill="#7772D3"/>
<path d="M16.633 17.3377C16.5063 17.3377 16.3957 17.2435 16.3787 17.1143C16.3596 16.9737 16.458 16.844 16.5995 16.8255L17.7289 16.6731C17.8663 16.6479 17.9991 16.7524 18.0176 16.894C18.0367 17.0345 17.9384 17.1642 17.7968 17.1827L16.6675 17.3351C16.6561 17.3372 16.6448 17.3377 16.633 17.3377Z" fill="#7772D3"/>
<path d="M24.923 20.8142C24.5159 20.8142 24.1401 20.5939 24.084 20.56C24.0109 20.5152 23.9651 20.4375 23.9615 20.352C23.9573 20.2666 23.996 20.1852 24.0644 20.1338L25.4748 19.0837C25.551 19.027 25.6529 19.0168 25.7384 19.0574C25.8243 19.0976 25.881 19.182 25.8856 19.2772C25.9221 19.9994 25.7559 20.4761 25.3909 20.6928C25.2416 20.7813 25.08 20.8142 24.923 20.8142ZM24.7372 20.2748C24.8762 20.3077 25.0224 20.3139 25.1284 20.2496C25.2385 20.1837 25.3132 20.0354 25.3502 19.8182L24.7372 20.2748Z" fill="#7772D3"/>
<path d="M30.9574 16.267C30.9574 16.267 31.3738 17.1698 30.8776 17.5502C30.3814 17.9306 29.7987 17.6243 29.7987 17.6243L30.9574 16.267Z" fill="#7772D3"/>
<path d="M16.9047 16.1651C16.9047 16.1651 16.4162 17.0309 16.8805 17.4504C17.3443 17.8699 17.9502 17.6115 17.9502 17.6115L16.9047 16.1651Z" fill="#7772D3"/>
<path d="M23.8698 31.3202C19.5619 31.3202 17.1632 17.9513 17.0618 17.3763C17.0371 17.2363 17.1308 17.103 17.2703 17.0782C17.4077 17.051 17.5436 17.1467 17.5683 17.2867C18.2354 21.0804 20.6532 30.8055 23.8678 30.8055C23.9053 30.8055 23.9434 30.8044 23.9815 30.8014C28.501 30.4802 30.3072 17.2517 30.3247 17.1184C30.3438 16.9774 30.4761 16.877 30.6135 16.8965C30.7551 16.9156 30.8539 17.0448 30.8354 17.1853C30.7602 17.7479 28.9529 30.9635 24.0176 31.3146C23.9681 31.3187 23.9192 31.3202 23.8698 31.3202Z" fill="#7772D3"/>
<path d="M26.8594 47.8301C26.6689 47.8559 26.4682 47.8765 26.2726 47.8919C22.9267 42.9915 23.704 31.5951 23.7452 31.0392C23.7555 30.9002 23.879 30.7921 24.018 30.8024C24.1621 30.8127 24.265 30.9362 24.2548 31.0752C24.2445 31.2142 23.4209 43.2386 26.8594 47.8301Z" fill="#7772D3"/>
</svg>
