<svg width="48" height="48" viewBox="0 0 48 48" fill="none" xmlns="http://www.w3.org/2000/svg">
<path d="M48 24.0026C48 28.1257 46.9602 32.0069 45.1226 35.3939C44.6953 36.1969 44.2115 36.9741 43.6916 37.7205C42.1937 39.8773 40.3406 41.7767 38.225 43.3261C38.2147 43.3415 38.1992 43.3467 38.1889 43.357C38.05 43.4599 37.911 43.5629 37.7669 43.6555C35.1622 45.488 32.1767 46.8109 28.9544 47.4852C27.3587 47.825 25.7012 48 24.0026 48C20.1059 48 16.4307 47.0735 13.1775 45.4211C11.2987 44.474 9.56396 43.2849 8.00943 41.8951C7.17555 41.1436 6.38799 40.3406 5.6622 39.481C5.33276 39.0949 5.01877 38.6985 4.72021 38.2919C3.92236 37.2212 3.21201 36.0836 2.59946 34.8843C0.936838 31.6157 0 27.9198 0 24.0026C0 10.7479 10.7479 0 24.0026 0C37.2521 0 48 10.7479 48 24.0026Z" fill="#EDDDD6"/>
<path d="M31.2692 18.308C30.894 16.6299 29.6272 15.4851 28.4402 15.7507L27.822 15.8434C27.7473 15.8491 27.6722 15.8604 27.598 15.8769C26.411 16.1425 25.7532 17.7181 26.129 19.3957C26.5042 21.0737 27.771 22.2185 28.958 21.9529L29.5762 21.8608C29.6508 21.8551 29.726 21.8438 29.8006 21.8273C30.9871 21.5612 31.645 19.9856 31.2692 18.308Z" fill="#7772D3"/>
<path d="M45.1225 35.3939C44.6953 36.1969 44.2114 36.9741 43.6915 37.7205C42.1936 39.8773 40.3405 41.7767 38.2249 43.3261C38.2146 43.3416 38.1992 43.3467 38.1889 43.357C38.0499 43.4599 37.9109 43.5629 37.7668 43.6556C35.1622 45.488 32.1767 46.8109 28.9544 47.4852C27.3587 47.825 25.7012 48 24.0025 48C20.1059 48 16.4306 47.0735 13.1774 45.4211C11.2986 44.474 9.56394 43.2849 8.00941 41.8951C7.17552 41.1436 6.38796 40.3406 5.66217 39.481C5.33273 39.0949 5.01874 38.6986 4.72018 38.2919C8.53445 33.7004 11.8906 32.7738 11.8906 32.7738C11.7825 32.6554 10.6037 31.2656 11.8906 28.764C13.5841 25.4593 18.8448 23.4158 18.8448 23.4158L28.1308 22.865C28.1308 22.865 32.0377 23.1481 34.9306 26.4734C37.3241 29.2118 36.8969 30.9516 36.6704 31.4818C36.6292 31.5951 36.5881 31.6517 36.5881 31.6517C36.5881 31.6517 40.5979 32.9694 45.1225 35.3939Z" fill="#7772D3"/>
<path d="M36.6714 31.4808C34.7447 32.6992 31.6588 34.2249 27.3046 35.1808C19.1614 36.9788 11.8901 32.7734 11.8901 32.7734C11.7809 32.6545 10.6022 31.2677 11.8901 28.7609C13.5841 25.4573 18.8443 23.4163 18.8443 23.4163L28.1318 22.8666C28.1318 22.8666 32.0351 23.1487 34.9326 26.4724C37.3252 29.2124 36.8995 30.9507 36.6714 31.4808Z" fill="#7772D3"/>
<path d="M20.1929 29.5176C20.1929 29.5176 16.5135 27.5971 16.7333 26.4739C16.9536 25.3507 20.5244 24.5976 22.8114 25.0295C25.099 25.4614 30.5074 25.5283 30.5074 27.4967C30.5074 29.2365 28.0253 30.9105 28.0253 30.9105L22.8114 29.4064L20.1929 29.5176Z" fill="#7772D3"/>
<path d="M20.0652 23.7592L20.1929 29.5176C20.1929 29.5176 21.2682 31.1499 24.6429 31.3491C27.1569 31.4973 28.0258 30.9105 28.0258 30.9105L27.6114 28.0017L27.2032 25.1654L21.0906 23.9625L20.0652 23.7592Z" fill="#7772D3"/>
<path d="M21.0906 23.9624C21.1087 24.1194 21.1725 24.3037 21.2703 24.5142C22.6225 27.3618 26.1588 27.9038 27.6109 28.0016L27.2027 25.1654L21.0906 23.9624Z" fill="#7772D3"/>
<path d="M28.1956 12.0116C28.1956 12.0116 31.3778 19.164 30.2757 23.2017C29.1737 27.2393 25.4974 26.6299 23.2953 25.8655C21.0932 25.1011 20.0642 23.7607 20.0642 23.7607C20.0642 23.7607 18.0166 24.47 16.6314 22.5711C15.2462 20.6722 16.0765 18.4748 17.245 17.9647C18.4134 17.4545 19.8125 18.2915 19.8125 18.2915L18.7063 16.214C18.7063 16.214 23.2299 5.58863 28.1956 12.0116Z" fill="#7772D3"/>
<path d="M19.5073 21.6754C19.4414 21.6754 19.376 21.6492 19.3271 21.5977L17.3783 19.5326C17.2846 19.4332 17.2892 19.2762 17.3886 19.1825C17.4879 19.0883 17.6449 19.093 17.7386 19.1928L19.6874 21.258C19.7811 21.3573 19.7765 21.5143 19.6771 21.608C19.6298 21.6528 19.5685 21.6754 19.5073 21.6754Z" fill="#7772D3"/>
<path d="M17.4442 21.1216C17.3237 21.1216 17.2182 21.0336 17.1997 20.9111C17.1791 20.7757 17.2722 20.6496 17.4071 20.629L18.7552 20.4246C18.8927 20.4051 19.0167 20.4972 19.0373 20.632C19.0579 20.7674 18.9647 20.8935 18.8299 20.9141L17.4817 21.118C17.4694 21.1205 17.4565 21.1216 17.4442 21.1216Z" fill="#7772D3"/>
<path d="M19.8125 18.2915C19.8125 18.2915 20.5527 18.7774 21.0906 17.9358C21.6285 17.0942 20.4513 14.6059 20.4513 14.6059C20.4513 14.6059 22.6724 15.1104 24.0452 14.3758C25.4181 13.6413 26.0919 11.6199 26.0919 11.6199C26.0919 11.6199 27.1023 13.7252 30.1342 12.7986C33.166 11.8721 33.7441 7.7459 30.5074 6.90327C27.2706 6.06114 25.502 7.49264 25.502 7.49264C25.502 7.49264 25.0917 4.49787 21.0901 5.97673C17.4442 7.32433 16.8275 11.8917 16.8275 11.8917C16.8275 11.8917 14.6378 11.9936 14.2167 14.3748C13.7956 16.756 16.582 18.4794 16.582 18.4794C16.582 18.4794 18.1643 17.5523 19.8125 18.2915Z" fill="#7772D3"/>
<path d="M24.1714 36.078C16.5382 35.6513 13.5738 33.9012 13.4513 33.8265C13.3298 33.7529 13.2912 33.5949 13.3648 33.4734C13.4384 33.3519 13.5954 33.3123 13.7184 33.3864C13.7478 33.4039 16.7189 35.1458 24.1858 35.5638C24.3278 35.572 24.4365 35.693 24.4282 35.835C24.4205 35.972 24.3073 36.078 24.1714 36.078Z" fill="#7772D3"/>
<path d="M24.3803 44.7607C24.229 44.7555 24.1178 44.6366 24.123 44.4946L24.333 38.313C24.3376 38.1709 24.4576 38.068 24.5991 38.0644C24.7412 38.0695 24.8524 38.1884 24.8472 38.3305L24.6372 44.5121C24.6326 44.6511 24.5183 44.7607 24.3803 44.7607Z" fill="#7772D3"/>
<path d="M34.4555 42.8912C34.3675 42.8912 34.282 42.8459 34.2336 42.7651L31.1518 37.5533C31.0793 37.4308 31.1199 37.2728 31.2424 37.2002C31.3644 37.1291 31.523 37.1688 31.595 37.2908L34.6768 42.5026C34.7494 42.6251 34.7087 42.7831 34.5862 42.8557C34.545 42.8799 34.4997 42.8912 34.4555 42.8912Z" fill="#7772D3"/>
<path d="M34.4555 33.0292C34.3628 33.0292 34.2732 32.9792 34.2274 32.8917C34.161 32.7656 34.2094 32.6102 34.3355 32.5438L36.4676 31.4211C36.5937 31.3552 36.7492 31.4031 36.8151 31.5287C36.8815 31.6548 36.8331 31.8102 36.707 31.8766L34.5749 32.9993C34.5368 33.0199 34.4956 33.0292 34.4555 33.0292Z" fill="#7772D3"/>
<path d="M21.3943 20.4076C21.6131 22.113 20.8121 23.6207 19.6056 23.7756C18.3995 23.93 17.2439 22.673 17.0257 20.9677C16.8069 19.2623 17.6079 17.7546 18.8144 17.5997C20.0205 17.4453 21.1756 18.7023 21.3943 20.4076Z" fill="#7772D3"/>
<path d="M18.8139 17.5997L17.9795 17.7685L18.7707 23.9439L19.6056 23.7756L20.5167 22.7955L20.7818 19.3714L18.8139 17.5997Z" fill="#7772D3"/>
<path d="M20.5594 20.5765C20.7782 22.2818 19.9772 23.7895 18.7707 23.9444C17.5646 24.0989 16.409 22.8419 16.1908 21.1365C15.972 19.4312 16.773 17.9235 17.9795 17.7685C19.1856 17.6136 20.3407 18.8711 20.5594 20.5765Z" fill="#7772D3"/>
<path d="M17.3742 9.94849C17.3742 9.94849 16.4533 11.0516 16.1944 12.0234C15.9354 12.9952 17.4447 19.132 17.4447 19.132L19.3498 18.7002L17.3742 9.94849Z" fill="#7772D3"/>
<path d="M26.219 23.179C25.3311 23.179 24.6923 22.5253 24.4535 22.1217C24.3809 21.9997 24.4216 21.8422 24.5435 21.7696C24.665 21.6965 24.8225 21.7372 24.8961 21.8587C24.9214 21.9014 25.5288 22.8887 26.5701 22.6179C26.7055 22.5803 26.8481 22.6648 26.8841 22.8017C26.9196 22.9396 26.8373 23.0796 26.6998 23.1152C26.533 23.1594 26.3724 23.179 26.219 23.179Z" fill="#7772D3"/>
</svg>
