<svg width="48" height="48" viewBox="0 0 48 48" fill="none" xmlns="http://www.w3.org/2000/svg">
<path d="M48 24C48 25.1892 47.9125 26.3629 47.7478 27.5058C47.6912 27.8867 47.6242 28.2574 47.5573 28.6281C47.058 31.1712 46.1624 33.5701 44.9321 35.7529C44.1806 37.0862 43.3055 38.3423 42.3172 39.5006C42.0496 39.8198 41.7716 40.1287 41.4885 40.4324C40.2994 41.6988 38.9765 42.8365 37.5352 43.8198C36.4234 44.5817 35.2446 45.251 34.0092 45.8172C33.1136 46.2291 32.187 46.5894 31.2296 46.888C30.1795 47.2226 29.0934 47.4852 27.9816 47.6705C26.6896 47.8867 25.3564 48 24.0026 48C19.6067 48 15.4887 46.8211 11.9472 44.7568C11.345 44.4118 10.7633 44.036 10.1971 43.6345C10.1405 43.5933 10.0787 43.5521 10.0221 43.5109C9.62061 43.2226 9.22423 42.9189 8.84332 42.6049C8.82273 42.5894 8.80214 42.574 8.78155 42.5534C7.82927 41.7761 6.93877 40.9215 6.11518 40C5.60558 39.4286 5.12171 38.8314 4.66359 38.2136C1.72954 34.2342 0 29.3179 0 24C0 10.7439 10.7479 0 24.0026 0C37.2521 0 48 10.7439 48 24Z" fill="#EDDDD6"/>
<path d="M11.9575 44.3963L11.9472 44.7566C11.345 44.4117 10.7633 44.036 10.1971 43.6345C10.1405 43.5933 10.0787 43.5521 10.0221 43.5109L10.2022 43.5933L11.9575 44.3963Z" fill="#7772D3"/>
<path d="M12.915 29.0193L10.2023 43.5933L10.1971 43.6345C10.1405 43.5933 10.0787 43.5521 10.0221 43.5109C9.6206 43.2226 9.22423 42.9189 8.84332 42.6049C8.82273 42.5894 8.80214 42.574 8.78155 42.5534C7.82927 41.776 6.93877 40.9215 6.11517 40C8.18085 34.3356 12.915 29.0193 12.915 29.0193Z" fill="#7772D3"/>
<path d="M47.5573 28.6281C47.058 31.1712 46.1624 33.5702 44.9321 35.7529C44.1806 37.0863 43.3055 38.3424 42.3172 39.5007C42.0496 39.8199 41.7716 40.1287 41.4885 40.4325C40.2994 41.6989 38.9765 42.8366 37.5353 43.8199C36.2432 43.7323 34.9203 43.5264 33.5974 43.2278C32.7893 43.0477 31.9811 42.8314 31.1781 42.5895C30.2979 42.3218 29.428 42.0232 28.5684 41.704C27.3175 41.2407 26.1027 40.7259 24.9394 40.1957C19.0404 37.4878 14.5673 34.2858 14.5673 34.2858C14.5673 34.2858 14.171 33.4981 13.7283 32.1751C13.5069 31.5161 13.2753 30.7285 13.0797 29.843C13.0591 29.7555 13.0385 29.6629 13.0231 29.5753C13.0179 29.5599 13.0179 29.5547 13.0128 29.5444C12.9819 29.3746 12.9459 29.1995 12.915 29.0193C12.6216 27.4286 12.462 25.5908 12.6421 23.6448C12.8069 21.807 14.032 19.3977 15.2622 16.7311C15.638 15.8971 16.0137 15.058 16.3586 14.1982C16.5903 13.6268 16.8064 13.0502 16.9969 12.4685C17.3778 11.3411 17.6712 10.1931 17.8051 9.06054C17.8462 8.78255 17.872 8.52 17.8822 8.2523C17.9131 7.72206 17.908 7.19181 17.8565 6.66672C17.8565 6.66672 21.8613 3.90738 26.3035 6.92926C27.4823 7.73235 28.136 8.6281 28.5221 9.54445C28.9544 10.5638 29.0574 11.6037 29.1809 12.5663C29.3611 13.9975 29.5824 15.2484 31.0134 15.9795C34.2614 17.6474 37.3757 19.6139 37.247 22.9499C37.1132 26.2806 38.9714 30.1931 41.612 28.345C43.1871 27.2433 45.591 27.4647 47.5573 28.6281Z" fill="#7772D3"/>
<path d="M31.2296 46.888C30.1795 47.2227 29.0934 47.4852 27.9816 47.6705C26.6896 47.8868 25.3564 48 24.0026 48C19.6067 48 15.4887 46.8211 11.9473 44.7568C11.345 44.4118 10.7633 44.036 10.1971 43.6345C10.1405 43.5933 10.0787 43.5521 10.0221 43.5109C9.62061 43.2227 9.22423 42.9189 8.84332 42.6049C8.94112 41.8224 9.05438 41.0502 9.17792 40.2831C9.18821 40.2162 9.20366 40.1442 9.21396 40.0772C9.34779 39.2793 9.50222 38.4968 9.67209 37.7297C9.67723 37.6937 9.68752 37.6628 9.69267 37.6319C10.192 35.3977 10.856 33.3385 11.7208 31.6242C12.1068 30.8571 12.5392 30.157 13.0128 29.5444C13.0643 29.4775 13.1209 29.4106 13.1723 29.3436C13.4349 29.0245 13.6974 28.7413 13.9753 28.4839C14.3357 28.1493 14.696 27.8456 15.0615 27.5624C15.082 27.5521 15.0975 27.547 15.1026 27.5367C16.2505 26.6615 17.4242 26.0386 18.5875 25.6165C21.1509 24.6847 23.6629 24.7053 25.7527 25.0605C25.8763 25.0811 25.9947 25.1017 26.1079 25.1274C26.9366 25.287 27.6933 25.4929 28.347 25.7143C29.9788 26.2497 30.9877 26.8417 30.9877 26.8417L31.1781 42.5895L31.2296 46.888Z" fill="#7772D3"/>
<path d="M47.7478 27.5058C47.6912 27.8868 47.6242 28.2574 47.5573 28.6281C47.058 31.1712 46.1624 33.5702 44.9321 35.7529C43.2438 35.0631 41.1488 33.9872 39.2082 32.9164C36.0579 31.1918 33.3143 29.4827 33.3143 29.4827L32.2694 27.3977L28.172 19.2124L27.1322 17.1326L26.8079 16.4788L25.8402 14.5534L25.6498 14.1725L25.552 13.9717L24.8056 12.4839L25.4696 11.9588C25.4748 11.9588 26.1182 11.444 26.1182 11.444L28.522 9.54443C28.522 9.54443 28.5014 11.1197 29.1809 12.5663C29.6236 13.5238 30.37 14.4196 31.6311 14.7645C34.1328 15.4543 36.3462 15.6139 37.7823 18.8623C39.1927 22.0438 37.3088 24.3141 39.9803 26.0695C42.6518 27.825 43.6041 25.4518 47.4544 27.3514C47.5573 27.4029 47.6551 27.4543 47.7478 27.5058Z" fill="#7772D3"/>
<path d="M25.4001 20.1272L25.7903 25.5944C25.7903 25.5944 24.9168 27.2366 21.7372 27.7246C19.3683 28.0886 18.5267 26.9184 18.5267 26.9184L18.7625 22.0927L24.4468 20.4098L25.4001 20.1272Z" fill="#7772D3"/>
<path d="M24.4468 20.4108C24.4437 20.5611 24.3994 20.7412 24.3258 20.9497C23.2974 23.7679 19.9953 24.5956 18.6281 24.817L18.763 22.0935L24.4468 20.4108Z" fill="#7772D3"/>
<path d="M16.6541 9.7184C16.6541 9.7184 14.2744 16.7784 15.6771 20.506C17.0798 24.2342 20.5085 23.3297 22.5268 22.4098C24.5451 21.4898 25.4006 20.1282 25.4006 20.1282C25.4006 20.1282 27.4035 20.6188 28.5473 18.696C29.691 16.7737 28.7094 14.7655 27.5569 14.3861C26.4049 14.0067 25.1535 14.9235 25.1535 14.9235L26.0168 12.8571C26.0178 12.8571 20.788 3.19125 16.6541 9.7184Z" fill="#7772D3"/>
<path d="M25.1541 14.9241C25.1541 14.9241 22.289 15.7961 19.9454 12.7408C17.6012 9.68493 17.6589 8.33153 17.6589 8.33153L15.9612 11.8842C15.9612 11.8842 15.2843 9.6 16.0714 8.02625C16.859 6.45251 17.855 6.66666 17.855 6.66666L24.453 7.65354L26.6484 12.6538L25.1541 14.9241Z" fill="#7772D3"/>
<path d="M18.9812 20.1517C18.8849 20.1517 18.8253 20.1429 18.8155 20.1414C18.6749 20.1198 18.5787 19.9885 18.6003 19.848C18.6219 19.708 18.7542 19.6102 18.8916 19.6323C18.9333 19.638 19.778 19.7368 20.4853 18.7243C20.5671 18.6069 20.7283 18.5802 20.8436 18.661C20.9604 18.7423 20.9887 18.9029 20.9074 19.0192C20.197 20.0353 19.3379 20.1517 18.9812 20.1517Z" fill="#7772D3"/>
<path d="M25.7218 18.1253C25.6662 18.1253 25.6101 18.1073 25.5633 18.0708C25.4511 17.9833 25.431 17.8216 25.5185 17.7094L27.1816 15.5799C27.2697 15.4672 27.4318 15.4482 27.543 15.5357C27.6552 15.6232 27.6753 15.7848 27.5878 15.897L25.9251 18.0265C25.8742 18.0914 25.798 18.1253 25.7218 18.1253Z" fill="#7772D3"/>
<path d="M27.6269 17.4182C27.6125 17.4177 26.3169 17.3441 26.3169 17.3441C26.1753 17.3358 26.0667 17.2149 26.0744 17.0728C26.0821 16.9318 26.1897 16.8278 26.3457 16.8304L27.6413 16.904C27.7829 16.9122 27.8915 17.0332 27.8838 17.1752C27.876 17.3122 27.7628 17.4182 27.6269 17.4182Z" fill="#7772D3"/>
<path d="M34.0092 45.8173C33.1136 46.2291 32.187 46.5895 31.2296 46.8881C30.1795 47.2227 29.0934 47.4852 27.9816 47.6706C26.6896 47.8868 25.3564 48 24.0026 48C19.6067 48 15.4887 46.8211 11.9473 44.7568C11.345 44.4119 10.7633 44.0361 10.1971 43.6345C10.1405 43.5933 10.0787 43.5522 10.0221 43.511C9.62061 43.2227 9.22423 42.9189 8.84332 42.6049C8.82273 42.5895 8.80214 42.574 8.78156 42.5534C8.91024 41.7812 12.6267 29.2561 12.915 29.0193L13.5636 28.5869C14.4077 27.8816 14.8092 27.7014 15.0615 27.5624C15.082 27.5521 15.0975 27.547 15.1026 27.5367C15.1181 27.5316 12.6113 40.9164 12.6113 40.9164L24.9291 40.1957C24.9394 40.1957 25.5211 40.1596 25.5211 40.1596C25.5211 40.1596 25.8608 37.1475 26.6484 33.3076C27.6269 28.5375 28.347 25.7143 28.347 25.7143C29.586 25.6845 30.9877 26.8417 30.9877 26.8417L33.5974 43.2278L34.0092 45.8173Z" fill="#7772D3"/>
<path d="M42.3172 39.5006C42.0495 39.8198 41.7716 40.1287 41.4885 40.4324C40.2994 41.6988 38.9765 42.8365 37.5352 43.8198C36.4234 44.5817 35.2446 45.2509 34.0092 45.8172C33.1136 46.2291 32.187 46.5894 31.2296 46.888C30.1795 47.2226 29.0934 47.4852 27.9816 47.6705L29.1567 37.3812C29.3369 35.1572 30.9877 26.8417 30.9877 26.8417C30.9877 26.8417 31.4818 27.0167 32.2694 27.3977C33.932 28.2059 36.8969 29.9459 39.203 32.9163C40.1296 34.1004 40.948 35.48 41.5348 37.0811C41.8385 37.8996 42.0959 38.7078 42.3172 39.5006Z" fill="#7772D3"/>
<path d="M20.8971 28.028C19.007 28.028 18.3486 27.1133 18.3151 27.0654C18.2343 26.9486 18.2632 26.7885 18.3805 26.7077C18.4963 26.6269 18.6554 26.6552 18.7367 26.771C18.7522 26.7911 19.6128 27.9143 22.306 27.3563C25.0599 26.7839 25.8392 25.095 25.8711 25.024C25.9287 24.8942 26.0806 24.8361 26.2103 24.8922C26.34 24.9493 26.3992 25.1002 26.3426 25.2299C26.3076 25.3112 25.4398 27.2307 22.4105 27.8597C21.8355 27.9791 21.3331 28.028 20.8971 28.028Z" fill="#7772D3"/>
</svg>
