<svg width="49" height="48" viewBox="0 0 49 48" fill="none" xmlns="http://www.w3.org/2000/svg">
<path d="M48.6 24C48.6 28.7568 47.2153 33.1943 44.8269 36.9215C44.3173 37.7194 43.7614 38.4865 43.1591 39.2175C43.0922 39.305 43.0253 39.3874 42.9532 39.4698C42.5105 39.9949 42.0421 40.5045 41.5583 40.9884C40.7758 41.7709 39.9368 42.5019 39.0463 43.166C39.0206 43.1866 38.9948 43.2021 38.9691 43.2226C38.7838 43.3668 38.5933 43.5006 38.4029 43.6345C38.1764 43.7992 37.9447 43.9537 37.708 44.1081C37.6565 44.1441 37.605 44.175 37.5484 44.2059C36.8998 44.6281 36.2255 45.0193 35.5306 45.3694C35.371 45.4517 35.2115 45.5341 35.0467 45.6113C34.3004 45.9717 33.5334 46.296 32.751 46.5792C31.7112 46.955 30.6405 47.2638 29.539 47.4903C27.9432 47.825 26.2961 48 24.6026 48C24.268 48 23.9282 47.9948 23.5937 47.9794C23.2076 47.964 22.8267 47.9382 22.4458 47.9022C22.42 47.9022 22.3994 47.897 22.3737 47.897C21.6582 47.8301 20.9479 47.7323 20.2529 47.5985C19.8514 47.5264 19.4551 47.444 19.0639 47.3513C17.9212 47.0837 16.8145 46.7336 15.7438 46.3012C14.8121 45.9356 13.9113 45.5084 13.0362 45.0244C13.0156 45.0142 13.0002 45.0039 12.9796 44.9936C12.8767 44.9369 12.7737 44.8803 12.6759 44.8185C12.3619 44.6435 12.0479 44.4582 11.7442 44.2625C11.4611 44.0875 11.1883 43.9022 10.9155 43.7117C10.4265 43.3771 9.94775 43.0167 9.48448 42.6358C9.42786 42.5946 9.37638 42.5534 9.31976 42.5071C8.66604 41.9614 8.03805 41.3848 7.44095 40.7773C7.27108 40.6075 7.10636 40.4324 6.94679 40.2574C6.56588 39.8507 6.20041 39.4234 5.86067 38.991C5.78346 38.8983 5.7114 38.8108 5.63934 38.7181C5.62904 38.7078 5.62389 38.6976 5.61874 38.6873C5.21724 38.1725 4.84149 37.6422 4.48631 37.0965C2.03098 33.3282 0.599976 28.834 0.599976 24C0.599976 10.7439 11.3479 0 24.6026 0C37.8572 0 48.6 10.7439 48.6 24Z" fill="#FDBA74"/>
<path d="M35.3593 29.0398C35.3593 29.0398 34.9207 5.31055 26.5283 4.45495C18.1359 3.59935 17.1414 9.49742 17.1414 9.49742C17.1414 9.49742 15.0495 10.2429 14.6258 13.4331C14.2022 16.6233 14.004 29.3507 14.004 29.3507L32.9549 30.4354L35.3593 29.0398Z" fill="black"/>
<path d="M44.1063 37.7501C43.8077 38.2495 43.4937 38.7385 43.1591 39.2173C43.0922 39.3048 43.0253 39.3872 42.9533 39.4695C42.5106 39.9946 42.0422 40.5043 41.5583 40.9882C40.7759 41.7707 39.9368 42.5017 39.0463 43.1658C38.614 43.4953 38.1661 43.8093 37.708 44.1079C37.6565 44.1439 37.6051 44.1748 37.5484 44.2057C36.8998 44.6278 36.2255 45.0191 35.5306 45.3692C35.3711 45.4515 35.2115 45.5339 35.0468 45.6111C34.3004 45.9715 33.5334 46.2958 32.751 46.5789C31.7112 46.9547 30.6405 47.2636 29.539 47.4901C27.9433 47.8248 26.2961 47.9998 24.6026 47.9998C24.268 47.9998 23.9283 47.9946 23.5937 47.9792C23.2076 47.9637 22.8267 47.938 22.4458 47.902C22.4201 47.902 22.3995 47.8968 22.3737 47.8968C21.6583 47.8299 20.9479 47.7321 20.253 47.5982C19.8515 47.5262 19.4551 47.4438 19.0639 47.3511C17.9212 47.0834 16.8145 46.7334 15.7438 46.3009C14.8121 45.9354 13.9113 45.5082 13.0363 45.0242C13.0157 45.0139 13.0002 45.0036 12.9796 44.9934C12.8767 44.9367 12.7737 44.8801 12.6759 44.8183C12.3619 44.6433 12.0479 44.458 11.7442 44.2623C10.1382 37.92 9.49482 32.1697 11.4817 29.8376C11.5795 29.7089 11.6979 29.5905 11.8215 29.4824C12.2899 29.0809 12.7892 28.7154 13.3091 28.3704C13.3297 28.3601 13.3451 28.3498 13.3606 28.3396C14.2253 27.7784 15.157 27.2945 16.135 26.8827C16.1453 26.8724 16.1608 26.8672 16.1659 26.8672C22.4664 24.2417 30.5891 24.6793 35.0159 26.5275C37.8624 27.7166 41.3678 32.9419 44.1063 37.7501Z" fill="#7772D3"/>
<path d="M20.7194 20.5391V26.3665C20.7194 26.3665 21.7705 28.042 25.1796 28.3189C27.7194 28.5253 28.5234 27.2215 28.5234 27.2215L27.9088 22.1219L21.753 20.7676L20.7194 20.5391Z" fill="#FCA397"/>
<path d="M20.7281 20.1836C20.7431 20.3427 20.8033 20.5305 20.8975 20.7457C22.2014 23.6566 26.7903 24.8683 28.2568 24.9995L27.9078 22.1211L20.7281 20.1836Z" fill="black"/>
<path d="M39.2371 40.8338L38.9694 43.2225C38.7841 43.3666 38.5936 43.5005 38.4031 43.6343L38.7274 40.7772C39.129 37.1838 37.3426 32.7308 37.322 32.6845C37.2705 32.5506 37.3323 32.4014 37.4662 32.3499C37.6 32.2932 37.7442 32.3602 37.8008 32.4889C37.8729 32.6793 39.6541 37.1118 39.2371 40.8338Z" fill="white"/>
<path d="M29.208 8.83778C29.208 8.83778 32.2661 16.1454 31.0601 20.2051C29.854 24.2648 26.1494 23.5657 23.9391 22.7425C21.7287 21.9199 20.7183 20.5402 20.7183 20.5402C20.7183 20.5402 18.631 21.212 17.2726 19.2594C15.9142 17.3068 16.8037 15.1029 17.9968 14.6133C19.19 14.1237 20.5865 15.0015 20.5865 15.0015L19.5143 12.8748C19.5143 12.8748 24.3297 2.22825 29.208 8.83778Z" fill="#FCA397"/>
<path d="M20.2077 18.4243C20.1372 18.4243 20.0677 18.3955 20.0167 18.3394L18.0921 16.2068C17.9969 16.1013 18.0051 15.9386 18.1106 15.8434C18.2162 15.7477 18.3793 15.7564 18.474 15.8619L20.3987 17.9945C20.4944 18.1001 20.4857 18.2627 20.3802 18.3579C20.3313 18.4027 20.2695 18.4243 20.2077 18.4243Z" fill="black"/>
<path d="M18.1334 17.8186C18.0062 17.8186 17.895 17.7239 17.8786 17.5941C17.8606 17.4531 17.9599 17.3244 18.1015 17.3059L19.4691 17.1298C19.6061 17.1129 19.7389 17.2112 19.7574 17.3522C19.7754 17.4932 19.6761 17.6219 19.5345 17.6405L18.1668 17.8165C18.1555 17.8175 18.1447 17.8186 18.1334 17.8186Z" fill="black"/>
<path d="M31.3025 11.433C31.3025 11.433 29.2893 11.0309 27.8769 11.084C26.4649 11.137 26.4649 11.137 26.4649 11.137L25.892 8.86569L25.8992 11.3434C25.8992 11.3434 24.9022 11.5143 23.9154 12.0307C22.9286 12.547 22.2739 13.1828 22.2739 13.1828L21.3376 11.2719L21.7318 13.6775L20.5876 15.0021L18.8606 13.3846L19.9663 10.0317C19.9663 10.0317 22.5724 6.39258 22.7737 6.34934C22.9749 6.3061 26.7326 6.09863 26.7326 6.09863C26.7326 6.09863 29.9657 7.36247 30.0439 7.46903C30.1217 7.57508 31.3025 11.433 31.3025 11.433Z" fill="black"/>
<path d="M25.6321 28.3961C24.1517 28.3961 22.3078 27.9967 20.3297 26.629C20.2123 26.5482 20.1835 26.3881 20.2643 26.2712C20.3446 26.1534 20.5052 26.1256 20.622 26.2059C25.0787 29.2861 28.665 27.2498 28.8147 27.1612C28.9378 27.0881 29.0948 27.1298 29.1673 27.2523C29.2394 27.3748 29.1987 27.5318 29.0767 27.6044C29.0541 27.6183 27.6967 28.3961 25.6321 28.3961Z" fill="white"/>
<path d="M22.3737 47.8968C21.6582 47.8299 20.9479 47.732 20.253 47.5982C19.8515 47.5261 19.4551 47.4438 19.0639 47.3511C17.9212 47.0834 16.8145 46.7333 15.7438 46.3009C14.8121 45.9354 13.9113 45.5081 13.0363 45.0242C13.0157 45.0139 13.0002 45.0036 12.9796 44.9933C12.8767 44.9367 12.7737 44.8801 12.6759 44.8183C12.3619 44.6432 12.0479 44.4579 11.7442 44.2623C11.4611 44.0873 11.1883 43.9019 10.9155 43.7115C10.4265 43.3768 9.94779 43.0165 9.48452 42.6355C9.42789 42.5943 9.37642 42.5532 9.31979 42.5068C8.66607 41.9611 8.03808 41.3846 7.44098 40.7771C7.27111 40.6072 7.1064 40.4322 6.94683 40.2571C6.56591 39.8505 6.20044 39.4232 5.86071 38.9907C5.78349 38.8981 5.71143 38.8106 5.63937 38.7179C5.62907 38.7076 5.62392 38.6973 5.61877 38.687C7.31229 34.4142 9.5257 31.6239 11.4817 29.8376C12.1303 29.2404 12.748 28.7617 13.3091 28.3704C13.3297 28.3601 13.3451 28.3498 13.3605 28.3395C14.8224 27.3357 15.9085 26.9496 16.135 26.8826C16.1453 26.8723 16.1608 26.8672 16.1659 26.8672C16.1762 26.8672 22.3737 47.8968 22.3737 47.8968Z" fill="#7772D3"/>
<path d="M27.9773 20.3013C27.3802 20.3013 26.624 19.6841 26.4552 19.5394C26.3728 19.4689 26.3435 19.3541 26.3816 19.2522C26.4202 19.1508 26.5221 19.0849 26.6271 19.0865L29.0027 19.1297C29.1051 19.1317 29.1973 19.194 29.2359 19.2888C29.275 19.384 29.2544 19.4926 29.1828 19.5662C29.1674 19.5816 28.806 19.9517 28.2944 20.2266C28.1986 20.2791 28.0905 20.3013 27.9773 20.3013ZM27.4682 19.6172C27.7235 19.7546 27.949 19.8272 28.0519 19.7736C28.1353 19.7289 28.2146 19.6805 28.2882 19.6321L27.4682 19.6172Z" fill="black"/>
<path d="M20.7193 20.4249C20.7193 21.0972 20.1742 21.6423 19.5019 21.6423C18.8297 21.6423 18.2845 21.0972 18.2845 20.4249C18.2845 19.7526 18.8297 19.2075 19.5019 19.2075C20.1742 19.2075 20.7193 19.7521 20.7193 20.4249Z" fill="white"/>
</svg>
