<svg width="48" height="48" viewBox="0 0 48 48" fill="none" xmlns="http://www.w3.org/2000/svg">
<path d="M48 24C48 28.7568 46.6153 33.1943 44.2269 36.9215C43.7173 37.7194 43.1614 38.4865 42.5591 39.2175C42.4922 39.305 42.4253 39.3874 42.3532 39.4698C41.9106 39.9948 41.4421 40.5045 40.9583 40.9884C40.1759 41.7709 39.3368 42.5019 38.4463 43.166C38.4206 43.1866 38.3949 43.2021 38.3691 43.2226C38.1838 43.3668 37.9934 43.5006 37.8029 43.6345C37.5764 43.7992 37.3448 43.9537 37.108 44.1081C37.0565 44.1441 37.005 44.175 36.9484 44.2059C36.2998 44.6281 35.6255 45.0193 34.9306 45.3694C34.7711 45.4517 34.6115 45.5341 34.4468 45.6113C33.7004 45.9717 32.9334 46.296 32.151 46.5791C31.1112 46.955 30.0405 47.2638 28.939 47.4903C27.3433 47.825 25.6961 48 24.0026 48C23.668 48 23.3283 47.9948 22.9937 47.9794C22.6076 47.964 22.2267 47.9382 21.8458 47.9022C21.8201 47.9022 21.7995 47.897 21.7737 47.897C21.0582 47.8301 20.3479 47.7323 19.653 47.5985C19.2515 47.5264 18.8551 47.444 18.4639 47.3514C17.3212 47.0837 16.2145 46.7336 15.1438 46.3012C14.2121 45.9356 13.3113 45.5084 12.4362 45.0245C12.4157 45.0142 12.4002 45.0039 12.3796 44.9936C12.2767 44.9369 12.1737 44.8803 12.0759 44.8185C11.7619 44.6435 11.4479 44.4582 11.1442 44.2625C10.8611 44.0875 10.5883 43.9022 10.3155 43.7117C9.82649 43.3771 9.34778 43.0167 8.88451 42.6358C8.82789 42.5946 8.77641 42.5534 8.71979 42.5071C8.06606 41.9614 7.43807 41.3848 6.84097 40.7773C6.6711 40.6075 6.50639 40.4324 6.34682 40.2574C5.96591 39.8507 5.60043 39.4234 5.2607 38.991C5.18349 38.8983 5.11143 38.8108 5.03936 38.7181C5.02907 38.7078 5.02391 38.6976 5.01877 38.6873C4.61727 38.1725 4.24151 37.6422 3.88634 37.0965C1.431 33.3282 0 28.834 0 24C0 10.7439 10.7479 0 24.0026 0C37.2573 0 48 10.7439 48 24Z" fill="#EDDDD6"/>
<path d="M30 19C30 19 34.3207 5.31067 25.9283 4.45508C17.5359 3.59948 16.5414 9.49755 16.5414 9.49755C16.5414 9.49755 14.4495 10.243 14.0259 13.4332C13.6022 16.6234 17.5 20 17.5 20L27 23L30 19Z" fill="#7772D3"/>
<path d="M43.5063 37.7503C43.2077 38.2497 42.8937 38.7388 42.5592 39.2175C42.4922 39.305 42.4253 39.3874 42.3533 39.4698C41.9106 39.9949 41.4422 40.5045 40.9583 40.9884C40.1759 41.7709 39.3369 42.502 38.4464 43.1661C38.014 43.4955 37.5661 43.8096 37.108 44.1081C37.0565 44.1442 37.0051 44.1751 36.9484 44.206C36.2999 44.6281 35.6256 45.0193 34.9306 45.3694C34.7711 45.4518 34.6115 45.5341 34.4468 45.6114C33.7004 45.9717 32.9334 46.296 32.151 46.5792C31.1112 46.955 30.0406 47.2639 28.939 47.4904C27.3433 47.825 25.6961 48 24.0026 48C23.668 48 23.3283 47.9949 22.9937 47.9794C22.6076 47.964 22.2267 47.9383 21.8458 47.9022C21.8201 47.9022 21.7995 47.8971 21.7738 47.8971C21.0583 47.8301 20.3479 47.7323 19.653 47.5985C19.2515 47.5264 18.8551 47.444 18.4639 47.3514C17.3212 47.0837 16.2145 46.7336 15.1438 46.3012C14.2121 45.9357 13.3113 45.5084 12.4363 45.0245C12.4157 45.0142 12.4002 45.0039 12.3797 44.9936C12.2767 44.937 12.1737 44.8803 12.0759 44.8186C11.7619 44.6435 11.448 44.4582 11.1443 44.2626C9.53825 37.9202 8.89483 32.1699 10.8817 29.8379C10.9795 29.7092 11.0979 29.5908 11.2215 29.4827C11.6899 29.0811 12.1892 28.7156 12.7091 28.3707C12.7297 28.3604 12.7451 28.3501 12.7606 28.3398C13.6253 27.7787 14.557 27.2948 15.535 26.8829C15.5453 26.8726 15.5608 26.8675 15.5659 26.8675C21.8664 24.242 29.9891 24.6796 34.4159 26.5277C37.2624 27.7169 40.7678 32.9421 43.5063 37.7503Z" fill="#7772D3"/>
<path d="M20.1194 20.539V26.3664C20.1194 26.3664 21.1705 28.0419 24.5796 28.3189C27.1194 28.5253 27.9234 27.2214 27.9234 27.2214L27.3088 22.1218L21.153 20.7675L20.1194 20.539Z" fill="#7772D3"/>
<path d="M20.1282 20.1838C20.1431 20.3429 20.2033 20.5308 20.2975 20.7459C21.6014 23.6568 26.1903 24.8685 27.6568 24.9998L27.3078 22.1213L20.1282 20.1838Z" fill="#7772D3"/>
<path d="M38.6371 40.8339L38.3694 43.2226C38.1841 43.3667 37.9936 43.5006 37.8031 43.6344L38.1274 40.7773C38.529 37.184 36.7426 32.7309 36.722 32.6846C36.6706 32.5508 36.7323 32.4015 36.8662 32.35C37 32.2934 37.1442 32.3603 37.2008 32.489C37.2729 32.6795 39.0541 37.1119 38.6371 40.8339Z" fill="#7772D3"/>
<path d="M28.608 8.83753C28.608 8.83753 31.6661 16.1451 30.4601 20.2048C29.254 24.2646 25.5494 23.5655 23.3391 22.7423C21.1288 21.9196 20.1183 20.54 20.1183 20.54C20.1183 20.54 18.031 21.2118 16.6726 19.2592C15.3142 17.3065 16.2037 15.1027 17.3969 14.6131C18.59 14.1235 19.9865 15.0012 19.9865 15.0012L18.9143 12.8746C18.9143 12.8746 23.7298 2.22801 28.608 8.83753Z" fill="#7772D3"/>
<path d="M19.6077 18.4245C19.5372 18.4245 19.4677 18.3956 19.4168 18.3395L17.4921 16.2069C17.3969 16.1014 17.4051 15.9388 17.5107 15.8435C17.6162 15.7478 17.7794 15.7565 17.8741 15.8621L19.7987 17.9947C19.8944 18.1002 19.8857 18.2628 19.7802 18.3581C19.7313 18.4028 19.6695 18.4245 19.6077 18.4245Z" fill="#7772D3"/>
<path d="M17.5334 17.8187C17.4062 17.8187 17.2951 17.724 17.2786 17.5943C17.2606 17.4532 17.3599 17.3245 17.5015 17.306L18.8692 17.13C19.0061 17.113 19.1389 17.2113 19.1574 17.3523C19.1754 17.4934 19.0761 17.6221 18.9345 17.6406L17.5668 17.8166C17.5555 17.8177 17.5447 17.8187 17.5334 17.8187Z" fill="#7772D3"/>
<path d="M30.7025 11.4332C30.7025 11.4332 28.6894 11.0312 27.2769 11.0842C25.8649 11.1372 25.865 11.1372 25.865 11.1372L25.292 8.86593L25.2992 11.3437C25.2992 11.3437 24.3022 11.5146 23.3154 12.0309C22.3287 12.5473 21.6739 13.183 21.6739 13.183L20.7376 11.2721L21.1319 13.6778L19.9876 15.0024L18.2606 13.3848L19.3663 10.032C19.3663 10.032 21.9724 6.39283 22.1737 6.34958C22.375 6.30634 26.1326 6.09888 26.1326 6.09888C26.1326 6.09888 29.3657 7.36271 29.444 7.46928C29.5217 7.57532 30.7025 11.4332 30.7025 11.4332Z" fill="#7772D3"/>
<path d="M25.0321 28.3962C23.5517 28.3962 21.7079 27.9967 19.7297 26.629C19.6123 26.5482 19.5835 26.3881 19.6643 26.2713C19.7446 26.1534 19.9052 26.1256 20.0221 26.2059C24.4787 29.2862 28.065 27.2498 28.2148 27.1613C28.3378 27.0882 28.4948 27.1299 28.5674 27.2524C28.6394 27.3749 28.5987 27.5319 28.4767 27.6045C28.4541 27.6184 27.0967 28.3962 25.0321 28.3962Z" fill="#7772D3"/>
<path d="M21.7738 47.897C21.0583 47.8301 20.3479 47.7323 19.653 47.5984C19.2515 47.5264 18.8551 47.444 18.4639 47.3513C17.3212 47.0836 16.2145 46.7336 15.1438 46.3012C14.2122 45.9356 13.3113 45.5084 12.4363 45.0244C12.4157 45.0141 12.4003 45.0039 12.3797 44.9936C12.2767 44.9369 12.1738 44.8803 12.0759 44.8185C11.762 44.6435 11.448 44.4582 11.1443 44.2625C10.8612 44.0875 10.5883 43.9022 10.3155 43.7117C9.82652 43.3771 9.34781 43.0167 8.88454 42.6358C8.82792 42.5946 8.77644 42.5534 8.71981 42.5071C8.06609 41.9614 7.4381 41.3848 6.841 40.7773C6.67113 40.6075 6.50642 40.4324 6.34685 40.2574C5.96594 39.8507 5.60046 39.4234 5.26073 38.991C5.18351 38.8983 5.11145 38.8108 5.03939 38.7181C5.02909 38.7078 5.02394 38.6975 5.0188 38.6873C6.71231 34.4144 8.92572 31.6242 10.8818 29.8378C11.5303 29.2407 12.148 28.7619 12.7091 28.3706C12.7297 28.3604 12.7451 28.3501 12.7606 28.3398C14.2224 27.3359 15.3085 26.9498 15.535 26.8829C15.5453 26.8726 15.5608 26.8674 15.5659 26.8674C15.5762 26.8674 21.7738 47.897 21.7738 47.897Z" fill="#7772D3"/>
<path d="M27.3773 20.301C26.7802 20.301 26.024 19.6838 25.8552 19.5392C25.7729 19.4687 25.7435 19.3539 25.7816 19.252C25.8202 19.1506 25.9221 19.0847 26.0271 19.0862L28.4027 19.1294C28.5051 19.1315 28.5973 19.1938 28.6359 19.2885C28.675 19.3837 28.6544 19.4923 28.5829 19.566C28.5674 19.5814 28.2061 19.9515 27.6944 20.2264C27.5987 20.2789 27.4906 20.301 27.3773 20.301ZM26.8682 19.6169C27.1235 19.7544 27.349 19.8269 27.4519 19.7734C27.5353 19.7286 27.6146 19.6802 27.6882 19.6318L26.8682 19.6169Z" fill="#7772D3"/>
</svg>
