<svg width="48" height="48" viewBox="0 0 48 48" fill="none" xmlns="http://www.w3.org/2000/svg">
<path d="M48 24.0026C48 28.0639 46.9911 31.8833 45.2101 35.2343C44.4637 36.6447 43.5835 37.9676 42.5797 39.1927C41.962 39.9494 41.298 40.6649 40.5928 41.3392C40.0626 41.8488 39.5067 42.3326 38.9302 42.7908C38.2404 43.3415 37.5198 43.8563 36.7682 44.3196C36.4903 44.4997 36.2072 44.6696 35.9189 44.8343C32.4084 46.847 28.3419 48 24.0026 48C23.1018 48 22.2113 47.9485 21.3413 47.8507C20.8163 47.7941 20.2964 47.722 19.7817 47.6294C18.6955 47.4389 17.6352 47.1712 16.6057 46.8315C16.3843 46.7595 16.163 46.6874 15.9468 46.605C13.0333 45.5755 10.3824 43.9953 8.11238 41.9826C7.16525 41.1487 6.28503 40.2376 5.48203 39.2648C2.05383 35.1211 0 29.7986 0 24.0026C0 10.7479 10.7479 0 24.0026 0C37.2521 0 48 10.7479 48 24.0026Z" fill="#EDDDD6"/>
<path d="M24.5621 8.133C24.5621 8.133 19.828 7.4242 16.4364 9.55061C13.0442 11.677 14.5802 17.3361 14.5802 17.3361C14.5802 17.3361 9.14602 21.5915 8.85056 26.2623C8.55509 30.9331 12.8079 32.6457 12.8079 32.6457L24.0139 30.9326L24.5621 8.133Z" fill="#7772D3"/>
<path d="M45.2101 35.2343C44.4637 36.6447 43.5835 37.9676 42.5798 39.1927C41.9621 39.9494 41.298 40.6649 40.5928 41.3392C40.0627 41.8488 39.5067 42.3327 38.9302 42.7908C38.2405 43.3416 37.5198 43.8563 36.7683 44.3196L34.7968 27.4411C34.7968 27.4411 36.7528 27.8529 41.2775 31.7804C43.2489 33.4894 44.4637 34.56 45.2101 35.2343Z" fill="#7772D3"/>
<path d="M38.9302 42.7908C38.2404 43.3415 37.5198 43.8563 36.7683 44.3196C36.4903 44.4997 36.2072 44.6696 35.9189 44.8343C32.4084 46.847 28.3419 48 24.0026 48C23.1018 48 22.2113 47.9485 21.3413 47.8507C20.8163 47.7941 20.2964 47.722 19.7817 47.6294C18.6956 47.4389 17.6352 47.1713 16.6057 46.8315C16.3843 46.7595 16.163 46.6874 15.9468 46.605C15.7564 38.1014 15.7049 29.5979 16.2093 28.8824C17.0226 27.7242 19.8177 26.5403 22.9782 26.0616C23.8018 25.9329 24.646 25.8505 25.4902 25.8351C29.5773 25.7476 34.7968 27.4411 34.7968 27.4411L38.9302 42.7908Z" fill="#7772D3"/>
<path d="M24.0129 35.8212L21.3414 47.8508C20.8163 47.7941 20.2964 47.7221 19.7817 47.6294C18.6956 47.4389 17.6352 47.1713 16.6057 46.8316C16.3844 46.7595 16.163 46.6874 15.9468 46.6051C13.0334 45.5756 10.3824 43.9953 8.1124 41.9827C7.16527 41.1488 6.28506 40.2377 5.48206 39.2648C12.4208 26.18 22.9525 25.83 22.9525 25.83L22.9782 26.0616L24.0129 35.8212Z" fill="#7772D3"/>
<path d="M22.9268 26.4816C22.9268 26.4816 24.8823 29.3529 27.1662 31.0809C29.4501 32.8084 30.4935 33.0127 30.4935 33.0127L30.3478 27.4411L22.9268 26.4816Z" fill="#7772D3"/>
<path d="M23.0395 20.7422L22.9443 26.2623C22.9443 26.2623 23.9125 27.8663 27.1374 28.1844C29.5397 28.4212 30.3942 27.892 30.3942 27.892L30.1069 25.0902L29.8233 22.358L24.0139 20.9749L23.0395 20.7422Z" fill="#7772D3"/>
<path d="M24.0139 20.9754C24.0252 21.1262 24.0793 21.3053 24.1652 21.5107C25.3528 24.2893 28.7197 24.9425 30.1069 25.0908L29.8233 22.3585L24.0139 20.9754Z" fill="#7772D3"/>
<path d="M31.2713 9.79663C31.2713 9.79663 34.0493 16.7678 32.8407 20.5939C31.6321 24.4195 28.1344 23.6968 26.0538 22.8815C23.9732 22.0661 23.0384 20.7432 23.0384 20.7432C23.0384 20.7432 21.0505 21.3454 19.795 19.4738C18.5395 17.6022 19.4182 15.5293 20.5568 15.0846C21.6954 14.6404 23.0039 15.4943 23.0039 15.4943L22.0228 13.4626C22.0228 13.4626 26.7575 3.45651 31.2713 9.79663Z" fill="#7772D3"/>
<path d="M22.7522 18.5093C22.6987 18.5093 22.6452 18.4928 22.5988 18.4578L20.1425 16.6263C20.0287 16.5414 20.0051 16.3803 20.09 16.2665C20.1754 16.1522 20.3365 16.1286 20.4503 16.214L22.9067 18.0455C23.0204 18.1304 23.0441 18.2915 22.9592 18.4053C22.9082 18.4737 22.8305 18.5093 22.7522 18.5093Z" fill="#7772D3"/>
<path d="M20.4858 18.4392C20.3695 18.4392 20.264 18.36 20.2356 18.2416C20.2027 18.1031 20.2881 17.9646 20.4261 17.9312L22.0712 17.5379C22.2097 17.5039 22.3487 17.5904 22.3811 17.7284C22.414 17.8663 22.3286 18.0053 22.1906 18.0388L20.5455 18.432C20.5254 18.4372 20.5054 18.4392 20.4858 18.4392Z" fill="#7772D3"/>
<path d="M23.004 15.6576L24.0139 16.9928C24.0139 16.9928 26.1692 14.0047 26.163 12.3395C26.1568 10.6743 26.163 10.0952 26.163 10.0952C26.163 10.0952 28.327 10.8849 30.107 10.8324C31.8864 10.7799 33.0091 9.8317 32.8907 8.98958C32.7723 8.14694 31.7212 5.56704 26.163 6.40968C20.6048 7.25232 20.5003 13.7432 23.004 15.6576Z" fill="#7772D3"/>
<path d="M33.1454 33.9192C32.8942 33.9042 27.3149 33.4842 22.728 26.4023C22.6508 26.2829 22.6848 26.1239 22.8037 26.0466C22.9231 25.9705 23.0822 26.0034 23.1594 26.1228C27.5965 32.9731 33.1058 33.4013 33.1609 33.4044C33.3024 33.4137 33.4105 33.5357 33.4013 33.6772C33.393 33.8141 33.2803 33.9192 33.1454 33.9192Z" fill="#7772D3"/>
<path d="M30.4935 33.2696C30.3545 33.2696 30.2398 33.1589 30.2362 33.0189L30.0905 27.4478C30.0869 27.3062 30.1991 27.1879 30.3412 27.1837C30.475 27.1781 30.6016 27.2923 30.6052 27.4344L30.7509 33.0055C30.7545 33.1471 30.6423 33.2654 30.5002 33.2696C30.4982 33.2696 30.4961 33.2696 30.4935 33.2696Z" fill="#7772D3"/>
<path d="M30.1512 19.6633C29.6406 19.6633 29.0218 19.2165 28.8144 19.0543C28.7022 18.9668 28.6826 18.8052 28.7701 18.693C28.8576 18.5813 29.0187 18.5602 29.1315 18.6482C29.517 18.9488 30.0652 19.2206 30.2263 19.1352C30.3514 19.0682 30.5074 19.1151 30.5748 19.2397C30.6422 19.3647 30.5954 19.5212 30.4698 19.5887C30.373 19.6412 30.2644 19.6633 30.1512 19.6633Z" fill="#7772D3"/>
</svg>
