<svg width="48" height="48" viewBox="0 0 48 48" fill="none" xmlns="http://www.w3.org/2000/svg">
<path d="M48 24C48 26.1313 47.722 28.2008 47.1969 30.1673C45.9717 34.7851 43.408 38.8571 39.9382 41.9356C39.7117 42.1416 39.4749 42.3423 39.2381 42.538C38.3732 43.2587 37.4517 43.9125 36.4839 44.4994C36.0618 44.7568 35.6345 45.0039 35.1969 45.2355C35.0734 45.3024 34.9498 45.3642 34.8211 45.426C31.5727 47.0734 27.8919 48 24 48C22.6718 48 21.3694 47.8919 20.0978 47.6808C19.1866 47.5367 18.296 47.3359 17.4208 47.0888C14.5225 46.2651 11.8507 44.9112 9.51351 43.1403C8.95238 42.713 8.41184 42.26 7.88674 41.7864C7.00643 40.9936 6.18275 40.1287 5.43114 39.2124C5.17374 38.8983 4.92149 38.574 4.68468 38.2445C1.74002 34.26 0 29.3333 0 24C0 10.7439 10.7439 0 24 0C37.2561 0 48 10.7439 48 24Z" fill="#EDDDD6"/>
<path d="M39.238 42.5379C38.3731 43.2586 37.4516 43.9124 36.4838 44.4993C36.0617 44.7567 35.6344 45.0038 35.1968 45.2355C35.0732 45.3024 34.9497 45.3642 34.821 45.4259C31.5726 47.0733 27.8918 48 23.9999 48C22.6717 48 21.3693 47.8918 20.0977 47.6808C19.1865 47.5366 18.2959 47.3359 17.4207 47.0888C14.5224 46.2651 11.8506 44.9112 9.5134 43.1402C8.95227 42.713 8.41173 42.2599 7.88663 41.7863C7.00632 40.9935 6.18264 40.1287 5.43103 39.2123C5.17363 38.8983 4.92138 38.574 4.68457 38.2445C6.28045 35.7992 8.97286 32.6795 12.9986 31.063C14.1157 30.6203 15.3152 30.2908 16.6228 30.1209C16.7 30.1106 16.7721 30.1003 16.8493 30.0952C16.9677 30.0797 17.0861 30.0695 17.1994 30.0592C17.2097 30.054 17.2148 30.054 17.2251 30.054C17.3281 30.0437 17.4259 30.0386 17.5237 30.0334C17.6781 30.0231 17.8274 30.0128 17.9613 30.0077C18.2856 29.9819 18.6151 29.9562 18.9291 29.9459C27.866 29.601 32.6228 33.148 32.9008 33.359C32.9265 33.3745 32.942 33.3951 32.9574 33.4157C33.0449 33.5135 33.2611 33.7451 33.5752 34.1106C34.7438 35.4594 37.2303 38.5534 39.238 42.5379Z" fill="#7772D3"/>
<path d="M20.578 17.8605C20.578 17.8605 22.6022 17.3601 23.551 16.1951C24.4998 15.0301 24.6563 12.1478 24.6563 12.1478C24.6563 12.1478 28.3222 14.0546 29.2853 13.843C30.2491 13.6309 32.1373 9.31482 30.8653 7.45072C29.5932 5.58612 27.0192 7.89448 27.0192 7.89448C27.0192 7.89448 26.491 5.23091 23.6766 5.85227C20.3731 6.58174 19.5186 9.93618 19.5186 9.93618C19.5186 9.93618 19.2967 6.29603 16.9986 7.89397C14.7 9.49191 15.5278 13.6649 15.5278 13.6649C15.5278 13.6649 13.6889 14.4623 14.057 16.1946C14.4246 17.9264 16.907 19.5938 16.907 19.5938L20.578 17.8605Z" fill="#7772D3"/>
<path d="M20.2501 23.0857L19.7683 28.5739C19.7683 28.5739 20.6547 30.2355 23.9563 30.7688C26.4158 31.1656 27.3336 30.6962 27.3336 30.6962L27.2321 27.8883L27.1297 25.1498L21.2385 23.3832L20.2501 23.0857Z" fill="#7772D3"/>
<path d="M21.2386 23.3832C21.2396 23.5341 21.2834 23.7158 21.3575 23.9263C22.3885 26.7718 25.8131 27.6474 27.2328 27.8883L27.1304 25.1498L21.2386 23.3832Z" fill="#7772D3"/>
<path d="M29.4954 12.7429C29.4954 12.7429 31.8743 19.8687 30.3628 23.5964C28.8514 27.3236 25.2962 26.3691 23.2081 25.4178C21.1206 24.4664 20.2491 23.0868 20.2491 23.0868C20.2491 23.0868 18.158 23.5527 16.9945 21.6057C15.8305 19.6587 16.8802 17.6536 18.0843 17.288C19.2885 16.922 20.578 17.8605 20.578 17.8605L19.708 15.7725C19.708 15.7725 25.2838 6.12871 29.4954 12.7429Z" fill="#7772D3"/>
<path d="M20.1268 20.845C20.0691 20.845 20.011 20.8254 19.9631 20.7858L17.5587 18.7984C17.4491 18.7078 17.4337 18.5456 17.5242 18.436C17.6143 18.3264 17.7765 18.3104 17.8866 18.4015L20.291 20.3889C20.4006 20.4795 20.4161 20.6417 20.3255 20.7513C20.2745 20.8131 20.2009 20.845 20.1268 20.845Z" fill="#7772D3"/>
<path d="M27.0159 22.6933C26.8975 22.6933 25.4979 22.665 24.9976 21.356C24.9466 21.2232 25.013 21.0744 25.1459 21.0234C25.2776 20.9725 25.4274 21.0389 25.4784 21.1717C25.8603 22.1708 26.9727 22.1718 27.0175 22.178C27.1601 22.178 27.2754 22.2923 27.2764 22.4333C27.2774 22.5754 27.1642 22.6912 27.0221 22.6928C27.0206 22.6933 27.0185 22.6933 27.0159 22.6933Z" fill="#7772D3"/>
<path d="M20.5781 17.8605C20.5781 17.8605 22.749 17.4831 23.551 15.7071C24.3531 13.9315 24.2352 12.3331 24.2352 12.3331C24.2352 12.3331 25.3312 13.5341 27.2324 13.3333C29.1335 13.132 29.6555 11.1789 29.6555 11.1789L27.9135 9.13666C27.9135 9.13666 20.7557 10.6471 20.5781 10.4247C20.4005 10.2023 17.7961 14.8453 17.7961 14.8453L20.5781 17.8605Z" fill="#7772D3"/>
<path d="M34.821 45.4259C31.5727 47.0733 27.8918 47.9999 23.9999 47.9999C22.6718 47.9999 21.3693 47.8918 20.0978 47.6808C19.1866 47.5366 18.296 47.3359 17.4208 47.0888C14.5225 46.2651 11.8507 44.9111 9.51346 43.1402C10.5173 37.0296 11.5778 31.9691 12.4015 31.4079C12.5868 31.2844 12.7876 31.166 12.9987 31.063C14.1003 30.5225 15.4748 30.2548 16.6229 30.1209C16.7001 30.1106 16.7721 30.1003 16.8494 30.0952C16.9678 30.0797 17.0862 30.0694 17.1994 30.0592C17.3075 30.0489 17.4208 30.0437 17.5238 30.0334C17.6782 30.0231 17.8275 30.0128 17.9613 30.0077C18.5482 29.9768 18.924 29.9819 18.924 29.9819C18.924 29.9819 18.924 29.9716 18.9292 29.9459C18.9549 29.6061 19.1866 26.9498 19.9073 27.0064C20.6743 27.0733 22.5328 28.35 24.4993 28.5096C26.4658 28.6692 27.5212 28.4942 27.9124 28.4942C28.3088 28.4942 28.3912 30.5997 28.3912 30.5997C28.3912 30.5997 31.027 31.4954 32.9008 33.359C32.9266 33.3745 32.942 33.3951 32.9575 33.4156C33.045 33.5135 33.2612 33.7451 33.5752 34.1106C33.812 34.4092 34.018 34.7232 34.193 35.063C34.7438 36.1338 34.8777 40.386 34.821 45.4259Z" fill="#7772D3"/>
<path d="M23.0929 31.1128C21.2733 31.1128 18.9512 30.2656 18.8359 30.2234C18.7026 30.1739 18.6342 30.0262 18.6836 29.8929C18.733 29.7596 18.8807 29.6916 19.014 29.7405C19.046 29.7519 22.2183 30.9085 23.8979 30.5188C24.0364 30.4859 24.1744 30.5724 24.2068 30.7113C24.2392 30.8498 24.1533 30.9883 24.0148 31.0202C23.7343 31.085 23.4218 31.1128 23.0929 31.1128Z" fill="#7772D3"/>
<path d="M17.7961 20.7962C17.704 20.7962 17.6149 20.7468 17.5691 20.6604C17.5022 20.5348 17.5495 20.3788 17.6746 20.3119L19.0547 19.5742C19.1797 19.5073 19.3362 19.5542 19.4031 19.6798C19.4701 19.8054 19.4227 19.9613 19.2976 20.0282L17.9176 20.7659C17.879 20.7865 17.8373 20.7962 17.7961 20.7962Z" fill="#7772D3"/>
</svg>
