<svg width="48" height="48" viewBox="0 0 48 48" fill="none" xmlns="http://www.w3.org/2000/svg">
<path d="M48 24C48 26.1313 47.722 28.2008 47.1969 30.1673C45.9717 34.7851 43.408 38.8571 39.9382 41.9356C39.7117 42.1416 39.4749 42.3423 39.2381 42.538C38.3732 43.2587 37.4517 43.9125 36.4839 44.4994C36.0618 44.7568 35.6345 45.0039 35.1969 45.2355C35.0734 45.3024 34.9498 45.3642 34.8211 45.426C31.5727 47.0734 27.8919 48 24 48C22.6718 48 21.3694 47.8919 20.0978 47.6808C19.1866 47.5367 18.296 47.3359 17.4208 47.0888C14.5225 46.2651 11.8507 44.9112 9.51351 43.1403C8.95238 42.713 8.41184 42.26 7.88674 41.7864C7.00643 40.9936 6.18275 40.1287 5.43114 39.2124C5.17374 38.8983 4.92149 38.574 4.68468 38.2445C1.74002 34.26 0 29.3333 0 24C0 10.7439 10.7439 0 24 0C37.2561 0 48 10.7439 48 24Z" fill="#FDBA74"/>
<path d="M39.238 42.538C38.3731 43.2587 37.4516 43.9125 36.4838 44.4994C36.0617 44.7568 35.6344 45.0039 35.1968 45.2355C35.0732 45.3025 34.9497 45.3642 34.821 45.426C31.5726 47.0734 27.8918 48 23.9999 48C22.6717 48 21.3693 47.8919 20.0977 47.6808C19.1865 47.5367 18.2959 47.3359 17.4207 47.0888C14.5224 46.2651 11.8506 44.9112 9.5134 43.1403C8.95227 42.713 8.41173 42.26 7.88663 41.7864C7.00632 40.9936 6.18264 40.1287 5.43103 39.2124C5.17363 38.8983 4.92138 38.574 4.68457 38.2445C6.28045 35.7992 8.97286 32.6796 12.9986 31.0631C14.1157 30.6203 15.3152 30.2909 16.6228 30.121C16.7 30.1107 16.7721 30.1004 16.8493 30.0953C16.9677 30.0798 17.0861 30.0695 17.1994 30.0592C17.2097 30.0541 17.2148 30.0541 17.2251 30.0541C17.3281 30.0438 17.4259 30.0386 17.5237 30.0335C17.6781 30.0232 17.8274 30.0129 17.9613 30.0077C18.2856 29.982 18.6151 29.9563 18.9291 29.946C27.866 29.601 32.6228 33.148 32.9008 33.3591C32.9265 33.3745 32.942 33.3951 32.9574 33.4157C33.0449 33.5135 33.2611 33.7452 33.5752 34.1107C34.7438 35.4595 37.2303 38.5534 39.238 42.538Z" fill="#46467F"/>
<path d="M20.578 17.8605C20.578 17.8605 22.6022 17.3601 23.551 16.1951C24.4997 15.0301 24.6562 12.1478 24.6562 12.1478C24.6562 12.1478 28.3221 14.0546 29.2853 13.843C30.249 13.6309 32.1373 9.31482 30.8652 7.45072C29.5932 5.58612 27.0192 7.89448 27.0192 7.89448C27.0192 7.89448 26.491 5.23091 23.6766 5.85227C20.3731 6.58174 19.5185 9.93618 19.5185 9.93618C19.5185 9.93618 19.2967 6.29603 16.9986 7.89397C14.7 9.49191 15.5278 13.6649 15.5278 13.6649C15.5278 13.6649 13.6889 14.4623 14.057 16.1946C14.4246 17.9264 16.9069 19.5938 16.9069 19.5938L20.578 17.8605Z" fill="#E56445"/>
<path d="M20.2501 23.0859L19.7683 28.5741C19.7683 28.5741 20.6547 30.2357 23.9563 30.769C26.4157 31.1659 27.3335 30.6964 27.3335 30.6964L27.2321 27.8885L27.1297 25.1501L21.2384 23.3835L20.2501 23.0859Z" fill="#FCA397"/>
<path d="M21.2386 23.3833C21.2397 23.5341 21.2834 23.7158 21.3576 23.9264C22.3886 26.7719 25.8132 27.6475 27.2329 27.8884L27.1304 25.1499L21.2386 23.3833Z" fill="black"/>
<path d="M29.4954 12.7427C29.4954 12.7427 31.8743 19.8686 30.3628 23.5962C28.8513 27.3234 25.2961 26.3689 23.2081 25.4176C21.1206 24.4662 20.249 23.0866 20.249 23.0866C20.249 23.0866 18.1579 23.5525 16.9945 21.6055C15.8305 19.6585 16.8802 17.6534 18.0843 17.2879C19.2884 16.9218 20.578 17.8603 20.578 17.8603L19.708 15.7723C19.708 15.7723 25.2838 6.12853 29.4954 12.7427Z" fill="#FCA397"/>
<path d="M20.1268 20.845C20.0691 20.845 20.011 20.8254 19.9631 20.7858L17.5587 18.7984C17.4491 18.7078 17.4336 18.5456 17.5242 18.436C17.6143 18.3264 17.7764 18.3104 17.8866 18.4015L20.291 20.3889C20.4006 20.4795 20.4161 20.6417 20.3255 20.7513C20.2745 20.8131 20.2009 20.845 20.1268 20.845Z" fill="black"/>
<path d="M27.0159 22.6933C26.8976 22.6933 25.498 22.665 24.9976 21.356C24.9467 21.2232 25.0131 21.0745 25.1459 21.0235C25.2776 20.9725 25.4274 21.0389 25.4784 21.1718C25.8603 22.1709 26.9727 22.1719 27.0175 22.1781C27.1601 22.1781 27.2754 22.2924 27.2764 22.4334C27.2774 22.5755 27.1642 22.6913 27.0221 22.6928C27.0206 22.6933 27.0185 22.6933 27.0159 22.6933Z" fill="black"/>
<path d="M20.5781 17.8605C20.5781 17.8605 22.749 17.4832 23.5511 15.7071C24.3532 13.9316 24.2353 12.3331 24.2353 12.3331C24.2353 12.3331 25.3313 13.5341 27.2324 13.3334C29.1336 13.1321 29.6556 11.1789 29.6556 11.1789L27.9135 9.13672C27.9135 9.13672 20.7557 10.6471 20.5781 10.4247C20.4005 10.2024 17.7961 14.8453 17.7961 14.8453L20.5781 17.8605Z" fill="#E56445"/>
<path d="M34.821 45.4258C31.5726 47.0732 27.8918 47.9998 23.9999 47.9998C22.6717 47.9998 21.3693 47.8917 20.0977 47.6807C19.1865 47.5365 18.2959 47.3357 17.4208 47.0886C14.5224 46.2649 11.8506 44.911 9.51343 43.1401C10.5173 37.0294 11.5778 31.9689 12.4015 31.4078C12.5868 31.2843 12.7876 31.1659 12.9986 31.0629C14.1003 30.5223 15.4748 30.2547 16.6228 30.1208C16.7 30.1105 16.7721 30.1002 16.8493 30.0951C16.9677 30.0796 17.0861 30.0693 17.1994 30.059C17.3075 30.0487 17.4208 30.0436 17.5237 30.0333C17.6782 30.023 17.8275 30.0127 17.9613 30.0076C18.5482 29.9767 18.924 29.9818 18.924 29.9818C18.924 29.9818 18.924 29.9715 18.9291 29.9458C18.9549 29.606 19.1865 26.9496 19.9073 27.0063C20.6743 27.0732 22.5327 28.3499 24.4993 28.5095C26.4658 28.6691 27.5211 28.494 27.9124 28.494C28.3088 28.494 28.3912 30.5996 28.3912 30.5996C28.3912 30.5996 31.0269 31.4953 32.9008 33.3589C32.9266 33.3743 32.942 33.3949 32.9574 33.4155C33.045 33.5133 33.2612 33.745 33.5752 34.1105C33.812 34.4091 34.0179 34.7231 34.193 35.0629C34.7438 36.1337 34.8776 40.3859 34.821 45.4258Z" fill="#46467F"/>
<path d="M23.0929 31.1128C21.2732 31.1128 18.9512 30.2655 18.8359 30.2233C18.7026 30.1739 18.6341 30.0262 18.6835 29.8928C18.733 29.7595 18.8807 29.6916 19.014 29.7405C19.0459 29.7518 22.2183 30.9084 23.8979 30.5188C24.0364 30.4858 24.1743 30.5723 24.2068 30.7113C24.2392 30.8497 24.1532 30.9882 24.0148 31.0201C23.7342 31.085 23.4218 31.1128 23.0929 31.1128Z" fill="#FFBF69"/>
<path d="M17.7961 20.7964C17.7039 20.7964 17.6149 20.747 17.5691 20.6605C17.5022 20.5349 17.5495 20.379 17.6746 20.3121L19.0546 19.5744C19.1797 19.5075 19.3362 19.5543 19.4031 19.6799C19.47 19.8055 19.4227 19.9615 19.2976 20.0284L17.9176 20.7661C17.8789 20.7866 17.8373 20.7964 17.7961 20.7964Z" fill="black"/>
</svg>
