<svg width="48" height="48" viewBox="0 0 48 48" fill="none" xmlns="http://www.w3.org/2000/svg">
<path d="M48 24C48 28.3089 46.8624 32.3552 44.8704 35.8558C44.2938 36.87 43.6453 37.8378 42.9246 38.7542C41.9106 40.0618 40.7575 41.2561 39.4913 42.3269C38.7809 42.9292 38.0294 43.4955 37.247 44.0154C36.5881 44.453 35.9086 44.8545 35.2034 45.2303C35.049 45.3127 34.8946 45.3899 34.735 45.4671C33.7519 45.9665 32.7275 46.3938 31.6723 46.749C29.2633 47.5572 26.6844 48 24.0026 48C19.4522 48 15.1953 46.7336 11.5715 44.5302C11.4119 44.4376 11.2523 44.3346 11.0928 44.2316C11.0516 44.211 11.0156 44.1853 10.9744 44.1596C9.45587 43.1763 8.05578 42.0283 6.7998 40.7361C6.56816 40.4942 6.33653 40.2471 6.11004 39.9948C5.84752 39.7065 5.59529 39.408 5.34821 39.1042C4.63786 38.2291 3.98929 37.3024 3.40763 36.3346C1.2457 32.7258 0 28.5096 0 24C0 10.7439 10.7479 0 24.0026 0C37.2521 0 48 10.7439 48 24Z" fill="#EDDDD6"/>
<path d="M42.9246 38.7541C41.9106 40.0617 40.7575 41.2561 39.4913 42.3269C38.7809 42.9292 38.0294 43.4955 37.247 44.0154C35.5277 45.1531 33.6592 46.0798 31.6723 46.749C29.2633 47.5572 26.6844 48 24.0026 48C19.2 48 14.7269 46.5894 10.9744 44.1595C9.45588 43.1763 8.05578 42.0283 6.7998 40.7361C6.92334 39.897 7.08805 38.9137 7.30425 37.8635C7.41234 37.3487 7.53074 36.8133 7.66457 36.2677C8.0146 34.8726 8.45213 33.4157 9.0132 32.0154C9.20881 31.5315 9.41985 31.0527 9.64119 30.5894C11.1031 27.5675 13.2238 25.1068 16.2711 24.695C16.3895 24.6795 16.513 24.6641 16.6314 24.6486C24.0901 23.7065 31.7855 24.9781 33.6644 25.3282C33.9475 25.3796 34.0967 25.4105 34.0967 25.4105C34.0967 25.4105 37.0359 27.0682 39.7178 31.2741C39.9854 31.6962 40.2531 32.1493 40.5156 32.6229C41.1642 33.8069 41.7819 35.1608 42.3018 36.6898C42.4717 37.1686 42.6261 37.6576 42.7651 38.1724C42.8217 38.3629 42.8732 38.5585 42.9246 38.7541Z" fill="#7772D3"/>
<path d="M26.4605 21.5995C26.4605 21.5995 29.5768 21.7385 31.3717 17.3884C33.1666 13.0384 30.9208 9.63556 30.9208 9.63556L27.0087 11.6845L24.8828 19.4543L26.4605 21.5995Z" fill="#7772D3"/>
<path d="M37.247 44.0154C35.5277 45.1531 33.6592 46.0798 31.6723 46.749C29.2633 47.5573 26.6844 48 24.0026 48C19.2 48 14.7269 46.5894 10.9744 44.1596C10.9744 36.9266 11.1854 28.7001 12.1377 27.0373C12.7657 25.9357 14.5673 25.1738 16.6314 24.6487C20.3685 23.6963 24.9497 23.5161 24.9497 23.5161C24.9497 23.5161 29.9994 23.3462 33.6643 25.3282C34.2666 25.6525 34.8328 26.0386 35.3321 26.4916C37.1595 28.1493 37.422 36.417 37.247 44.0154Z" fill="#7772D3"/>
<path d="M26.3498 19.7195L26.7838 24.8412C26.7838 24.8412 25.9849 26.3918 23.0096 26.8891C20.7932 27.2598 19.9665 26.8217 19.9665 26.8217L20.0576 24.2013L20.1502 21.6459L25.4593 19.997L26.3498 19.7195Z" fill="#7772D3"/>
<path d="M25.4588 19.9969C25.4578 20.1379 25.4187 20.3073 25.3517 20.5034C24.4226 23.1585 21.3367 23.9759 20.0571 24.2003L20.1497 21.6451L25.4588 19.9969Z" fill="#7772D3"/>
<path d="M18.0187 10.068C18.0187 10.068 15.8753 16.7177 17.2373 20.1957C18.5993 23.6737 21.8031 22.7831 23.684 21.8955C25.5654 21.008 26.3503 19.7205 26.3503 19.7205C26.3503 19.7205 28.2343 20.1555 29.2834 18.3388C30.3319 16.5221 29.3863 14.6513 28.3012 14.3094C27.2161 13.9681 26.0544 14.8433 26.0544 14.8433L26.8383 12.8948C26.8383 12.8948 21.8139 3.89657 18.0187 10.068Z" fill="#7772D3"/>
<path d="M26.4605 17.6456C26.3879 17.6456 26.3159 17.6152 26.2649 17.5555C26.1722 17.4474 26.1851 17.2853 26.2932 17.1926L28.4598 15.338C28.5684 15.2464 28.7305 15.2577 28.8227 15.3663C28.9153 15.4744 28.9024 15.6365 28.7943 15.7292L26.6278 17.5838C26.5789 17.6255 26.5197 17.6456 26.4605 17.6456Z" fill="#7772D3"/>
<path d="M28.5617 17.4393C28.5473 17.4393 28.5329 17.4383 28.5184 17.4357L26.9655 17.1732C26.8249 17.1495 26.7307 17.0167 26.7544 16.8762C26.7781 16.7357 26.914 16.6461 27.0509 16.6651L28.6039 16.9277C28.7439 16.9513 28.8386 17.0841 28.8149 17.2247C28.7938 17.3503 28.6847 17.4393 28.5617 17.4393Z" fill="#7772D3"/>
<path d="M20.9893 19.676C20.5167 19.676 20.1029 19.3265 20.0818 19.3085C20.0215 19.256 19.9881 19.1788 19.9927 19.099C19.9973 19.0192 20.0385 18.9456 20.1049 18.9008L21.7104 17.8075C21.7928 17.7509 21.9004 17.7478 21.9868 17.7987C22.0728 17.8502 22.1217 17.9465 22.1109 18.0458C22.0224 18.9111 21.7547 19.4392 21.3141 19.6147C21.2055 19.658 21.0958 19.676 20.9893 19.676ZM20.7231 19.1021C20.8539 19.1561 21.0016 19.186 21.1241 19.1365C21.2806 19.0732 21.4067 18.8802 21.4937 18.5775L20.7231 19.1021Z" fill="#7772D3"/>
<path d="M26.0538 14.8432L25.4588 15.5336L25.7563 14.539C25.7563 14.539 24.3547 14.5297 22.5196 13.3699C20.685 12.21 20.249 9.39303 20.249 9.39303C20.249 9.39303 19.4538 9.76523 18.5849 10.4422C17.716 11.1192 17.5317 11.844 17.5317 11.844C17.5317 11.844 15.2323 5.4718 20.057 4.64297C24.8817 3.81465 28.3058 7.90474 28.3058 7.90474C28.3058 7.90474 31.0669 8.28827 31.3434 10.9946C31.6193 13.7009 29.7286 15.7997 29.7286 15.7997C29.7286 15.7997 28.4958 13.5552 26.0538 14.8432Z" fill="#7772D3"/>
<path d="M19.9664 26.8214L19.6777 29.1244C19.6777 29.1244 26.0368 26.4616 26.4605 25.2664C26.8846 24.0711 20.2501 25.935 20.2501 25.935L19.9664 26.8214Z" fill="#7772D3"/>
<path d="M19.6777 29.3817C19.6262 29.3817 19.5758 29.3668 19.5325 29.3369C19.4574 29.2855 19.4152 29.199 19.4208 29.1094L19.6664 24.9673C19.6746 24.8257 19.794 24.7135 19.9381 24.7253C20.0802 24.7341 20.1883 24.8556 20.1801 24.9971L19.9598 28.7074C21.3125 28.0665 25.7604 25.8943 26.5701 24.6965C26.6499 24.5786 26.8105 24.5483 26.9274 24.6275C27.0452 24.7068 27.0761 24.8669 26.9963 24.9848C25.9638 26.5125 20.0365 29.2422 19.7842 29.3575C19.7503 29.374 19.7142 29.3817 19.6777 29.3817Z" fill="#7772D3"/>
<path d="M40.5156 32.6229C39.692 32.9627 38.5235 33.4054 37.1028 33.8585C33.8908 34.8932 29.3919 35.9794 24.7386 35.9794C24.2651 35.9794 23.7915 35.964 23.3128 35.9434C18.2837 35.6911 14.0577 34.3063 11.2214 33.0708C10.3464 32.695 9.60514 32.3295 9.01318 32.0155C9.20879 31.5316 9.41983 31.0528 9.64117 30.5895C10.1044 30.8366 10.6758 31.1197 11.3398 31.4183C14.0474 32.6435 18.3198 34.1467 23.39 34.399C28.4242 34.6461 33.5254 33.3848 36.969 32.2626C38.0757 31.9022 39.0125 31.5573 39.7177 31.2742C39.9854 31.6963 40.2531 32.1493 40.5156 32.6229Z" fill="#7772D3"/>
<path d="M42.765 38.1725C41.6069 38.6564 39.6611 39.4286 37.2933 40.1956C33.407 41.4569 28.3831 42.7181 23.8121 42.7181C23.4209 42.7181 23.0348 42.7078 22.6539 42.6924C18.0573 42.4607 13.9753 41.1017 11.0001 39.7786C9.42499 39.0734 8.16385 38.3784 7.30423 37.8636C7.41233 37.3488 7.53072 36.8134 7.66456 36.2677C8.36461 36.695 9.52279 37.3642 11.031 38.0695C13.9187 39.4234 18.083 40.9163 22.7311 41.148C27.508 41.39 33.129 39.9434 37.283 38.5586C39.481 37.8327 41.2671 37.1223 42.3018 36.6898C42.4716 37.1686 42.6261 37.6577 42.765 38.1725Z" fill="#7772D3"/>
<path d="M12.7193 35.202L11.5715 44.5302C11.4119 44.4375 11.2523 44.3346 11.0927 44.2316L12.2097 35.1402C12.2252 34.9961 12.359 34.8983 12.4929 34.9137C12.637 34.9343 12.7348 35.063 12.7193 35.202Z" fill="#7772D3"/>
<path d="M35.2034 45.23C35.049 45.3124 34.8946 45.3896 34.735 45.4668L33.7416 42.2702C33.6952 42.1364 33.7724 41.9923 33.9114 41.9511C34.0453 41.9048 34.1894 41.982 34.2306 42.121L35.2034 45.23Z" fill="#7772D3"/>
</svg>
