<svg width="48" height="48" viewBox="0 0 48 48" fill="none" xmlns="http://www.w3.org/2000/svg">
<path d="M48 24C48 28.3809 46.8263 32.4891 44.7722 36.0257C44.695 36.1596 44.6126 36.2934 44.5302 36.4273C44.3398 36.7465 44.139 37.0656 43.9279 37.3745C43.8404 37.5032 43.7529 37.6319 43.6551 37.7606C43.5418 37.9253 43.4234 38.0901 43.2999 38.2497C42.4968 39.3513 41.5907 40.3758 40.6075 41.3179C39.0476 42.8211 37.2767 44.1132 35.3513 45.148C33.8224 45.9665 32.2008 46.6306 30.4968 47.1094C30.3835 47.1403 30.2651 47.1712 30.1519 47.2021C28.1905 47.722 26.1261 48 24 48C22.2909 48 20.6281 47.8198 19.0219 47.48C18.0438 47.2793 17.0862 47.0116 16.1544 46.6873C12.7671 45.5187 9.71943 43.6087 7.21235 41.1428C6.0489 40.0103 5.00386 38.749 4.09266 37.3951C3.68597 36.8031 3.31016 36.1853 2.96525 35.5573C1.07593 32.1287 0 28.1905 0 24C0 10.7439 10.7439 0 24 0C37.2561 0 48 10.7439 48 24Z" fill="#EDDDD6"/>
<path d="M22.8108 11.3668C22.8108 11.3668 14.0973 4.3027 6.41649 18.0252C-1.26433 31.7477 6.40259 40.3712 16.1678 36.6353C25.9331 32.8994 23.3539 15.374 23.3539 15.374L22.8108 11.3668Z" fill="black"/>
<path d="M32.7975 15.8522C32.7975 15.8522 34.3625 12.2043 34.0628 10.6033C33.7632 9.00229 27.4188 4.2929 22.1025 6.85043C16.7861 9.40744 16.5117 16.4417 17.7524 19.3343C20.9473 26.784 27.3576 23.2602 27.3576 23.2602C27.3576 23.2602 37.6005 20.0025 32.7975 15.8522Z" fill="black"/>
<path d="M40.6075 41.3179C39.0476 42.8211 37.2767 44.1133 35.3514 45.148C33.8224 45.9666 32.2008 46.6307 30.4968 47.1094C30.3836 47.1403 30.2651 47.1712 30.1519 47.2021C28.1905 47.722 26.1261 48 24 48C22.2909 48 20.6281 47.8198 19.0219 47.4801C18.0438 47.2793 17.0863 47.0116 16.1545 46.6873C16.5045 38.5071 17.0502 30.3578 17.9048 29.426C18.0489 29.2664 18.2549 29.1069 18.5123 28.9473C18.5689 28.9164 18.5998 28.9009 18.5998 28.9009C20.9781 27.5213 27.4337 26.4144 32.8134 28.1442C34.2085 28.5921 35.511 29.2201 36.6538 30.0747C38.7285 31.6242 40.0309 36.1545 40.6075 41.3179Z" fill="#FCB35B"/>
<path d="M31.9717 24.3305L31.9784 24.4757L32.0036 27.2154L32.032 29.3632C32.032 29.3632 32.242 29.8517 29.7385 29.8239C26.383 29.774 24.8155 28.3073 24.8155 28.3073V23.3802L25.8394 23.5187L31.9717 24.3305Z" fill="#F27E64"/>
<path d="M31.9784 24.4756L32.0036 27.2151C30.3686 27.1049 27.3735 26.5608 26.0417 24.07C25.9387 23.8672 25.8677 23.6839 25.8399 23.5295L31.9665 24.4354L31.9784 24.4756Z" fill="black"/>
<path d="M32.3352 11.3379C32.3352 11.3379 35.827 18.2867 34.9215 22.3454C34.016 26.4036 30.3398 25.9701 28.1189 25.3142C25.8981 24.6584 24.8144 23.3765 24.8144 23.3765C24.8144 23.3765 22.816 24.176 21.3524 22.3562C19.8888 20.5364 20.6106 18.3171 21.7462 17.7565C22.8819 17.1958 24.3094 17.9608 24.3094 17.9608L23.1151 15.9511C23.1151 15.9511 27.1079 5.19585 32.3352 11.3379Z" fill="#F27E64"/>
<path d="M24.1532 21.3408C24.0894 21.3408 24.026 21.3171 23.9766 21.2698L21.947 19.3117C21.8461 19.2144 21.843 19.0533 21.9408 18.9524C22.0386 18.852 22.1992 18.8489 22.3001 18.9457L24.3303 20.9038C24.4312 21.0011 24.4342 21.1622 24.337 21.2631C24.286 21.3151 24.2196 21.3408 24.1532 21.3408Z" fill="black"/>
<path d="M22.0803 20.8884C21.9619 20.8884 21.8553 20.8051 21.8312 20.6841C21.8034 20.5461 21.8929 20.4123 22.0304 20.385L23.3579 20.1194C23.4974 20.0921 23.6292 20.1812 23.657 20.3186C23.6842 20.4566 23.5952 20.5899 23.4578 20.6177L22.1302 20.8833C22.1138 20.8869 22.0968 20.8884 22.0803 20.8884Z" fill="black"/>
<path d="M31.259 23.2909C31.138 23.2909 31.0135 23.2636 30.8889 23.208C29.9644 22.7988 29.128 21.2489 29.0924 21.183C29.0441 21.0934 29.0549 20.9833 29.1187 20.904C29.1825 20.8247 29.2875 20.7907 29.3853 20.8185L32.2118 21.6123C32.3395 21.6483 32.4182 21.776 32.3925 21.9062C32.3719 22.0081 32.1789 22.9115 31.6219 23.2013C31.5071 23.261 31.3846 23.2909 31.259 23.2909ZM29.8682 21.482C30.1883 21.9618 30.6573 22.5501 31.0943 22.7432C31.2436 22.8091 31.3331 22.7787 31.3872 22.7504C31.6008 22.6397 31.7526 22.2902 31.8335 22.0344L29.8682 21.482Z" fill="black"/>
<path d="M24.3094 17.9609C24.3094 17.9609 27.3411 16.2224 28.3594 13.932C29.3782 11.6417 29.3668 10.5174 29.3668 10.5174C29.3668 10.5174 29.8909 11.9634 31.0399 12.2553C32.189 12.5472 32.8948 12.5534 32.8948 12.5534L33.7159 14.6054L33.0111 9.65352C33.0111 9.65352 29.8641 8.15751 29.4533 8.17707C29.0425 8.19663 23.9022 9.36986 23.617 9.69625C23.3318 10.0226 21.8873 14.1261 21.8873 14.1261L21.8595 15.95L24.3094 17.9609Z" fill="black"/>
<path d="M19.0219 47.48C18.0438 47.2793 17.0863 47.0116 16.1545 46.6872C12.7671 45.5186 9.71945 43.6087 7.21237 41.1428C10.9035 33.1377 17.6628 29.3899 18.5122 28.9472C18.5689 28.9163 18.5998 28.9009 18.5998 28.9009C18.5998 28.9009 17.9871 41.9974 19.0219 47.48Z" fill="#FCB35B"/>
<path d="M43.2999 38.2496C42.4968 39.3513 41.5908 40.3758 40.6075 41.3178C39.0476 42.8211 37.2767 44.1132 35.3514 45.148L32.8134 28.1441C33.2047 28.2059 38.8881 29.2458 43.2999 38.2496Z" fill="#FCB35B"/>
<path d="M29.7102 30.0697C29.5614 30.0697 29.407 30.0677 29.2454 30.0631C26.0886 29.973 24.1076 28.1863 24.0248 28.1106C23.9197 28.0144 23.9131 27.8522 24.0088 27.7472C24.1051 27.6422 24.2672 27.635 24.3728 27.7313C24.3918 27.7488 26.3028 29.4639 29.2603 29.5483C32.1159 29.6332 32.746 28.926 32.7517 28.9188C32.8412 28.8122 33.0008 28.7937 33.1105 28.8802C33.2191 28.9666 33.2428 29.12 33.1599 29.2317C33.0935 29.3218 32.4567 30.0697 29.7102 30.0697Z" fill="#7772D3"/>
</svg>
