<svg width="48" height="48" viewBox="0 0 48 48" fill="none" xmlns="http://www.w3.org/2000/svg">
<path d="M48 24C48 28.5817 46.713 32.8649 44.489 36.5096C44.1029 37.1429 43.686 37.7503 43.2484 38.3423C42.0746 39.9125 40.7104 41.3333 39.1969 42.5791C38.6358 43.0373 38.054 43.4749 37.4517 43.8816C37.009 44.1802 36.556 44.4685 36.0927 44.7362C33.4775 46.2651 30.5483 47.3102 27.4183 47.758C26.4556 47.897 25.4775 47.9743 24.4788 47.9897C24.3192 48 24.1596 48 24 48C22.0643 48 20.175 47.7683 18.3732 47.3359C15.7426 46.7027 13.2767 45.6371 11.0631 44.2162C10.26 43.7066 9.49292 43.1454 8.7619 42.5328C7.72715 41.6885 6.76447 40.7516 5.88417 39.7375C5.48262 39.269 5.09137 38.7902 4.72586 38.296C4.6435 38.1879 4.56627 38.0849 4.48905 37.9768C3.60874 36.7465 2.83655 35.4286 2.19819 34.0386C0.782491 30.9807 -7.62939e-06 27.5779 -7.62939e-06 24C-7.62939e-06 10.7439 10.7439 0 24 0C37.2561 0 48 10.7439 48 24Z" fill="#EDDDD6"/>
<path d="M39.1969 42.5791C38.6357 43.0373 38.054 43.4749 37.4517 43.8816C37.009 44.1802 36.5559 44.4684 36.0926 44.7361C33.4774 46.2651 30.5482 47.3102 27.4182 47.758C26.4555 47.897 25.4774 47.9742 24.4787 47.9897C24.3191 48 24.1595 48 23.9999 48C22.0643 48 20.175 47.7683 18.3732 47.3359C15.7425 46.7027 13.2767 45.637 11.063 44.2162C10.2599 43.7065 9.49287 43.1454 8.76185 42.5328C7.7271 41.6885 6.76443 40.7516 5.88412 39.7374C5.48257 39.269 5.09133 38.7902 4.72582 38.296C6.36288 34.4195 9.35387 28.8648 13.4311 27.5058C19.8507 25.3642 33.5289 28.3809 33.5289 28.3809C33.5289 28.3809 38.2136 30.6563 39.1969 42.5791Z" fill="#7772D3"/>
<path d="M36.0925 44.7362C33.4773 46.2651 30.5481 47.3102 27.4181 47.758C26.4555 47.897 25.4773 47.9743 24.4786 47.9897C24.319 48 24.1594 48 23.9999 48C22.0642 48 20.1749 47.7683 18.3731 47.3359C15.7425 46.7027 13.2766 45.6371 11.0629 44.2162C10.2598 43.7066 9.49279 43.1454 8.76177 42.5328C8.80296 36.2574 9.27657 30.5225 10.7952 29.1531C11.5571 28.4633 12.4683 27.9228 13.431 27.5058C15.6601 26.5431 18.1517 26.2188 19.7888 26.1107C20.875 26.0386 21.5803 26.0643 21.5803 26.0643C21.5803 26.0643 23.0372 26.121 24.9934 26.3372C25.534 26.4041 26.0797 26.471 26.6511 26.5534C29.9818 27.0322 33.884 27.964 34.893 29.7246C35.7631 31.2381 36.041 38.018 36.0925 44.7362Z" fill="#7772D3"/>
<path d="M28.6053 13.4934C28.6053 13.4934 31.7229 8.2342 29.1345 7.10576C26.5456 5.97732 23.4593 8.86432 23.4593 8.86432C23.4593 8.86432 17.6745 9.38015 15.4784 12.4798C13.2822 15.5794 18.6892 21.0038 18.6892 21.0038L28.6053 13.4934Z" fill="#7772D3"/>
<path d="M19.7167 22.1781L19.3899 27.5078C19.3899 27.5078 20.2567 29.0989 23.3591 29.5436C25.6703 29.8751 26.5181 29.4 26.5181 29.4L26.36 26.6811L26.202 24.0291L20.6484 22.4453L19.7167 22.1781Z" fill="#7772D3"/>
<path d="M20.6485 22.4448C20.6532 22.591 20.698 22.7665 20.7721 22.9688C21.8011 25.7041 25.0265 26.4783 26.3602 26.6806L26.2021 24.0286L20.6485 22.4448Z" fill="#7772D3"/>
<path d="M28.1369 11.9526C28.1369 11.9526 30.524 18.8072 29.1938 22.4525C27.863 26.0978 24.5142 25.2499 22.5384 24.3737C20.5626 23.4975 19.7163 22.1791 19.7163 22.1791C19.7163 22.1791 17.7698 22.6764 16.6367 20.8149C15.5037 18.9534 16.4406 16.9874 17.5598 16.6064C18.679 16.2254 19.9068 17.1068 19.9068 17.1068L19.0455 15.1016C19.0445 15.1016 24.0457 5.63446 28.1369 11.9526Z" fill="#7772D3"/>
<path d="M19.5451 20.0172C19.488 20.0172 19.4303 19.9982 19.3824 19.9591L17.0872 18.0849C16.977 17.9953 16.9606 17.8326 17.0506 17.7225C17.1402 17.6123 17.3018 17.5959 17.413 17.6859L19.7083 19.5601C19.8184 19.6497 19.8349 19.8123 19.7448 19.9225C19.6939 19.9848 19.6197 20.0172 19.5451 20.0172Z" fill="#7772D3"/>
<path d="M17.358 19.8532C17.237 19.8532 17.1294 19.7677 17.1057 19.6447C17.0784 19.5052 17.1701 19.3703 17.3096 19.3436L18.9156 19.0337C19.0556 19.0049 19.1899 19.0975 19.2167 19.2375C19.244 19.377 19.1524 19.5119 19.0129 19.5387L17.4069 19.8485C17.3904 19.8516 17.3744 19.8532 17.358 19.8532Z" fill="#7772D3"/>
<path d="M28.6054 13.4935C28.6054 13.4935 28.0926 12.3867 26.7634 12.2955C25.4342 12.2049 24.6007 13.0935 24.6007 13.0935C24.6007 13.0935 25.0466 15.3684 23.1655 16.4464C21.2844 17.5249 19.9058 17.1063 19.9058 17.1063L18.6229 16.5586L17.7786 14.5833L21.8234 10.7274L26.8926 8.43658L29.2556 10.8618L28.6054 13.4935Z" fill="#7772D3"/>
<path d="M26.0188 21.6585C25.8109 21.6585 24.5832 21.606 24.105 20.3984C24.0525 20.2661 24.1173 20.1169 24.2496 20.0644C24.3814 20.0129 24.5312 20.0767 24.5837 20.209C24.9636 21.168 26.0173 21.1417 26.0296 21.1438C26.1676 21.1314 26.2906 21.2498 26.2958 21.3919C26.3009 21.534 26.1892 21.6529 26.0471 21.658C26.043 21.6585 26.0332 21.6585 26.0188 21.6585Z" fill="#7772D3"/>
<path d="M25.0634 29.9574C21.5739 29.9574 18.9183 27.5417 18.7896 27.4223C18.6857 27.3255 18.6795 27.1629 18.7757 27.0584C18.8725 26.9539 19.0347 26.9477 19.1397 27.0445C19.1747 27.0769 22.6549 30.2328 26.6972 29.2471C26.8346 29.2126 26.9746 29.298 27.0086 29.436C27.042 29.5739 26.9576 29.7129 26.8197 29.7469C26.2164 29.8941 25.6291 29.9574 25.0634 29.9574Z" fill="#7772D3"/>
</svg>
