<svg width="49" height="48" viewBox="0 0 49 48" fill="none" xmlns="http://www.w3.org/2000/svg">
<path d="M48.4 24C48.4 28.5817 47.113 32.8649 44.8891 36.5097C44.503 37.1429 44.086 37.7503 43.6484 38.3423C42.4747 39.9125 41.1104 41.3333 39.5969 42.5791C39.0358 43.0373 38.4541 43.4749 37.8518 43.8816C37.409 44.1802 36.956 44.4685 36.4927 44.7362C33.8775 46.2651 30.9483 47.3102 27.8183 47.758C26.8556 47.897 25.8775 47.9743 24.8788 47.9897C24.7192 48 24.5596 48 24.4 48C22.4644 48 20.5751 47.7683 18.7733 47.3359C16.1426 46.7027 13.6767 45.6371 11.4631 44.2162C10.66 43.7066 9.89295 43.1454 9.16193 42.5328C8.12718 41.6885 7.16451 40.7516 6.2842 39.7374C5.88265 39.269 5.49141 38.7902 5.1259 38.296C5.04353 38.1879 4.96631 38.0849 4.88909 37.9768C4.00878 36.7465 3.23658 35.4286 2.59822 34.0386C1.18252 30.9807 0.400024 27.5779 0.400024 24C0.400024 10.7439 11.1439 0 24.4 0C37.6561 0 48.4 10.7439 48.4 24Z" fill="#FDBA74"/>
<path d="M39.5969 42.5792C39.0358 43.0374 38.454 43.475 37.8517 43.8816C37.409 44.1802 36.956 44.4685 36.4926 44.7362C33.8775 46.2652 30.9482 47.3102 27.8183 47.7581C26.8556 47.8971 25.8775 47.9743 24.8787 47.9897C24.7192 48 24.5596 48 24.4 48C22.4643 48 20.575 47.7684 18.7732 47.3359C16.1426 46.7027 13.6767 45.6371 11.463 44.2163C10.66 43.7066 9.89291 43.1455 9.16189 42.5329C8.12714 41.6886 7.16446 40.7517 6.28416 39.7375C5.88261 39.269 5.49136 38.7903 5.12585 38.2961C6.76292 34.4196 9.75391 28.8649 13.8311 27.5058C20.2507 25.3643 33.9289 28.381 33.9289 28.381C33.9289 28.381 38.6136 30.6564 39.5969 42.5792Z" fill="#46467F"/>
<path d="M36.4925 44.7363C33.8773 46.2653 30.9481 47.3103 27.8181 47.7582C26.8554 47.8972 25.8773 47.9744 24.8786 47.9899C24.719 48.0002 24.5594 48.0002 24.3998 48.0002C22.4642 48.0002 20.5749 47.7685 18.7731 47.3361C16.1424 46.7029 13.6765 45.6372 11.4629 44.2164C10.6598 43.7067 9.89276 43.1456 9.16174 42.533C9.20293 36.2576 9.67654 30.5227 11.1952 29.1533C11.9571 28.4635 12.8683 27.923 13.831 27.506C16.0601 26.5433 18.5517 26.219 20.1888 26.1109C21.275 26.0388 21.9803 26.0645 21.9803 26.0645C21.9803 26.0645 23.4372 26.1212 25.3934 26.3374C25.9339 26.4043 26.4796 26.4712 27.0511 26.5536C30.3818 27.0324 34.284 27.9641 35.293 29.7248C36.163 31.2383 36.441 38.0182 36.4925 44.7363Z" fill="#46467F"/>
<path d="M29.0053 13.4935C29.0053 13.4935 32.123 8.23433 29.5345 7.10588C26.9456 5.97744 23.8594 8.86444 23.8594 8.86444C23.8594 8.86444 18.0746 9.38028 15.8784 12.4799C13.6823 15.5795 19.0892 21.004 19.0892 21.004L29.0053 13.4935Z" fill="#EA580C"/>
<path d="M20.1168 22.1782L19.7899 27.5079C19.7899 27.5079 20.6567 29.099 23.7591 29.5437C26.0703 29.8752 26.9181 29.4001 26.9181 29.4001L26.7601 26.6812L26.6021 24.0293L21.0485 22.4454L20.1168 22.1782Z" fill="#F27E64"/>
<path d="M21.0486 22.4448C21.0532 22.591 21.098 22.7665 21.1721 22.9688C22.2011 25.7042 25.4265 26.4784 26.7602 26.6807L26.6022 24.0287L21.0486 22.4448Z" fill="black"/>
<path d="M28.5369 11.9527C28.5369 11.9527 30.924 18.8073 29.5938 22.4526C28.263 26.0979 24.9143 25.25 22.9385 24.3738C20.9626 23.4976 20.1163 22.1792 20.1163 22.1792C20.1163 22.1792 18.1699 22.6765 17.0368 20.815C15.9037 18.9535 16.8406 16.9875 17.9598 16.6065C19.079 16.2256 20.3068 17.1069 20.3068 17.1069L19.4455 15.1018C19.4445 15.1018 24.4458 5.63458 28.5369 11.9527Z" fill="#F27E64"/>
<path d="M19.9452 20.0173C19.888 20.0173 19.8304 19.9983 19.7825 19.9592L17.4873 18.085C17.3771 17.9954 17.3606 17.8328 17.4507 17.7226C17.5403 17.6124 17.7019 17.596 17.8131 17.6861L20.1083 19.5602C20.2185 19.6498 20.235 19.8125 20.1449 19.9226C20.0939 19.9849 20.0198 20.0173 19.9452 20.0173Z" fill="black"/>
<path d="M17.758 19.8531C17.637 19.8531 17.5295 19.7676 17.5058 19.6446C17.4785 19.5051 17.5701 19.3702 17.7096 19.3435L19.3156 19.0336C19.4556 19.0048 19.59 19.0974 19.6168 19.2374C19.644 19.3769 19.5524 19.5118 19.4129 19.5385L17.8069 19.8484C17.7904 19.8515 17.7745 19.8531 17.758 19.8531Z" fill="black"/>
<path d="M29.0054 13.4934C29.0054 13.4934 28.4926 12.3866 27.1634 12.2955C25.8342 12.2049 25.0007 13.0934 25.0007 13.0934C25.0007 13.0934 25.4465 15.3683 23.5655 16.4463C21.6844 17.5248 20.3057 17.1063 20.3057 17.1063L19.0229 16.5585L18.1786 14.5832L22.2234 10.7274L27.2926 8.43652L29.6555 10.8617L29.0054 13.4934Z" fill="#EA580C"/>
<path d="M26.4189 21.6583C26.2109 21.6583 24.9832 21.6058 24.505 20.3982C24.4525 20.266 24.5174 20.1167 24.6497 20.0642C24.7814 20.0127 24.9312 20.0765 24.9837 20.2088C25.3636 21.1678 26.4173 21.1415 26.4297 21.1436C26.5676 21.1312 26.6906 21.2496 26.6958 21.3917C26.7009 21.5338 26.5892 21.6527 26.4472 21.6578C26.443 21.6583 26.4333 21.6583 26.4189 21.6583Z" fill="black"/>
<path d="M25.4634 29.9572C21.9739 29.9572 19.3183 27.5415 19.1897 27.4221C19.0857 27.3254 19.0795 27.1627 19.1757 27.0582C19.2725 26.9537 19.4347 26.9475 19.5397 27.0443C19.5747 27.0767 23.0549 30.2326 27.0972 29.2469C27.2346 29.2124 27.3746 29.2978 27.4086 29.4358C27.442 29.5738 27.3576 29.7127 27.2197 29.7467C26.6164 29.8939 26.0291 29.9572 25.4634 29.9572Z" fill="white"/>
</svg>
