<svg width="48" height="48" viewBox="0 0 48 48" fill="none" xmlns="http://www.w3.org/2000/svg">
<path d="M48 24C48 27.7014 47.161 31.2123 45.6631 34.3423C43.7482 38.3423 40.7575 41.7297 37.0668 44.1338C35.9292 44.8752 34.7196 45.5187 33.4584 46.0643C30.5553 47.3102 27.3587 48 24.0026 48C20.9759 48 18.0779 47.4389 15.4115 46.4144C13.5121 45.6885 11.7362 44.7259 10.1045 43.5676C8.09695 42.1416 6.31593 40.4067 4.83347 38.4453C1.79647 34.4247 0 29.4208 0 24C0 10.7439 10.7479 0 24.0026 0C37.2521 0 48 10.7439 48 24Z" fill="#EDDDD6"/>
<path d="M15.4115 46.4144C13.5121 45.6885 11.7362 44.7258 10.1045 43.5675C8.09698 42.1415 6.31596 40.4066 4.8335 38.4453C7.22706 33.5701 12.1995 25.3127 18.4125 25.3333C25.2483 25.3796 18.6853 39.9227 15.4115 46.4144Z" fill="#7772D3"/>
<path d="M27.666 11.3642C27.666 11.3642 34.4741 9.53204 39.5376 15.7344C44.6017 21.9367 41.4545 29.5717 33.4322 29.3524C25.4094 29.1331 23.5445 20.9338 23.5445 20.9338L27.666 11.3642Z" fill="#7772D3"/>
<path d="M37.0669 44.1339C35.9293 44.8752 34.7196 45.5187 33.4585 46.0644C30.5553 47.3102 27.3588 48 24.0026 48C20.9759 48 18.0779 47.4389 15.4115 46.4144C13.5121 45.6886 11.7362 44.7259 10.1045 43.5676C10.5626 36.7002 11.2936 30.1107 12.4415 28.6641C14.1195 26.5431 16.091 25.7606 18.4125 25.3334C19.6479 25.1069 20.9605 24.9833 22.376 24.8083C24.4556 24.556 26.9624 24.6075 29.2016 24.834C31.4253 25.0554 33.3658 25.4518 34.3953 25.8945C35.4608 26.3527 36.48 35.3256 37.0669 44.1339Z" fill="#7772D3"/>
<path d="M18.9067 20.5027C18.622 21.8034 17.8406 22.7377 17.1622 22.5889C16.4832 22.4402 16.1636 21.2655 16.4487 19.9643C16.7334 18.6635 17.5148 17.7292 18.1932 17.878C18.8716 18.0273 19.1913 19.2019 18.9067 20.5027Z" fill="#7772D3"/>
<path d="M45.6631 34.3423C43.7482 38.3423 40.7576 41.7297 37.0668 44.1339C35.9292 44.8752 34.7196 45.5187 33.4585 46.0644L28.1 24.834C28.1 24.834 28.5015 24.8031 29.2015 24.834C32.0223 24.9678 39.5119 26.1313 45.6631 34.3423Z" fill="#7772D3"/>
<path d="M17.4458 16.4685C17.4458 16.4685 15.5099 14.4103 15.9937 11.1537C16.3216 8.9462 17.2867 8.21467 17.2867 8.21467C17.2867 8.21467 15.7374 5.23964 20.1806 5.33591C24.6239 5.43217 28.2642 5.05328 30.2444 8.87567C31.4109 11.1274 30.9465 16.019 30.9465 16.019L17.4458 16.4685Z" fill="#7772D3"/>
<path d="M27.263 19.9398L27.2316 25.3627C27.2316 25.3627 26.2448 26.9158 23.0709 27.1552C20.7067 27.3333 19.9655 26.1153 19.9655 26.1153L20.5657 21.373L26.301 20.1462L27.263 19.9398Z" fill="#7772D3"/>
<path d="M27.2563 19.6093C27.2419 19.757 27.1843 19.9315 27.0957 20.1317C25.8665 22.8331 21.59 23.9357 20.2249 24.05L20.5651 21.3738L27.2563 19.6093Z" fill="#7772D3"/>
<path d="M19.4286 9.00544C19.4286 9.00544 16.5429 15.7879 17.6429 19.5722C18.7429 23.3565 22.1938 22.7259 24.2548 21.9722C26.3159 21.2186 27.2635 19.9408 27.2635 19.9408C27.2635 19.9408 29.2021 20.5771 30.4766 18.7681C31.7516 16.9591 30.9357 14.903 29.828 14.4412C28.7203 13.9789 27.4164 14.7882 27.4164 14.7882L28.4258 12.8155C28.4258 12.8155 24.0036 2.88189 19.4286 9.00544Z" fill="#7772D3"/>
<path d="M27.4164 14.7882C27.4164 14.7882 24.524 15.4302 22.4445 12.2374C20.3654 9.04457 20.525 7.71381 20.525 7.71381L18.5792 11.0888C18.5792 11.0888 18.0856 8.78408 18.9823 7.29167C19.879 5.79927 20.8452 6.08652 20.8452 6.08652L27.2784 7.56297L29.063 12.6631L27.4164 14.7882Z" fill="#7772D3"/>
<path d="M27.752 17.9931C27.6902 17.9931 27.628 17.9709 27.5785 17.9256C27.4735 17.8299 27.4658 17.6667 27.5621 17.5617L29.3647 15.5882C29.4604 15.4837 29.6236 15.476 29.7281 15.5717C29.8331 15.6674 29.8409 15.8301 29.7446 15.9356L27.942 17.9092C27.8915 17.9648 27.822 17.9931 27.752 17.9931Z" fill="#7772D3"/>
<path d="M29.6859 17.4403C29.6746 17.4403 29.6627 17.4398 29.6514 17.4383L28.379 17.2669C28.2379 17.2478 28.1391 17.1181 28.1581 16.9771C28.1767 16.836 28.3085 16.7367 28.4474 16.7562L29.7199 16.9277C29.8609 16.9467 29.9598 17.0764 29.9407 17.2175C29.9232 17.3467 29.8125 17.4403 29.6859 17.4403Z" fill="#7772D3"/>
<path d="M20.7999 19.3873C20.6372 19.3873 20.4771 19.3538 20.3253 19.274C20.1992 19.2081 20.1503 19.0527 20.2162 18.9266C20.2831 18.8004 20.4396 18.7521 20.5636 18.8179C21.0882 19.0908 22.0533 18.2564 22.3487 17.9418C22.4465 17.8379 22.6092 17.8332 22.7127 17.9305C22.8161 18.0278 22.8213 18.1905 22.7235 18.2939C22.6025 18.4231 21.6672 19.3873 20.7999 19.3873Z" fill="#7772D3"/>
<path d="M20.0962 25.08L17.3928 25.5521C17.3928 25.5521 17.4494 29.1763 22.5361 29.6334C27.6223 30.0911 31.0382 25.0224 31.0382 25.0224L25.6966 24.3748L20.0962 25.08Z" fill="#7772D3"/>
<path d="M29.9093 20.8077C29.9917 22.137 29.4965 23.2494 28.8031 23.2927C28.1098 23.3359 27.4802 22.2935 27.3979 20.9642C27.315 19.635 27.8107 18.5225 28.5041 18.4793C29.1974 18.4355 29.8265 19.4785 29.9093 20.8077Z" fill="#7772D3"/>
</svg>
