<svg width="48" height="48" viewBox="0 0 48 48" fill="none" xmlns="http://www.w3.org/2000/svg">
<path d="M48 24C48 27.2226 47.3669 30.296 46.2138 33.1017C45.3696 35.1557 44.2475 37.0708 42.8937 38.7953C39.7847 42.7644 35.4505 45.7297 30.4575 47.1197C28.4037 47.6962 26.2366 48 24.0026 48C23.1532 48 22.3142 47.9588 21.4855 47.8713C20.945 47.8146 20.4096 47.7374 19.8795 47.6448C19.2927 47.5418 18.7161 47.4182 18.1448 47.2741C18.0367 47.2484 17.9234 47.2226 17.8153 47.1917C16.8991 46.9498 15.9983 46.6512 15.1284 46.3011C13.5944 45.6937 12.1325 44.9266 10.7736 44.0257C10.3515 43.7477 9.93458 43.4543 9.53308 43.1505C8.73007 42.5431 7.96827 41.8893 7.24762 41.184C5.53352 39.5161 4.07678 37.5958 2.92375 35.4852C1.06037 32.072 0 28.1596 0 24C0 10.7439 10.7479 0 24.0026 0C37.2573 0 48 10.7439 48 24Z" fill="#EDDDD6"/>
<path d="M18.0907 13.5975C18.0907 13.5975 15.7944 15.5238 15.5777 17.4569C15.3605 19.39 15.3605 19.39 15.3605 19.39C15.3605 19.39 12.6082 20.2693 11.7768 23.5954C10.649 28.1107 13.7262 29.6808 13.7262 29.6808L37.6289 32.2615C37.6289 32.2615 40.4379 29.7992 39.8758 25.843C39.3137 21.8863 36.9978 20.6276 36.9978 20.6276C36.9978 20.6276 37.3792 18.0839 36.0991 15.5285C34.6223 12.5797 31.5894 12.5504 31.5894 12.5504L18.0907 13.5975Z" fill="black"/>
<path d="M42.8937 38.7953C39.7847 42.7645 35.4505 45.7297 30.4575 47.1197C28.4037 47.6962 26.2366 48 24.0026 48C23.1533 48 22.3142 47.9588 21.4855 47.8713C20.945 47.8146 20.4097 47.7374 19.8795 47.6448C19.2927 47.5418 18.7161 47.4182 18.1448 47.2741C18.0367 47.2484 17.9234 47.2226 17.8153 47.1917C16.8991 46.9498 15.9983 46.6512 15.1284 46.3011C13.5944 45.6937 12.1325 44.9266 10.7736 44.0257C10.8251 42.7439 10.9126 42.018 10.9126 42.018L14.7886 29.7915L15.1696 28.5869C15.396 27.8661 15.8593 27.2638 16.4719 26.8623C16.7859 26.6512 17.141 26.4968 17.5219 26.4144C18.2323 26.2497 19.1176 26.0695 20.1214 25.8996C20.4354 25.8533 20.7494 25.8018 21.084 25.7555C22.1238 25.6113 23.2665 25.4981 24.4453 25.4466C25.1556 25.4157 25.866 25.4105 26.5815 25.4363C26.9006 25.4466 27.2197 25.462 27.5389 25.4826C27.9095 25.5135 28.275 25.5495 28.6456 25.5907C29.0574 25.6422 29.464 25.704 29.8707 25.7863C30.7972 25.9614 31.7032 26.2085 32.5628 26.5431C34.8431 27.4337 36.8249 29.2664 38.4566 31.3204C40.5362 33.9408 42.0496 36.9266 42.8937 38.7953Z" fill="#507849"/>
<path d="M27.612 24.3367C27.612 24.3367 29.2926 24.8875 29.8022 25.6695C30.3736 26.5462 29.305 28.8556 26.2649 30.6512C24.0443 31.9629 22.1691 32.4268 22.1691 32.4268C22.1691 32.4268 20.2352 29.7519 19.864 28.1256C19.4929 26.4993 20.8544 24.3665 20.8544 24.3665L27.612 24.3367Z" fill="#FCB35B"/>
<path d="M18.7125 16.6023C18.7125 16.6023 16.6911 13.5145 16.7071 12C16.723 10.4855 21.7722 5.14904 27.0529 6.63269C32.3337 8.11635 33.7199 14.5133 33.0508 17.3627C31.3279 24.7001 24.8895 22.5081 24.8895 22.5081C24.8895 22.5081 14.9847 21.1784 18.7125 16.6023Z" fill="black"/>
<path d="M20.8374 24.2332L20.8544 24.367L21.2739 26.8798L21.5946 28.8509C21.5946 28.8509 21.4814 29.3323 23.7689 28.9029C26.8332 28.3155 27.6686 26.8669 27.6686 26.8669L27.2367 22.2069L26.3215 22.4993L20.8374 24.2332Z" fill="#F27E64"/>
<path d="M20.8544 24.3668L21.2739 26.8793C22.7533 26.5148 25.4079 25.5327 26.2253 23.0367C26.287 22.8344 26.3221 22.6548 26.3231 22.5091L20.8596 24.3272L20.8544 24.3668Z" fill="black"/>
<path d="M18.4073 12.3938C18.4073 12.3938 16.3318 19.321 17.8153 22.8911C19.2993 26.4613 22.5952 25.4708 24.523 24.5117C26.4507 23.5526 27.2357 22.2039 27.2357 22.2039C27.2357 22.2039 29.1948 22.6137 30.2413 20.7109C31.2877 18.8082 30.2685 16.8927 29.1382 16.5627C28.0078 16.2327 26.8244 17.1635 26.8244 17.1635L27.5939 15.13C27.5939 15.13 22.2025 5.92589 18.4073 12.3938Z" fill="#F27E64"/>
<path d="M27.473 20.2576C27.42 20.2576 27.3675 20.2417 27.3216 20.2082C27.2063 20.1243 27.1816 19.9637 27.265 19.8489L28.8077 17.7282C28.8911 17.6129 29.0527 17.5882 29.167 17.6716C29.2823 17.7555 29.307 17.9161 29.2236 18.0308L27.6809 20.1516C27.6305 20.2211 27.5523 20.2576 27.473 20.2576Z" fill="black"/>
<path d="M29.2978 19.5088C29.2916 19.5088 28.033 19.48 28.033 19.48C27.8915 19.4769 27.7788 19.359 27.7819 19.2165C27.7855 19.0749 27.8997 18.9611 28.0454 18.9653L29.304 18.9941C29.4455 18.9972 29.5582 19.1151 29.5551 19.2576C29.5515 19.3976 29.4373 19.5088 29.2978 19.5088Z" fill="black"/>
<path d="M21.1962 23.1982C21.12 23.1982 21.0444 23.1864 20.9692 23.1627C20.4025 22.9846 20.0766 22.18 20.0411 22.0884C19.9922 21.9633 20.0483 21.8218 20.1693 21.7636L22.6293 20.5802C22.723 20.5354 22.8336 20.5509 22.9103 20.6188C22.988 20.6867 23.0174 20.7943 22.986 20.8921C22.9644 20.9585 22.4465 22.5198 21.6595 23.0474C21.5112 23.1472 21.3537 23.1982 21.1962 23.1982ZM20.6212 22.1177C20.7458 22.3525 20.9352 22.6129 21.1241 22.6721C21.1792 22.6891 21.2564 22.6984 21.3728 22.6206C21.7254 22.3839 22.0466 21.8073 22.2612 21.3291L20.6212 22.1177Z" fill="black"/>
<path d="M26.8249 17.1635C26.8249 17.1635 23.7684 16.0608 22.4661 14.1277C21.1638 12.1946 20.9924 11.1635 20.9924 11.1635C20.9924 11.1635 20.7458 12.5725 19.741 13.025C18.7362 13.4775 18.0907 13.5975 18.0907 13.5975L17.6702 15.6093L17.5163 10.9612C17.5163 10.9612 20.1564 9.0837 20.5358 9.03479C20.9151 8.9864 25.8114 9.23093 26.1249 9.48369C26.4383 9.73646 28.4237 13.2608 28.4237 13.2608L28.7434 14.9267L26.8249 17.1635Z" fill="black"/>
<path d="M27.4643 24.6662C27.4643 24.6662 24.192 27.7509 22.2762 27.7689C20.3598 27.7869 20.6285 26.1931 20.6285 26.1931L20.9445 29.8703L22.637 30.4253L26.8682 28.7197L29.2432 26.0613L27.4643 24.6662Z" fill="#FCB35B"/>
<path d="M24.0031 30.6105C24.0031 30.6105 25.4377 32.5735 25.7296 35.6535C26.0209 38.733 24.2332 42.1946 24.2332 42.1946C24.2332 42.1946 21.3666 38.9436 20.9872 36.4895C20.6079 34.0355 21.9205 30.5513 21.9205 30.5513C21.9205 30.5513 20.6212 33.5073 20.3 35.3163C19.9788 37.1253 19.5356 39.4502 19.5356 39.4502C19.5356 39.4502 17.7963 37.1439 17.9003 34.4061C18.0043 31.6684 20.9445 29.8702 20.9445 29.8702L24.0031 30.6105Z" fill="#FCB35B"/>
<path d="M23.6366 31.5151C22.8465 31.5151 21.8278 31.2398 21.6826 31.1991C21.6641 31.1934 21.6543 31.1898 21.6456 31.1857C21.5879 31.16 21.5401 31.1131 21.5138 31.0514C21.3403 30.6421 20.5039 28.5636 21.0438 27.8167C21.1489 27.6721 21.3481 27.5027 21.7166 27.5356C22.0085 27.5593 22.2391 27.6968 22.3827 27.9336C22.8125 28.6398 22.3333 30.1372 22.0965 30.7739C22.6524 30.9072 23.5995 31.0848 24.0371 30.9582C24.4998 30.8244 24.7624 29.2307 24.5776 28.3309C24.5487 28.1914 24.6383 28.0555 24.7778 28.0272C24.9137 27.9969 25.0532 28.0875 25.082 28.2275C25.2488 29.0392 25.1397 31.1754 24.1802 31.4534C24.0252 31.4966 23.8384 31.5151 23.6366 31.5151ZM21.6317 28.0463C21.5123 28.0463 21.4783 28.0936 21.4608 28.1178C21.2451 28.4159 21.4577 29.3764 21.7454 30.2144C21.9858 29.4659 22.1649 28.5657 21.9426 28.2002C21.8849 28.1055 21.8021 28.0586 21.6744 28.0478C21.659 28.0468 21.6446 28.0463 21.6317 28.0463Z" fill="#F7734F"/>
<path d="M23.5439 35.687C23.3231 35.687 23.1306 35.5933 22.9885 35.4163C22.3049 34.5654 22.9396 31.6329 23.0148 31.3019C23.0395 31.1902 23.1352 31.1089 23.249 31.1011C23.3581 31.0888 23.4683 31.1624 23.5074 31.27C23.7061 31.8151 24.6656 34.5757 24.0839 35.4096C23.9578 35.5902 23.7725 35.686 23.5475 35.687C23.5465 35.687 23.5455 35.687 23.5439 35.687ZM23.3334 32.3926C23.1656 33.4777 23.0889 34.7198 23.3895 35.094C23.4348 35.1496 23.4796 35.1723 23.5444 35.1723C23.6093 35.1723 23.6366 35.1512 23.6618 35.1151C23.9048 34.7661 23.6644 33.5189 23.3334 32.3926Z" fill="#F7734F"/>
<path d="M18.1448 47.2741C18.0367 47.2484 17.9235 47.2226 17.8154 47.1917C16.8991 46.9498 15.9983 46.6512 15.1284 46.3011C13.5944 45.6937 12.1326 44.9266 10.7736 44.0257C10.3515 43.7477 9.93459 43.4543 9.53309 43.1506C8.73009 42.5431 7.96828 41.8893 7.24763 41.184C7.25793 41.1171 7.27337 41.0502 7.28881 40.9833C8.60141 35.0425 11.0928 31.3874 13.1518 29.2664C15.0151 27.3514 16.7992 26.6718 16.7992 26.6718C16.7787 26.7336 16.4925 26.7954 16.4719 26.8623C16.2711 27.6036 16.1785 28.6589 16.1733 29.9408C16.1579 34.3629 17.1668 41.4466 18.1448 47.2741Z" fill="#507849"/>
</svg>
